<?xml version="1.0" encoding="UTF-8" standalone="no"?>
<svg width="1912px" height="565px" viewBox="0 0 1912 565" version="1.1" xmlns="http://www.w3.org/2000/svg" xmlns:xlink="http://www.w3.org/1999/xlink">
    <!-- Generator: Sketch 39 (31667) - http://www.bohemiancoding.com/sketch -->
    <title>SEO_WOO3</title>
    <desc>Created with Sketch.</desc>
    <defs>
        <linearGradient x1="50%" y1="0%" x2="50%" y2="100%" id="linearGradient-1">
            <stop stop-color="#78B7EE" offset="0%"></stop>
            <stop stop-color="#428BCA" offset="100%"></stop>
        </linearGradient>
        <rect id="path-2" x="0" y="0" width="1912" height="565"></rect>
    </defs>
    <g id="Page-1" stroke="none" stroke-width="1" fill="none" fill-rule="evenodd">
        <g id="SEO_WOO3">
            <g id="Group-2">
                <mask id="mask-3" fill="white">
                    <use xlink:href="#path-2"></use>
                </mask>
                <use id="Mask" fill="url(#linearGradient-1)" xlink:href="#path-2"></use>
                <g id="Group-5" mask="url(#mask-3)">
                    <g transform="translate(-10.000000, -33.000000)" id="Group-4">
                        <g>
                            <g id="Group-3" fill="#428BCA">
                                <g id="Group" transform="translate(138.500000, 551.000000) rotate(-20.000000) translate(-138.500000, -551.000000) translate(1.000000, 526.000000)">
                                    <path d="M143,14.5 C136.25,14.5 131,17.75 128.25,23 C125.5,18 120.25,14.5 113.5,14.5 C106.5,14.5 101,18 98.5,23.5 L98.5,23.5 L94,33.25 L85.25,12.75 L76.25,33.25 L68,15.5 L60,15.5 L76.5,48.25 L85.25,28.5 L94,48.25 L99,38.25 C101.75,43.25 107,46.5 113.5,46.5 C120.25,46.5 125.5,43.25 128.25,38 C131,43 136.25,46.5 143,46.5 C152.5,46.5 159.5,39.75 159.5,30.5 C159.5,21.25 152.5,14.5 143,14.5 L143,14.5 L143,14.5 Z M113.5,40 C108,40 103.75,36 103.75,30.25 C103.75,24.5 108,20.5 113.5,20.5 C119,20.5 123.25,24.5 123.25,30.25 C123.25,36 119,40 113.5,40 L113.5,40 L113.5,40 Z M143,40 C137.5,40 133.25,36 133.25,30.25 C133.25,24.5 137.5,20.5 143,20.5 C148.5,20.5 152.75,24.5 152.75,30.25 C152.75,36 148.5,40 143,40 L143,40 L143,40 Z" id="Shape"></path>
                                    <path d="M183.5,15.5 C182,14.75 180,14.5 177.75,14.5 C173.5,14.5 170.5,15.25 168.75,17.75 L168.75,15.25 L162,15.25 L162,45.5 L168.75,45.5 L168.75,31.75 C168.75,25 171.75,20.75 176,20.75 C176.75,20.75 177.75,20.75 178.75,21 C180,18.75 181.5,17 183.5,15.5 L183.5,15.5 L183.5,15.5 Z" id="Shape"></path>
                                    <path d="M204.5,18 C203,16.25 199.25,14.5 194.75,14.5 C186.25,14.5 179.5,21.25 179.5,30.5 C179.5,39.75 186.25,46.5 194.75,46.5 C199,46.5 203,44.75 204.5,43 L204.5,45.75 L211.25,45.75 L211.25,15.5 L204.5,15.5 L204.5,18 L204.5,18 L204.5,18 Z M195.5,40 C189.75,40 186.25,35.5 186.25,30.25 C186.25,25 189.75,20.5 195.5,20.5 C201,20.5 204.75,24.75 204.75,30.25 C204.75,35.75 201,40 195.5,40 L195.5,40 L195.5,40 Z" id="Shape"></path>
                                    <path d="M231.25,14.5 C228,14.5 224.25,15.5 221.75,19 L221.75,15.25 L215,15.25 L215,45.5 L221.75,45.5 L221.75,28.75 C221.75,23.5 225.5,20.75 229.75,20.75 C234.25,20.75 237,23.5 237,28.75 L237,45.5 L243.75,45.5 L243.75,26.5 C243.75,19.25 238.5,14.5 231.25,14.5 L231.25,14.5 L231.25,14.5 Z" id="Shape"></path>
                                    <path d="M262.25,30 C262,29.75 261.75,29.5 261.75,29.5 L274.5,15.25 L266,15.25 L255.75,26.75 L254,26.75 L254,0 L247.25,6.75 L247.25,45.75 L254,45.75 L254,33 L255.75,33 L266,45.75 L274.5,45.75 C274.75,45.5 266.5,35.25 262.25,30 L262.25,30 L262.25,30 Z" id="Shape"></path>
                                    <path d="M19.75,49.5 C36,49.5 49.5,30 49.5,30 C49.5,30 36,10.5 19.75,10.5 C9,10.5 0,19.5 0,30 C0,40.5 9.25,49.5 19.75,49.5 Z M17,36.5 L18.75,38.25 L20.5,36.5 L30.5,26.75 C31.5,25.75 31.5,24.25 30.5,23.25 C29.5,22.25 28,22.25 27,23.25 L18.75,31.25 L15.5,28 C14.5,27 13,27 12,28 C11,29 11,30.5 12,31.5 L17,36.5 Z" id="Combined-Shape"></path>
                                </g>
                                <g id="Group" transform="translate(138.500000, 391.000000) rotate(-20.000000) translate(-138.500000, -391.000000) translate(1.000000, 366.000000)">
                                    <path d="M143,14.5 C136.25,14.5 131,17.75 128.25,23 C125.5,18 120.25,14.5 113.5,14.5 C106.5,14.5 101,18 98.5,23.5 L98.5,23.5 L94,33.25 L85.25,12.75 L76.25,33.25 L68,15.5 L60,15.5 L76.5,48.25 L85.25,28.5 L94,48.25 L99,38.25 C101.75,43.25 107,46.5 113.5,46.5 C120.25,46.5 125.5,43.25 128.25,38 C131,43 136.25,46.5 143,46.5 C152.5,46.5 159.5,39.75 159.5,30.5 C159.5,21.25 152.5,14.5 143,14.5 L143,14.5 L143,14.5 Z M113.5,40 C108,40 103.75,36 103.75,30.25 C103.75,24.5 108,20.5 113.5,20.5 C119,20.5 123.25,24.5 123.25,30.25 C123.25,36 119,40 113.5,40 L113.5,40 L113.5,40 Z M143,40 C137.5,40 133.25,36 133.25,30.25 C133.25,24.5 137.5,20.5 143,20.5 C148.5,20.5 152.75,24.5 152.75,30.25 C152.75,36 148.5,40 143,40 L143,40 L143,40 Z" id="Shape"></path>
                                    <path d="M183.5,15.5 C182,14.75 180,14.5 177.75,14.5 C173.5,14.5 170.5,15.25 168.75,17.75 L168.75,15.25 L162,15.25 L162,45.5 L168.75,45.5 L168.75,31.75 C168.75,25 171.75,20.75 176,20.75 C176.75,20.75 177.75,20.75 178.75,21 C180,18.75 181.5,17 183.5,15.5 L183.5,15.5 L183.5,15.5 Z" id="Shape"></path>
                                    <path d="M204.5,18 C203,16.25 199.25,14.5 194.75,14.5 C186.25,14.5 179.5,21.25 179.5,30.5 C179.5,39.75 186.25,46.5 194.75,46.5 C199,46.5 203,44.75 204.5,43 L204.5,45.75 L211.25,45.75 L211.25,15.5 L204.5,15.5 L204.5,18 L204.5,18 L204.5,18 Z M195.5,40 C189.75,40 186.25,35.5 186.25,30.25 C186.25,25 189.75,20.5 195.5,20.5 C201,20.5 204.75,24.75 204.75,30.25 C204.75,35.75 201,40 195.5,40 L195.5,40 L195.5,40 Z" id="Shape"></path>
                                    <path d="M231.25,14.5 C228,14.5 224.25,15.5 221.75,19 L221.75,15.25 L215,15.25 L215,45.5 L221.75,45.5 L221.75,28.75 C221.75,23.5 225.5,20.75 229.75,20.75 C234.25,20.75 237,23.5 237,28.75 L237,45.5 L243.75,45.5 L243.75,26.5 C243.75,19.25 238.5,14.5 231.25,14.5 L231.25,14.5 L231.25,14.5 Z" id="Shape"></path>
                                    <path d="M262.25,30 C262,29.75 261.75,29.5 261.75,29.5 L274.5,15.25 L266,15.25 L255.75,26.75 L254,26.75 L254,0 L247.25,6.75 L247.25,45.75 L254,45.75 L254,33 L255.75,33 L266,45.75 L274.5,45.75 C274.75,45.5 266.5,35.25 262.25,30 L262.25,30 L262.25,30 Z" id="Shape"></path>
                                    <path d="M19.75,49.5 C36,49.5 49.5,30 49.5,30 C49.5,30 36,10.5 19.75,10.5 C9,10.5 0,19.5 0,30 C0,40.5 9.25,49.5 19.75,49.5 Z M17,36.5 L18.75,38.25 L20.5,36.5 L30.5,26.75 C31.5,25.75 31.5,24.25 30.5,23.25 C29.5,22.25 28,22.25 27,23.25 L18.75,31.25 L15.5,28 C14.5,27 13,27 12,28 C11,29 11,30.5 12,31.5 L17,36.5 Z" id="Combined-Shape"></path>
                                </g>
                                <g id="Group" transform="translate(138.500000, 231.000000) rotate(-20.000000) translate(-138.500000, -231.000000) translate(1.000000, 206.000000)">
                                    <path d="M143,14.5 C136.25,14.5 131,17.75 128.25,23 C125.5,18 120.25,14.5 113.5,14.5 C106.5,14.5 101,18 98.5,23.5 L98.5,23.5 L94,33.25 L85.25,12.75 L76.25,33.25 L68,15.5 L60,15.5 L76.5,48.25 L85.25,28.5 L94,48.25 L99,38.25 C101.75,43.25 107,46.5 113.5,46.5 C120.25,46.5 125.5,43.25 128.25,38 C131,43 136.25,46.5 143,46.5 C152.5,46.5 159.5,39.75 159.5,30.5 C159.5,21.25 152.5,14.5 143,14.5 L143,14.5 L143,14.5 Z M113.5,40 C108,40 103.75,36 103.75,30.25 C103.75,24.5 108,20.5 113.5,20.5 C119,20.5 123.25,24.5 123.25,30.25 C123.25,36 119,40 113.5,40 L113.5,40 L113.5,40 Z M143,40 C137.5,40 133.25,36 133.25,30.25 C133.25,24.5 137.5,20.5 143,20.5 C148.5,20.5 152.75,24.5 152.75,30.25 C152.75,36 148.5,40 143,40 L143,40 L143,40 Z" id="Shape"></path>
                                    <path d="M183.5,15.5 C182,14.75 180,14.5 177.75,14.5 C173.5,14.5 170.5,15.25 168.75,17.75 L168.75,15.25 L162,15.25 L162,45.5 L168.75,45.5 L168.75,31.75 C168.75,25 171.75,20.75 176,20.75 C176.75,20.75 177.75,20.75 178.75,21 C180,18.75 181.5,17 183.5,15.5 L183.5,15.5 L183.5,15.5 Z" id="Shape"></path>
                                    <path d="M204.5,18 C203,16.25 199.25,14.5 194.75,14.5 C186.25,14.5 179.5,21.25 179.5,30.5 C179.5,39.75 186.25,46.5 194.75,46.5 C199,46.5 203,44.75 204.5,43 L204.5,45.75 L211.25,45.75 L211.25,15.5 L204.5,15.5 L204.5,18 L204.5,18 L204.5,18 Z M195.5,40 C189.75,40 186.25,35.5 186.25,30.25 C186.25,25 189.75,20.5 195.5,20.5 C201,20.5 204.75,24.75 204.75,30.25 C204.75,35.75 201,40 195.5,40 L195.5,40 L195.5,40 Z" id="Shape"></path>
                                    <path d="M231.25,14.5 C228,14.5 224.25,15.5 221.75,19 L221.75,15.25 L215,15.25 L215,45.5 L221.75,45.5 L221.75,28.75 C221.75,23.5 225.5,20.75 229.75,20.75 C234.25,20.75 237,23.5 237,28.75 L237,45.5 L243.75,45.5 L243.75,26.5 C243.75,19.25 238.5,14.5 231.25,14.5 L231.25,14.5 L231.25,14.5 Z" id="Shape"></path>
                                    <path d="M262.25,30 C262,29.75 261.75,29.5 261.75,29.5 L274.5,15.25 L266,15.25 L255.75,26.75 L254,26.75 L254,0 L247.25,6.75 L247.25,45.75 L254,45.75 L254,33 L255.75,33 L266,45.75 L274.5,45.75 C274.75,45.5 266.5,35.25 262.25,30 L262.25,30 L262.25,30 Z" id="Shape"></path>
                                    <path d="M19.75,49.5 C36,49.5 49.5,30 49.5,30 C49.5,30 36,10.5 19.75,10.5 C9,10.5 0,19.5 0,30 C0,40.5 9.25,49.5 19.75,49.5 Z M17,36.5 L18.75,38.25 L20.5,36.5 L30.5,26.75 C31.5,25.75 31.5,24.25 30.5,23.25 C29.5,22.25 28,22.25 27,23.25 L18.75,31.25 L15.5,28 C14.5,27 13,27 12,28 C11,29 11,30.5 12,31.5 L17,36.5 Z" id="Combined-Shape"></path>
                                </g>
                                <g id="Group" transform="translate(138.500000, 71.000000) rotate(-20.000000) translate(-138.500000, -71.000000) translate(1.000000, 46.000000)">
                                    <path d="M143,14.5 C136.25,14.5 131,17.75 128.25,23 C125.5,18 120.25,14.5 113.5,14.5 C106.5,14.5 101,18 98.5,23.5 L98.5,23.5 L94,33.25 L85.25,12.75 L76.25,33.25 L68,15.5 L60,15.5 L76.5,48.25 L85.25,28.5 L94,48.25 L99,38.25 C101.75,43.25 107,46.5 113.5,46.5 C120.25,46.5 125.5,43.25 128.25,38 C131,43 136.25,46.5 143,46.5 C152.5,46.5 159.5,39.75 159.5,30.5 C159.5,21.25 152.5,14.5 143,14.5 L143,14.5 L143,14.5 Z M113.5,40 C108,40 103.75,36 103.75,30.25 C103.75,24.5 108,20.5 113.5,20.5 C119,20.5 123.25,24.5 123.25,30.25 C123.25,36 119,40 113.5,40 L113.5,40 L113.5,40 Z M143,40 C137.5,40 133.25,36 133.25,30.25 C133.25,24.5 137.5,20.5 143,20.5 C148.5,20.5 152.75,24.5 152.75,30.25 C152.75,36 148.5,40 143,40 L143,40 L143,40 Z" id="Shape"></path>
                                    <path d="M183.5,15.5 C182,14.75 180,14.5 177.75,14.5 C173.5,14.5 170.5,15.25 168.75,17.75 L168.75,15.25 L162,15.25 L162,45.5 L168.75,45.5 L168.75,31.75 C168.75,25 171.75,20.75 176,20.75 C176.75,20.75 177.75,20.75 178.75,21 C180,18.75 181.5,17 183.5,15.5 L183.5,15.5 L183.5,15.5 Z" id="Shape"></path>
                                    <path d="M204.5,18 C203,16.25 199.25,14.5 194.75,14.5 C186.25,14.5 179.5,21.25 179.5,30.5 C179.5,39.75 186.25,46.5 194.75,46.5 C199,46.5 203,44.75 204.5,43 L204.5,45.75 L211.25,45.75 L211.25,15.5 L204.5,15.5 L204.5,18 L204.5,18 L204.5,18 Z M195.5,40 C189.75,40 186.25,35.5 186.25,30.25 C186.25,25 189.75,20.5 195.5,20.5 C201,20.5 204.75,24.75 204.75,30.25 C204.75,35.75 201,40 195.5,40 L195.5,40 L195.5,40 Z" id="Shape"></path>
                                    <path d="M231.25,14.5 C228,14.5 224.25,15.5 221.75,19 L221.75,15.25 L215,15.25 L215,45.5 L221.75,45.5 L221.75,28.75 C221.75,23.5 225.5,20.75 229.75,20.75 C234.25,20.75 237,23.5 237,28.75 L237,45.5 L243.75,45.5 L243.75,26.5 C243.75,19.25 238.5,14.5 231.25,14.5 L231.25,14.5 L231.25,14.5 Z" id="Shape"></path>
                                    <path d="M262.25,30 C262,29.75 261.75,29.5 261.75,29.5 L274.5,15.25 L266,15.25 L255.75,26.75 L254,26.75 L254,0 L247.25,6.75 L247.25,45.75 L254,45.75 L254,33 L255.75,33 L266,45.75 L274.5,45.75 C274.75,45.5 266.5,35.25 262.25,30 L262.25,30 L262.25,30 Z" id="Shape"></path>
                                    <path d="M19.75,49.5 C36,49.5 49.5,30 49.5,30 C49.5,30 36,10.5 19.75,10.5 C9,10.5 0,19.5 0,30 C0,40.5 9.25,49.5 19.75,49.5 Z M17,36.5 L18.75,38.25 L20.5,36.5 L30.5,26.75 C31.5,25.75 31.5,24.25 30.5,23.25 C29.5,22.25 28,22.25 27,23.25 L18.75,31.25 L15.5,28 C14.5,27 13,27 12,28 C11,29 11,30.5 12,31.5 L17,36.5 Z" id="Combined-Shape"></path>
                                </g>
                                <g id="Group" transform="translate(428.500000, 551.520085) rotate(-20.000000) translate(-428.500000, -551.520085) translate(291.000000, 526.520085)">
                                    <path d="M143,14.5 C136.25,14.5 131,17.75 128.25,23 C125.5,18 120.25,14.5 113.5,14.5 C106.5,14.5 101,18 98.5,23.5 L98.5,23.5 L94,33.25 L85.25,12.75 L76.25,33.25 L68,15.5 L60,15.5 L76.5,48.25 L85.25,28.5 L94,48.25 L99,38.25 C101.75,43.25 107,46.5 113.5,46.5 C120.25,46.5 125.5,43.25 128.25,38 C131,43 136.25,46.5 143,46.5 C152.5,46.5 159.5,39.75 159.5,30.5 C159.5,21.25 152.5,14.5 143,14.5 L143,14.5 L143,14.5 Z M113.5,40 C108,40 103.75,36 103.75,30.25 C103.75,24.5 108,20.5 113.5,20.5 C119,20.5 123.25,24.5 123.25,30.25 C123.25,36 119,40 113.5,40 L113.5,40 L113.5,40 Z M143,40 C137.5,40 133.25,36 133.25,30.25 C133.25,24.5 137.5,20.5 143,20.5 C148.5,20.5 152.75,24.5 152.75,30.25 C152.75,36 148.5,40 143,40 L143,40 L143,40 Z" id="Shape"></path>
                                    <path d="M183.5,15.5 C182,14.75 180,14.5 177.75,14.5 C173.5,14.5 170.5,15.25 168.75,17.75 L168.75,15.25 L162,15.25 L162,45.5 L168.75,45.5 L168.75,31.75 C168.75,25 171.75,20.75 176,20.75 C176.75,20.75 177.75,20.75 178.75,21 C180,18.75 181.5,17 183.5,15.5 L183.5,15.5 L183.5,15.5 Z" id="Shape"></path>
                                    <path d="M204.5,18 C203,16.25 199.25,14.5 194.75,14.5 C186.25,14.5 179.5,21.25 179.5,30.5 C179.5,39.75 186.25,46.5 194.75,46.5 C199,46.5 203,44.75 204.5,43 L204.5,45.75 L211.25,45.75 L211.25,15.5 L204.5,15.5 L204.5,18 L204.5,18 L204.5,18 Z M195.5,40 C189.75,40 186.25,35.5 186.25,30.25 C186.25,25 189.75,20.5 195.5,20.5 C201,20.5 204.75,24.75 204.75,30.25 C204.75,35.75 201,40 195.5,40 L195.5,40 L195.5,40 Z" id="Shape"></path>
                                    <path d="M231.25,14.5 C228,14.5 224.25,15.5 221.75,19 L221.75,15.25 L215,15.25 L215,45.5 L221.75,45.5 L221.75,28.75 C221.75,23.5 225.5,20.75 229.75,20.75 C234.25,20.75 237,23.5 237,28.75 L237,45.5 L243.75,45.5 L243.75,26.5 C243.75,19.25 238.5,14.5 231.25,14.5 L231.25,14.5 L231.25,14.5 Z" id="Shape"></path>
                                    <path d="M262.25,30 C262,29.75 261.75,29.5 261.75,29.5 L274.5,15.25 L266,15.25 L255.75,26.75 L254,26.75 L254,0 L247.25,6.75 L247.25,45.75 L254,45.75 L254,33 L255.75,33 L266,45.75 L274.5,45.75 C274.75,45.5 266.5,35.25 262.25,30 L262.25,30 L262.25,30 Z" id="Shape"></path>
                                    <path d="M19.75,49.5 C36,49.5 49.5,30 49.5,30 C49.5,30 36,10.5 19.75,10.5 C9,10.5 0,19.5 0,30 C0,40.5 9.25,49.5 19.75,49.5 Z M17,36.5 L18.75,38.25 L20.5,36.5 L30.5,26.75 C31.5,25.75 31.5,24.25 30.5,23.25 C29.5,22.25 28,22.25 27,23.25 L18.75,31.25 L15.5,28 C14.5,27 13,27 12,28 C11,29 11,30.5 12,31.5 L17,36.5 Z" id="Combined-Shape"></path>
                                </g>
                                <g id="Group" transform="translate(428.500000, 391.520085) rotate(-20.000000) translate(-428.500000, -391.520085) translate(291.000000, 366.520085)">
                                    <path d="M143,14.5 C136.25,14.5 131,17.75 128.25,23 C125.5,18 120.25,14.5 113.5,14.5 C106.5,14.5 101,18 98.5,23.5 L98.5,23.5 L94,33.25 L85.25,12.75 L76.25,33.25 L68,15.5 L60,15.5 L76.5,48.25 L85.25,28.5 L94,48.25 L99,38.25 C101.75,43.25 107,46.5 113.5,46.5 C120.25,46.5 125.5,43.25 128.25,38 C131,43 136.25,46.5 143,46.5 C152.5,46.5 159.5,39.75 159.5,30.5 C159.5,21.25 152.5,14.5 143,14.5 L143,14.5 L143,14.5 Z M113.5,40 C108,40 103.75,36 103.75,30.25 C103.75,24.5 108,20.5 113.5,20.5 C119,20.5 123.25,24.5 123.25,30.25 C123.25,36 119,40 113.5,40 L113.5,40 L113.5,40 Z M143,40 C137.5,40 133.25,36 133.25,30.25 C133.25,24.5 137.5,20.5 143,20.5 C148.5,20.5 152.75,24.5 152.75,30.25 C152.75,36 148.5,40 143,40 L143,40 L143,40 Z" id="Shape"></path>
                                    <path d="M183.5,15.5 C182,14.75 180,14.5 177.75,14.5 C173.5,14.5 170.5,15.25 168.75,17.75 L168.75,15.25 L162,15.25 L162,45.5 L168.75,45.5 L168.75,31.75 C168.75,25 171.75,20.75 176,20.75 C176.75,20.75 177.75,20.75 178.75,21 C180,18.75 181.5,17 183.5,15.5 L183.5,15.5 L183.5,15.5 Z" id="Shape"></path>
                                    <path d="M204.5,18 C203,16.25 199.25,14.5 194.75,14.5 C186.25,14.5 179.5,21.25 179.5,30.5 C179.5,39.75 186.25,46.5 194.75,46.5 C199,46.5 203,44.75 204.5,43 L204.5,45.75 L211.25,45.75 L211.25,15.5 L204.5,15.5 L204.5,18 L204.5,18 L204.5,18 Z M195.5,40 C189.75,40 186.25,35.5 186.25,30.25 C186.25,25 189.75,20.5 195.5,20.5 C201,20.5 204.75,24.75 204.75,30.25 C204.75,35.75 201,40 195.5,40 L195.5,40 L195.5,40 Z" id="Shape"></path>
                                    <path d="M231.25,14.5 C228,14.5 224.25,15.5 221.75,19 L221.75,15.25 L215,15.25 L215,45.5 L221.75,45.5 L221.75,28.75 C221.75,23.5 225.5,20.75 229.75,20.75 C234.25,20.75 237,23.5 237,28.75 L237,45.5 L243.75,45.5 L243.75,26.5 C243.75,19.25 238.5,14.5 231.25,14.5 L231.25,14.5 L231.25,14.5 Z" id="Shape"></path>
                                    <path d="M262.25,30 C262,29.75 261.75,29.5 261.75,29.5 L274.5,15.25 L266,15.25 L255.75,26.75 L254,26.75 L254,0 L247.25,6.75 L247.25,45.75 L254,45.75 L254,33 L255.75,33 L266,45.75 L274.5,45.75 C274.75,45.5 266.5,35.25 262.25,30 L262.25,30 L262.25,30 Z" id="Shape"></path>
                                    <path d="M19.75,49.5 C36,49.5 49.5,30 49.5,30 C49.5,30 36,10.5 19.75,10.5 C9,10.5 0,19.5 0,30 C0,40.5 9.25,49.5 19.75,49.5 Z M17,36.5 L18.75,38.25 L20.5,36.5 L30.5,26.75 C31.5,25.75 31.5,24.25 30.5,23.25 C29.5,22.25 28,22.25 27,23.25 L18.75,31.25 L15.5,28 C14.5,27 13,27 12,28 C11,29 11,30.5 12,31.5 L17,36.5 Z" id="Combined-Shape"></path>
                                </g>
                                <g id="Group" transform="translate(428.500000, 231.520085) rotate(-20.000000) translate(-428.500000, -231.520085) translate(291.000000, 206.520085)">
                                    <path d="M143,14.5 C136.25,14.5 131,17.75 128.25,23 C125.5,18 120.25,14.5 113.5,14.5 C106.5,14.5 101,18 98.5,23.5 L98.5,23.5 L94,33.25 L85.25,12.75 L76.25,33.25 L68,15.5 L60,15.5 L76.5,48.25 L85.25,28.5 L94,48.25 L99,38.25 C101.75,43.25 107,46.5 113.5,46.5 C120.25,46.5 125.5,43.25 128.25,38 C131,43 136.25,46.5 143,46.5 C152.5,46.5 159.5,39.75 159.5,30.5 C159.5,21.25 152.5,14.5 143,14.5 L143,14.5 L143,14.5 Z M113.5,40 C108,40 103.75,36 103.75,30.25 C103.75,24.5 108,20.5 113.5,20.5 C119,20.5 123.25,24.5 123.25,30.25 C123.25,36 119,40 113.5,40 L113.5,40 L113.5,40 Z M143,40 C137.5,40 133.25,36 133.25,30.25 C133.25,24.5 137.5,20.5 143,20.5 C148.5,20.5 152.75,24.5 152.75,30.25 C152.75,36 148.5,40 143,40 L143,40 L143,40 Z" id="Shape"></path>
                                    <path d="M183.5,15.5 C182,14.75 180,14.5 177.75,14.5 C173.5,14.5 170.5,15.25 168.75,17.75 L168.75,15.25 L162,15.25 L162,45.5 L168.75,45.5 L168.75,31.75 C168.75,25 171.75,20.75 176,20.75 C176.75,20.75 177.75,20.75 178.75,21 C180,18.75 181.5,17 183.5,15.5 L183.5,15.5 L183.5,15.5 Z" id="Shape"></path>
                                    <path d="M204.5,18 C203,16.25 199.25,14.5 194.75,14.5 C186.25,14.5 179.5,21.25 179.5,30.5 C179.5,39.75 186.25,46.5 194.75,46.5 C199,46.5 203,44.75 204.5,43 L204.5,45.75 L211.25,45.75 L211.25,15.5 L204.5,15.5 L204.5,18 L204.5,18 L204.5,18 Z M195.5,40 C189.75,40 186.25,35.5 186.25,30.25 C186.25,25 189.75,20.5 195.5,20.5 C201,20.5 204.75,24.75 204.75,30.25 C204.75,35.75 201,40 195.5,40 L195.5,40 L195.5,40 Z" id="Shape"></path>
                                    <path d="M231.25,14.5 C228,14.5 224.25,15.5 221.75,19 L221.75,15.25 L215,15.25 L215,45.5 L221.75,45.5 L221.75,28.75 C221.75,23.5 225.5,20.75 229.75,20.75 C234.25,20.75 237,23.5 237,28.75 L237,45.5 L243.75,45.5 L243.75,26.5 C243.75,19.25 238.5,14.5 231.25,14.5 L231.25,14.5 L231.25,14.5 Z" id="Shape"></path>
                                    <path d="M262.25,30 C262,29.75 261.75,29.5 261.75,29.5 L274.5,15.25 L266,15.25 L255.75,26.75 L254,26.75 L254,0 L247.25,6.75 L247.25,45.75 L254,45.75 L254,33 L255.75,33 L266,45.75 L274.5,45.75 C274.75,45.5 266.5,35.25 262.25,30 L262.25,30 L262.25,30 Z" id="Shape"></path>
                                    <path d="M19.75,49.5 C36,49.5 49.5,30 49.5,30 C49.5,30 36,10.5 19.75,10.5 C9,10.5 0,19.5 0,30 C0,40.5 9.25,49.5 19.75,49.5 Z M17,36.5 L18.75,38.25 L20.5,36.5 L30.5,26.75 C31.5,25.75 31.5,24.25 30.5,23.25 C29.5,22.25 28,22.25 27,23.25 L18.75,31.25 L15.5,28 C14.5,27 13,27 12,28 C11,29 11,30.5 12,31.5 L17,36.5 Z" id="Combined-Shape"></path>
                                </g>
                                <g id="Group" transform="translate(428.500000, 71.520085) rotate(-20.000000) translate(-428.500000, -71.520085) translate(291.000000, 46.520085)">
                                    <path d="M143,14.5 C136.25,14.5 131,17.75 128.25,23 C125.5,18 120.25,14.5 113.5,14.5 C106.5,14.5 101,18 98.5,23.5 L98.5,23.5 L94,33.25 L85.25,12.75 L76.25,33.25 L68,15.5 L60,15.5 L76.5,48.25 L85.25,28.5 L94,48.25 L99,38.25 C101.75,43.25 107,46.5 113.5,46.5 C120.25,46.5 125.5,43.25 128.25,38 C131,43 136.25,46.5 143,46.5 C152.5,46.5 159.5,39.75 159.5,30.5 C159.5,21.25 152.5,14.5 143,14.5 L143,14.5 L143,14.5 Z M113.5,40 C108,40 103.75,36 103.75,30.25 C103.75,24.5 108,20.5 113.5,20.5 C119,20.5 123.25,24.5 123.25,30.25 C123.25,36 119,40 113.5,40 L113.5,40 L113.5,40 Z M143,40 C137.5,40 133.25,36 133.25,30.25 C133.25,24.5 137.5,20.5 143,20.5 C148.5,20.5 152.75,24.5 152.75,30.25 C152.75,36 148.5,40 143,40 L143,40 L143,40 Z" id="Shape"></path>
                                    <path d="M183.5,15.5 C182,14.75 180,14.5 177.75,14.5 C173.5,14.5 170.5,15.25 168.75,17.75 L168.75,15.25 L162,15.25 L162,45.5 L168.75,45.5 L168.75,31.75 C168.75,25 171.75,20.75 176,20.75 C176.75,20.75 177.75,20.75 178.75,21 C180,18.75 181.5,17 183.5,15.5 L183.5,15.5 L183.5,15.5 Z" id="Shape"></path>
                                    <path d="M204.5,18 C203,16.25 199.25,14.5 194.75,14.5 C186.25,14.5 179.5,21.25 179.5,30.5 C179.5,39.75 186.25,46.5 194.75,46.5 C199,46.5 203,44.75 204.5,43 L204.5,45.75 L211.25,45.75 L211.25,15.5 L204.5,15.5 L204.5,18 L204.5,18 L204.5,18 Z M195.5,40 C189.75,40 186.25,35.5 186.25,30.25 C186.25,25 189.75,20.5 195.5,20.5 C201,20.5 204.75,24.75 204.75,30.25 C204.75,35.75 201,40 195.5,40 L195.5,40 L195.5,40 Z" id="Shape"></path>
                                    <path d="M231.25,14.5 C228,14.5 224.25,15.5 221.75,19 L221.75,15.25 L215,15.25 L215,45.5 L221.75,45.5 L221.75,28.75 C221.75,23.5 225.5,20.75 229.75,20.75 C234.25,20.75 237,23.5 237,28.75 L237,45.5 L243.75,45.5 L243.75,26.5 C243.75,19.25 238.5,14.5 231.25,14.5 L231.25,14.5 L231.25,14.5 Z" id="Shape"></path>
                                    <path d="M262.25,30 C262,29.75 261.75,29.5 261.75,29.5 L274.5,15.25 L266,15.25 L255.75,26.75 L254,26.75 L254,0 L247.25,6.75 L247.25,45.75 L254,45.75 L254,33 L255.75,33 L266,45.75 L274.5,45.75 C274.75,45.5 266.5,35.25 262.25,30 L262.25,30 L262.25,30 Z" id="Shape"></path>
                                    <path d="M19.75,49.5 C36,49.5 49.5,30 49.5,30 C49.5,30 36,10.5 19.75,10.5 C9,10.5 0,19.5 0,30 C0,40.5 9.25,49.5 19.75,49.5 Z M17,36.5 L18.75,38.25 L20.5,36.5 L30.5,26.75 C31.5,25.75 31.5,24.25 30.5,23.25 C29.5,22.25 28,22.25 27,23.25 L18.75,31.25 L15.5,28 C14.5,27 13,27 12,28 C11,29 11,30.5 12,31.5 L17,36.5 Z" id="Combined-Shape"></path>
                                </g>
                            </g>
                            <g id="Group-3" transform="translate(590.000000, 0.000000)" fill="#428BCA">
                                <g id="Group" transform="translate(138.500000, 551.000000) rotate(-20.000000) translate(-138.500000, -551.000000) translate(1.000000, 526.000000)">
                                    <path d="M143,14.5 C136.25,14.5 131,17.75 128.25,23 C125.5,18 120.25,14.5 113.5,14.5 C106.5,14.5 101,18 98.5,23.5 L98.5,23.5 L94,33.25 L85.25,12.75 L76.25,33.25 L68,15.5 L60,15.5 L76.5,48.25 L85.25,28.5 L94,48.25 L99,38.25 C101.75,43.25 107,46.5 113.5,46.5 C120.25,46.5 125.5,43.25 128.25,38 C131,43 136.25,46.5 143,46.5 C152.5,46.5 159.5,39.75 159.5,30.5 C159.5,21.25 152.5,14.5 143,14.5 L143,14.5 L143,14.5 Z M113.5,40 C108,40 103.75,36 103.75,30.25 C103.75,24.5 108,20.5 113.5,20.5 C119,20.5 123.25,24.5 123.25,30.25 C123.25,36 119,40 113.5,40 L113.5,40 L113.5,40 Z M143,40 C137.5,40 133.25,36 133.25,30.25 C133.25,24.5 137.5,20.5 143,20.5 C148.5,20.5 152.75,24.5 152.75,30.25 C152.75,36 148.5,40 143,40 L143,40 L143,40 Z" id="Shape"></path>
                                    <path d="M183.5,15.5 C182,14.75 180,14.5 177.75,14.5 C173.5,14.5 170.5,15.25 168.75,17.75 L168.75,15.25 L162,15.25 L162,45.5 L168.75,45.5 L168.75,31.75 C168.75,25 171.75,20.75 176,20.75 C176.75,20.75 177.75,20.75 178.75,21 C180,18.75 181.5,17 183.5,15.5 L183.5,15.5 L183.5,15.5 Z" id="Shape"></path>
                                    <path d="M204.5,18 C203,16.25 199.25,14.5 194.75,14.5 C186.25,14.5 179.5,21.25 179.5,30.5 C179.5,39.75 186.25,46.5 194.75,46.5 C199,46.5 203,44.75 204.5,43 L204.5,45.75 L211.25,45.75 L211.25,15.5 L204.5,15.5 L204.5,18 L204.5,18 L204.5,18 Z M195.5,40 C189.75,40 186.25,35.5 186.25,30.25 C186.25,25 189.75,20.5 195.5,20.5 C201,20.5 204.75,24.75 204.75,30.25 C204.75,35.75 201,40 195.5,40 L195.5,40 L195.5,40 Z" id="Shape"></path>
                                    <path d="M231.25,14.5 C228,14.5 224.25,15.5 221.75,19 L221.75,15.25 L215,15.25 L215,45.5 L221.75,45.5 L221.75,28.75 C221.75,23.5 225.5,20.75 229.75,20.75 C234.25,20.75 237,23.5 237,28.75 L237,45.5 L243.75,45.5 L243.75,26.5 C243.75,19.25 238.5,14.5 231.25,14.5 L231.25,14.5 L231.25,14.5 Z" id="Shape"></path>
                                    <path d="M262.25,30 C262,29.75 261.75,29.5 261.75,29.5 L274.5,15.25 L266,15.25 L255.75,26.75 L254,26.75 L254,0 L247.25,6.75 L247.25,45.75 L254,45.75 L254,33 L255.75,33 L266,45.75 L274.5,45.75 C274.75,45.5 266.5,35.25 262.25,30 L262.25,30 L262.25,30 Z" id="Shape"></path>
                                    <path d="M19.75,49.5 C36,49.5 49.5,30 49.5,30 C49.5,30 36,10.5 19.75,10.5 C9,10.5 0,19.5 0,30 C0,40.5 9.25,49.5 19.75,49.5 Z M17,36.5 L18.75,38.25 L20.5,36.5 L30.5,26.75 C31.5,25.75 31.5,24.25 30.5,23.25 C29.5,22.25 28,22.25 27,23.25 L18.75,31.25 L15.5,28 C14.5,27 13,27 12,28 C11,29 11,30.5 12,31.5 L17,36.5 Z" id="Combined-Shape"></path>
                                </g>
                                <g id="Group" transform="translate(138.500000, 391.000000) rotate(-20.000000) translate(-138.500000, -391.000000) translate(1.000000, 366.000000)">
                                    <path d="M143,14.5 C136.25,14.5 131,17.75 128.25,23 C125.5,18 120.25,14.5 113.5,14.5 C106.5,14.5 101,18 98.5,23.5 L98.5,23.5 L94,33.25 L85.25,12.75 L76.25,33.25 L68,15.5 L60,15.5 L76.5,48.25 L85.25,28.5 L94,48.25 L99,38.25 C101.75,43.25 107,46.5 113.5,46.5 C120.25,46.5 125.5,43.25 128.25,38 C131,43 136.25,46.5 143,46.5 C152.5,46.5 159.5,39.75 159.5,30.5 C159.5,21.25 152.5,14.5 143,14.5 L143,14.5 L143,14.5 Z M113.5,40 C108,40 103.75,36 103.75,30.25 C103.75,24.5 108,20.5 113.5,20.5 C119,20.5 123.25,24.5 123.25,30.25 C123.25,36 119,40 113.5,40 L113.5,40 L113.5,40 Z M143,40 C137.5,40 133.25,36 133.25,30.25 C133.25,24.5 137.5,20.5 143,20.5 C148.5,20.5 152.75,24.5 152.75,30.25 C152.75,36 148.5,40 143,40 L143,40 L143,40 Z" id="Shape"></path>
                                    <path d="M183.5,15.5 C182,14.75 180,14.5 177.75,14.5 C173.5,14.5 170.5,15.25 168.75,17.75 L168.75,15.25 L162,15.25 L162,45.5 L168.75,45.5 L168.75,31.75 C168.75,25 171.75,20.75 176,20.75 C176.75,20.75 177.75,20.75 178.75,21 C180,18.75 181.5,17 183.5,15.5 L183.5,15.5 L183.5,15.5 Z" id="Shape"></path>
                                    <path d="M204.5,18 C203,16.25 199.25,14.5 194.75,14.5 C186.25,14.5 179.5,21.25 179.5,30.5 C179.5,39.75 186.25,46.5 194.75,46.5 C199,46.5 203,44.75 204.5,43 L204.5,45.75 L211.25,45.75 L211.25,15.5 L204.5,15.5 L204.5,18 L204.5,18 L204.5,18 Z M195.5,40 C189.75,40 186.25,35.5 186.25,30.25 C186.25,25 189.75,20.5 195.5,20.5 C201,20.5 204.75,24.75 204.75,30.25 C204.75,35.75 201,40 195.5,40 L195.5,40 L195.5,40 Z" id="Shape"></path>
                                    <path d="M231.25,14.5 C228,14.5 224.25,15.5 221.75,19 L221.75,15.25 L215,15.25 L215,45.5 L221.75,45.5 L221.75,28.75 C221.75,23.5 225.5,20.75 229.75,20.75 C234.25,20.75 237,23.5 237,28.75 L237,45.5 L243.75,45.5 L243.75,26.5 C243.75,19.25 238.5,14.5 231.25,14.5 L231.25,14.5 L231.25,14.5 Z" id="Shape"></path>
                                    <path d="M262.25,30 C262,29.75 261.75,29.5 261.75,29.5 L274.5,15.25 L266,15.25 L255.75,26.75 L254,26.75 L254,0 L247.25,6.75 L247.25,45.75 L254,45.75 L254,33 L255.75,33 L266,45.75 L274.5,45.75 C274.75,45.5 266.5,35.25 262.25,30 L262.25,30 L262.25,30 Z" id="Shape"></path>
                                    <path d="M19.75,49.5 C36,49.5 49.5,30 49.5,30 C49.5,30 36,10.5 19.75,10.5 C9,10.5 0,19.5 0,30 C0,40.5 9.25,49.5 19.75,49.5 Z M17,36.5 L18.75,38.25 L20.5,36.5 L30.5,26.75 C31.5,25.75 31.5,24.25 30.5,23.25 C29.5,22.25 28,22.25 27,23.25 L18.75,31.25 L15.5,28 C14.5,27 13,27 12,28 C11,29 11,30.5 12,31.5 L17,36.5 Z" id="Combined-Shape"></path>
                                </g>
                                <g id="Group" transform="translate(138.500000, 231.000000) rotate(-20.000000) translate(-138.500000, -231.000000) translate(1.000000, 206.000000)">
                                    <path d="M143,14.5 C136.25,14.5 131,17.75 128.25,23 C125.5,18 120.25,14.5 113.5,14.5 C106.5,14.5 101,18 98.5,23.5 L98.5,23.5 L94,33.25 L85.25,12.75 L76.25,33.25 L68,15.5 L60,15.5 L76.5,48.25 L85.25,28.5 L94,48.25 L99,38.25 C101.75,43.25 107,46.5 113.5,46.5 C120.25,46.5 125.5,43.25 128.25,38 C131,43 136.25,46.5 143,46.5 C152.5,46.5 159.5,39.75 159.5,30.5 C159.5,21.25 152.5,14.5 143,14.5 L143,14.5 L143,14.5 Z M113.5,40 C108,40 103.75,36 103.75,30.25 C103.75,24.5 108,20.5 113.5,20.5 C119,20.5 123.25,24.5 123.25,30.25 C123.25,36 119,40 113.5,40 L113.5,40 L113.5,40 Z M143,40 C137.5,40 133.25,36 133.25,30.25 C133.25,24.5 137.5,20.5 143,20.5 C148.5,20.5 152.75,24.5 152.75,30.25 C152.75,36 148.5,40 143,40 L143,40 L143,40 Z" id="Shape"></path>
                                    <path d="M183.5,15.5 C182,14.75 180,14.5 177.75,14.5 C173.5,14.5 170.5,15.25 168.75,17.75 L168.75,15.25 L162,15.25 L162,45.5 L168.75,45.5 L168.75,31.75 C168.75,25 171.75,20.75 176,20.75 C176.75,20.75 177.75,20.75 178.75,21 C180,18.75 181.5,17 183.5,15.5 L183.5,15.5 L183.5,15.5 Z" id="Shape"></path>
                                    <path d="M204.5,18 C203,16.25 199.25,14.5 194.75,14.5 C186.25,14.5 179.5,21.25 179.5,30.5 C179.5,39.75 186.25,46.5 194.75,46.5 C199,46.5 203,44.75 204.5,43 L204.5,45.75 L211.25,45.75 L211.25,15.5 L204.5,15.5 L204.5,18 L204.5,18 L204.5,18 Z M195.5,40 C189.75,40 186.25,35.5 186.25,30.25 C186.25,25 189.75,20.5 195.5,20.5 C201,20.5 204.75,24.75 204.75,30.25 C204.75,35.75 201,40 195.5,40 L195.5,40 L195.5,40 Z" id="Shape"></path>
                                    <path d="M231.25,14.5 C228,14.5 224.25,15.5 221.75,19 L221.75,15.25 L215,15.25 L215,45.5 L221.75,45.5 L221.75,28.75 C221.75,23.5 225.5,20.75 229.75,20.75 C234.25,20.75 237,23.5 237,28.75 L237,45.5 L243.75,45.5 L243.75,26.5 C243.75,19.25 238.5,14.5 231.25,14.5 L231.25,14.5 L231.25,14.5 Z" id="Shape"></path>
                                    <path d="M262.25,30 C262,29.75 261.75,29.5 261.75,29.5 L274.5,15.25 L266,15.25 L255.75,26.75 L254,26.75 L254,0 L247.25,6.75 L247.25,45.75 L254,45.75 L254,33 L255.75,33 L266,45.75 L274.5,45.75 C274.75,45.5 266.5,35.25 262.25,30 L262.25,30 L262.25,30 Z" id="Shape"></path>
                                    <path d="M19.75,49.5 C36,49.5 49.5,30 49.5,30 C49.5,30 36,10.5 19.75,10.5 C9,10.5 0,19.5 0,30 C0,40.5 9.25,49.5 19.75,49.5 Z M17,36.5 L18.75,38.25 L20.5,36.5 L30.5,26.75 C31.5,25.75 31.5,24.25 30.5,23.25 C29.5,22.25 28,22.25 27,23.25 L18.75,31.25 L15.5,28 C14.5,27 13,27 12,28 C11,29 11,30.5 12,31.5 L17,36.5 Z" id="Combined-Shape"></path>
                                </g>
                                <g id="Group" transform="translate(138.500000, 71.000000) rotate(-20.000000) translate(-138.500000, -71.000000) translate(1.000000, 46.000000)">
                                    <path d="M143,14.5 C136.25,14.5 131,17.75 128.25,23 C125.5,18 120.25,14.5 113.5,14.5 C106.5,14.5 101,18 98.5,23.5 L98.5,23.5 L94,33.25 L85.25,12.75 L76.25,33.25 L68,15.5 L60,15.5 L76.5,48.25 L85.25,28.5 L94,48.25 L99,38.25 C101.75,43.25 107,46.5 113.5,46.5 C120.25,46.5 125.5,43.25 128.25,38 C131,43 136.25,46.5 143,46.5 C152.5,46.5 159.5,39.75 159.5,30.5 C159.5,21.25 152.5,14.5 143,14.5 L143,14.5 L143,14.5 Z M113.5,40 C108,40 103.75,36 103.75,30.25 C103.75,24.5 108,20.5 113.5,20.5 C119,20.5 123.25,24.5 123.25,30.25 C123.25,36 119,40 113.5,40 L113.5,40 L113.5,40 Z M143,40 C137.5,40 133.25,36 133.25,30.25 C133.25,24.5 137.5,20.5 143,20.5 C148.5,20.5 152.75,24.5 152.75,30.25 C152.75,36 148.5,40 143,40 L143,40 L143,40 Z" id="Shape"></path>
                                    <path d="M183.5,15.5 C182,14.75 180,14.5 177.75,14.5 C173.5,14.5 170.5,15.25 168.75,17.75 L168.75,15.25 L162,15.25 L162,45.5 L168.75,45.5 L168.75,31.75 C168.75,25 171.75,20.75 176,20.75 C176.75,20.75 177.75,20.75 178.75,21 C180,18.75 181.5,17 183.5,15.5 L183.5,15.5 L183.5,15.5 Z" id="Shape"></path>
                                    <path d="M204.5,18 C203,16.25 199.25,14.5 194.75,14.5 C186.25,14.5 179.5,21.25 179.5,30.5 C179.5,39.75 186.25,46.5 194.75,46.5 C199,46.5 203,44.75 204.5,43 L204.5,45.75 L211.25,45.75 L211.25,15.5 L204.5,15.5 L204.5,18 L204.5,18 L204.5,18 Z M195.5,40 C189.75,40 186.25,35.5 186.25,30.25 C186.25,25 189.75,20.5 195.5,20.5 C201,20.5 204.75,24.75 204.75,30.25 C204.75,35.75 201,40 195.5,40 L195.5,40 L195.5,40 Z" id="Shape"></path>
                                    <path d="M231.25,14.5 C228,14.5 224.25,15.5 221.75,19 L221.75,15.25 L215,15.25 L215,45.5 L221.75,45.5 L221.75,28.75 C221.75,23.5 225.5,20.75 229.75,20.75 C234.25,20.75 237,23.5 237,28.75 L237,45.5 L243.75,45.5 L243.75,26.5 C243.75,19.25 238.5,14.5 231.25,14.5 L231.25,14.5 L231.25,14.5 Z" id="Shape"></path>
                                    <path d="M262.25,30 C262,29.75 261.75,29.5 261.75,29.5 L274.5,15.25 L266,15.25 L255.75,26.75 L254,26.75 L254,0 L247.25,6.75 L247.25,45.75 L254,45.75 L254,33 L255.75,33 L266,45.75 L274.5,45.75 C274.75,45.5 266.5,35.25 262.25,30 L262.25,30 L262.25,30 Z" id="Shape"></path>
                                    <path d="M19.75,49.5 C36,49.5 49.5,30 49.5,30 C49.5,30 36,10.5 19.75,10.5 C9,10.5 0,19.5 0,30 C0,40.5 9.25,49.5 19.75,49.5 Z M17,36.5 L18.75,38.25 L20.5,36.5 L30.5,26.75 C31.5,25.75 31.5,24.25 30.5,23.25 C29.5,22.25 28,22.25 27,23.25 L18.75,31.25 L15.5,28 C14.5,27 13,27 12,28 C11,29 11,30.5 12,31.5 L17,36.5 Z" id="Combined-Shape"></path>
                                </g>
                                <g id="Group" transform="translate(428.500000, 551.520085) rotate(-20.000000) translate(-428.500000, -551.520085) translate(291.000000, 526.520085)">
                                    <path d="M143,14.5 C136.25,14.5 131,17.75 128.25,23 C125.5,18 120.25,14.5 113.5,14.5 C106.5,14.5 101,18 98.5,23.5 L98.5,23.5 L94,33.25 L85.25,12.75 L76.25,33.25 L68,15.5 L60,15.5 L76.5,48.25 L85.25,28.5 L94,48.25 L99,38.25 C101.75,43.25 107,46.5 113.5,46.5 C120.25,46.5 125.5,43.25 128.25,38 C131,43 136.25,46.5 143,46.5 C152.5,46.5 159.5,39.75 159.5,30.5 C159.5,21.25 152.5,14.5 143,14.5 L143,14.5 L143,14.5 Z M113.5,40 C108,40 103.75,36 103.75,30.25 C103.75,24.5 108,20.5 113.5,20.5 C119,20.5 123.25,24.5 123.25,30.25 C123.25,36 119,40 113.5,40 L113.5,40 L113.5,40 Z M143,40 C137.5,40 133.25,36 133.25,30.25 C133.25,24.5 137.5,20.5 143,20.5 C148.5,20.5 152.75,24.5 152.75,30.25 C152.75,36 148.5,40 143,40 L143,40 L143,40 Z" id="Shape"></path>
                                    <path d="M183.5,15.5 C182,14.75 180,14.5 177.75,14.5 C173.5,14.5 170.5,15.25 168.75,17.75 L168.75,15.25 L162,15.25 L162,45.5 L168.75,45.5 L168.75,31.75 C168.75,25 171.75,20.75 176,20.75 C176.75,20.75 177.75,20.75 178.75,21 C180,18.75 181.5,17 183.5,15.5 L183.5,15.5 L183.5,15.5 Z" id="Shape"></path>
                                    <path d="M204.5,18 C203,16.25 199.25,14.5 194.75,14.5 C186.25,14.5 179.5,21.25 179.5,30.5 C179.5,39.75 186.25,46.5 194.75,46.5 C199,46.5 203,44.75 204.5,43 L204.5,45.75 L211.25,45.75 L211.25,15.5 L204.5,15.5 L204.5,18 L204.5,18 L204.5,18 Z M195.5,40 C189.75,40 186.25,35.5 186.25,30.25 C186.25,25 189.75,20.5 195.5,20.5 C201,20.5 204.75,24.75 204.75,30.25 C204.75,35.75 201,40 195.5,40 L195.5,40 L195.5,40 Z" id="Shape"></path>
                                    <path d="M231.25,14.5 C228,14.5 224.25,15.5 221.75,19 L221.75,15.25 L215,15.25 L215,45.5 L221.75,45.5 L221.75,28.75 C221.75,23.5 225.5,20.75 229.75,20.75 C234.25,20.75 237,23.5 237,28.75 L237,45.5 L243.75,45.5 L243.75,26.5 C243.75,19.25 238.5,14.5 231.25,14.5 L231.25,14.5 L231.25,14.5 Z" id="Shape"></path>
                                    <path d="M262.25,30 C262,29.75 261.75,29.5 261.75,29.5 L274.5,15.25 L266,15.25 L255.75,26.75 L254,26.75 L254,0 L247.25,6.75 L247.25,45.75 L254,45.75 L254,33 L255.75,33 L266,45.75 L274.5,45.75 C274.75,45.5 266.5,35.25 262.25,30 L262.25,30 L262.25,30 Z" id="Shape"></path>
                                    <path d="M19.75,49.5 C36,49.5 49.5,30 49.5,30 C49.5,30 36,10.5 19.75,10.5 C9,10.5 0,19.5 0,30 C0,40.5 9.25,49.5 19.75,49.5 Z M17,36.5 L18.75,38.25 L20.5,36.5 L30.5,26.75 C31.5,25.75 31.5,24.25 30.5,23.25 C29.5,22.25 28,22.25 27,23.25 L18.75,31.25 L15.5,28 C14.5,27 13,27 12,28 C11,29 11,30.5 12,31.5 L17,36.5 Z" id="Combined-Shape"></path>
                                </g>
                                <g id="Group" transform="translate(428.500000, 391.520085) rotate(-20.000000) translate(-428.500000, -391.520085) translate(291.000000, 366.520085)">
                                    <path d="M143,14.5 C136.25,14.5 131,17.75 128.25,23 C125.5,18 120.25,14.5 113.5,14.5 C106.5,14.5 101,18 98.5,23.5 L98.5,23.5 L94,33.25 L85.25,12.75 L76.25,33.25 L68,15.5 L60,15.5 L76.5,48.25 L85.25,28.5 L94,48.25 L99,38.25 C101.75,43.25 107,46.5 113.5,46.5 C120.25,46.5 125.5,43.25 128.25,38 C131,43 136.25,46.5 143,46.5 C152.5,46.5 159.5,39.75 159.5,30.5 C159.5,21.25 152.5,14.5 143,14.5 L143,14.5 L143,14.5 Z M113.5,40 C108,40 103.75,36 103.75,30.25 C103.75,24.5 108,20.5 113.5,20.5 C119,20.5 123.25,24.5 123.25,30.25 C123.25,36 119,40 113.5,40 L113.5,40 L113.5,40 Z M143,40 C137.5,40 133.25,36 133.25,30.25 C133.25,24.5 137.5,20.5 143,20.5 C148.5,20.5 152.75,24.5 152.75,30.25 C152.75,36 148.5,40 143,40 L143,40 L143,40 Z" id="Shape"></path>
                                    <path d="M183.5,15.5 C182,14.75 180,14.5 177.75,14.5 C173.5,14.5 170.5,15.25 168.75,17.75 L168.75,15.25 L162,15.25 L162,45.5 L168.75,45.5 L168.75,31.75 C168.75,25 171.75,20.75 176,20.75 C176.75,20.75 177.75,20.75 178.75,21 C180,18.75 181.5,17 183.5,15.5 L183.5,15.5 L183.5,15.5 Z" id="Shape"></path>
                                    <path d="M204.5,18 C203,16.25 199.25,14.5 194.75,14.5 C186.25,14.5 179.5,21.25 179.5,30.5 C179.5,39.75 186.25,46.5 194.75,46.5 C199,46.5 203,44.75 204.5,43 L204.5,45.75 L211.25,45.75 L211.25,15.5 L204.5,15.5 L204.5,18 L204.5,18 L204.5,18 Z M195.5,40 C189.75,40 186.25,35.5 186.25,30.25 C186.25,25 189.75,20.5 195.5,20.5 C201,20.5 204.75,24.75 204.75,30.25 C204.75,35.75 201,40 195.5,40 L195.5,40 L195.5,40 Z" id="Shape"></path>
                                    <path d="M231.25,14.5 C228,14.5 224.25,15.5 221.75,19 L221.75,15.25 L215,15.25 L215,45.5 L221.75,45.5 L221.75,28.75 C221.75,23.5 225.5,20.75 229.75,20.75 C234.25,20.75 237,23.5 237,28.75 L237,45.5 L243.75,45.5 L243.75,26.5 C243.75,19.25 238.5,14.5 231.25,14.5 L231.25,14.5 L231.25,14.5 Z" id="Shape"></path>
                                    <path d="M262.25,30 C262,29.75 261.75,29.5 261.75,29.5 L274.5,15.25 L266,15.25 L255.75,26.75 L254,26.75 L254,0 L247.25,6.75 L247.25,45.75 L254,45.75 L254,33 L255.75,33 L266,45.75 L274.5,45.75 C274.75,45.5 266.5,35.25 262.25,30 L262.25,30 L262.25,30 Z" id="Shape"></path>
                                    <path d="M19.75,49.5 C36,49.5 49.5,30 49.5,30 C49.5,30 36,10.5 19.75,10.5 C9,10.5 0,19.5 0,30 C0,40.5 9.25,49.5 19.75,49.5 Z M17,36.5 L18.75,38.25 L20.5,36.5 L30.5,26.75 C31.5,25.75 31.5,24.25 30.5,23.25 C29.5,22.25 28,22.25 27,23.25 L18.75,31.25 L15.5,28 C14.5,27 13,27 12,28 C11,29 11,30.5 12,31.5 L17,36.5 Z" id="Combined-Shape"></path>
                                </g>
                                <g id="Group" transform="translate(428.500000, 231.520085) rotate(-20.000000) translate(-428.500000, -231.520085) translate(291.000000, 206.520085)">
                                    <path d="M143,14.5 C136.25,14.5 131,17.75 128.25,23 C125.5,18 120.25,14.5 113.5,14.5 C106.5,14.5 101,18 98.5,23.5 L98.5,23.5 L94,33.25 L85.25,12.75 L76.25,33.25 L68,15.5 L60,15.5 L76.5,48.25 L85.25,28.5 L94,48.25 L99,38.25 C101.75,43.25 107,46.5 113.5,46.5 C120.25,46.5 125.5,43.25 128.25,38 C131,43 136.25,46.5 143,46.5 C152.5,46.5 159.5,39.75 159.5,30.5 C159.5,21.25 152.5,14.5 143,14.5 L143,14.5 L143,14.5 Z M113.5,40 C108,40 103.75,36 103.75,30.25 C103.75,24.5 108,20.5 113.5,20.5 C119,20.5 123.25,24.5 123.25,30.25 C123.25,36 119,40 113.5,40 L113.5,40 L113.5,40 Z M143,40 C137.5,40 133.25,36 133.25,30.25 C133.25,24.5 137.5,20.5 143,20.5 C148.5,20.5 152.75,24.5 152.75,30.25 C152.75,36 148.5,40 143,40 L143,40 L143,40 Z" id="Shape"></path>
                                    <path d="M183.5,15.5 C182,14.75 180,14.5 177.75,14.5 C173.5,14.5 170.5,15.25 168.75,17.75 L168.75,15.25 L162,15.25 L162,45.5 L168.75,45.5 L168.75,31.75 C168.75,25 171.75,20.75 176,20.75 C176.75,20.75 177.75,20.75 178.75,21 C180,18.75 181.5,17 183.5,15.5 L183.5,15.5 L183.5,15.5 Z" id="Shape"></path>
                                    <path d="M204.5,18 C203,16.25 199.25,14.5 194.75,14.5 C186.25,14.5 179.5,21.25 179.5,30.5 C179.5,39.75 186.25,46.5 194.75,46.5 C199,46.5 203,44.75 204.5,43 L204.5,45.75 L211.25,45.75 L211.25,15.5 L204.5,15.5 L204.5,18 L204.5,18 L204.5,18 Z M195.5,40 C189.75,40 186.25,35.5 186.25,30.25 C186.25,25 189.75,20.5 195.5,20.5 C201,20.5 204.75,24.75 204.75,30.25 C204.75,35.75 201,40 195.5,40 L195.5,40 L195.5,40 Z" id="Shape"></path>
                                    <path d="M231.25,14.5 C228,14.5 224.25,15.5 221.75,19 L221.75,15.25 L215,15.25 L215,45.5 L221.75,45.5 L221.75,28.75 C221.75,23.5 225.5,20.75 229.75,20.75 C234.25,20.75 237,23.5 237,28.75 L237,45.5 L243.75,45.5 L243.75,26.5 C243.75,19.25 238.5,14.5 231.25,14.5 L231.25,14.5 L231.25,14.5 Z" id="Shape"></path>
                                    <path d="M262.25,30 C262,29.75 261.75,29.5 261.75,29.5 L274.5,15.25 L266,15.25 L255.75,26.75 L254,26.75 L254,0 L247.25,6.75 L247.25,45.75 L254,45.75 L254,33 L255.75,33 L266,45.75 L274.5,45.75 C274.75,45.5 266.5,35.25 262.25,30 L262.25,30 L262.25,30 Z" id="Shape"></path>
                                    <path d="M19.75,49.5 C36,49.5 49.5,30 49.5,30 C49.5,30 36,10.5 19.75,10.5 C9,10.5 0,19.5 0,30 C0,40.5 9.25,49.5 19.75,49.5 Z M17,36.5 L18.75,38.25 L20.5,36.5 L30.5,26.75 C31.5,25.75 31.5,24.25 30.5,23.25 C29.5,22.25 28,22.25 27,23.25 L18.75,31.25 L15.5,28 C14.5,27 13,27 12,28 C11,29 11,30.5 12,31.5 L17,36.5 Z" id="Combined-Shape"></path>
                                </g>
                                <g id="Group" transform="translate(428.500000, 71.520085) rotate(-20.000000) translate(-428.500000, -71.520085) translate(291.000000, 46.520085)">
                                    <path d="M143,14.5 C136.25,14.5 131,17.75 128.25,23 C125.5,18 120.25,14.5 113.5,14.5 C106.5,14.5 101,18 98.5,23.5 L98.5,23.5 L94,33.25 L85.25,12.75 L76.25,33.25 L68,15.5 L60,15.5 L76.5,48.25 L85.25,28.5 L94,48.25 L99,38.25 C101.75,43.25 107,46.5 113.5,46.5 C120.25,46.5 125.5,43.25 128.25,38 C131,43 136.25,46.5 143,46.5 C152.5,46.5 159.5,39.75 159.5,30.5 C159.5,21.25 152.5,14.5 143,14.5 L143,14.5 L143,14.5 Z M113.5,40 C108,40 103.75,36 103.75,30.25 C103.75,24.5 108,20.5 113.5,20.5 C119,20.5 123.25,24.5 123.25,30.25 C123.25,36 119,40 113.5,40 L113.5,40 L113.5,40 Z M143,40 C137.5,40 133.25,36 133.25,30.25 C133.25,24.5 137.5,20.5 143,20.5 C148.5,20.5 152.75,24.5 152.75,30.25 C152.75,36 148.5,40 143,40 L143,40 L143,40 Z" id="Shape"></path>
                                    <path d="M183.5,15.5 C182,14.75 180,14.5 177.75,14.5 C173.5,14.5 170.5,15.25 168.75,17.75 L168.75,15.25 L162,15.25 L162,45.5 L168.75,45.5 L168.75,31.75 C168.75,25 171.75,20.75 176,20.75 C176.75,20.75 177.75,20.75 178.75,21 C180,18.75 181.5,17 183.5,15.5 L183.5,15.5 L183.5,15.5 Z" id="Shape"></path>
                                    <path d="M204.5,18 C203,16.25 199.25,14.5 194.75,14.5 C186.25,14.5 179.5,21.25 179.5,30.5 C179.5,39.75 186.25,46.5 194.75,46.5 C199,46.5 203,44.75 204.5,43 L204.5,45.75 L211.25,45.75 L211.25,15.5 L204.5,15.5 L204.5,18 L204.5,18 L204.5,18 Z M195.5,40 C189.75,40 186.25,35.5 186.25,30.25 C186.25,25 189.75,20.5 195.5,20.5 C201,20.5 204.75,24.75 204.75,30.25 C204.75,35.75 201,40 195.5,40 L195.5,40 L195.5,40 Z" id="Shape"></path>
                                    <path d="M231.25,14.5 C228,14.5 224.25,15.5 221.75,19 L221.75,15.25 L215,15.25 L215,45.5 L221.75,45.5 L221.75,28.75 C221.75,23.5 225.5,20.75 229.75,20.75 C234.25,20.75 237,23.5 237,28.75 L237,45.5 L243.75,45.5 L243.75,26.5 C243.75,19.25 238.5,14.5 231.25,14.5 L231.25,14.5 L231.25,14.5 Z" id="Shape"></path>
                                    <path d="M262.25,30 C262,29.75 261.75,29.5 261.75,29.5 L274.5,15.25 L266,15.25 L255.75,26.75 L254,26.75 L254,0 L247.25,6.75 L247.25,45.75 L254,45.75 L254,33 L255.75,33 L266,45.75 L274.5,45.75 C274.75,45.5 266.5,35.25 262.25,30 L262.25,30 L262.25,30 Z" id="Shape"></path>
                                    <path d="M19.75,49.5 C36,49.5 49.5,30 49.5,30 C49.5,30 36,10.5 19.75,10.5 C9,10.5 0,19.5 0,30 C0,40.5 9.25,49.5 19.75,49.5 Z M17,36.5 L18.75,38.25 L20.5,36.5 L30.5,26.75 C31.5,25.75 31.5,24.25 30.5,23.25 C29.5,22.25 28,22.25 27,23.25 L18.75,31.25 L15.5,28 C14.5,27 13,27 12,28 C11,29 11,30.5 12,31.5 L17,36.5 Z" id="Combined-Shape"></path>
                                </g>
                            </g>
                        </g>
                        <g transform="translate(1180.000000, 1.000000)">
                            <g id="Group-3" fill="#428BCA">
                                <g id="Group" transform="translate(138.500000, 551.000000) rotate(-20.000000) translate(-138.500000, -551.000000) translate(1.000000, 526.000000)">
                                    <path d="M143,14.5 C136.25,14.5 131,17.75 128.25,23 C125.5,18 120.25,14.5 113.5,14.5 C106.5,14.5 101,18 98.5,23.5 L98.5,23.5 L94,33.25 L85.25,12.75 L76.25,33.25 L68,15.5 L60,15.5 L76.5,48.25 L85.25,28.5 L94,48.25 L99,38.25 C101.75,43.25 107,46.5 113.5,46.5 C120.25,46.5 125.5,43.25 128.25,38 C131,43 136.25,46.5 143,46.5 C152.5,46.5 159.5,39.75 159.5,30.5 C159.5,21.25 152.5,14.5 143,14.5 L143,14.5 L143,14.5 Z M113.5,40 C108,40 103.75,36 103.75,30.25 C103.75,24.5 108,20.5 113.5,20.5 C119,20.5 123.25,24.5 123.25,30.25 C123.25,36 119,40 113.5,40 L113.5,40 L113.5,40 Z M143,40 C137.5,40 133.25,36 133.25,30.25 C133.25,24.5 137.5,20.5 143,20.5 C148.5,20.5 152.75,24.5 152.75,30.25 C152.75,36 148.5,40 143,40 L143,40 L143,40 Z" id="Shape"></path>
                                    <path d="M183.5,15.5 C182,14.75 180,14.5 177.75,14.5 C173.5,14.5 170.5,15.25 168.75,17.75 L168.75,15.25 L162,15.25 L162,45.5 L168.75,45.5 L168.75,31.75 C168.75,25 171.75,20.75 176,20.75 C176.75,20.75 177.75,20.75 178.75,21 C180,18.75 181.5,17 183.5,15.5 L183.5,15.5 L183.5,15.5 Z" id="Shape"></path>
                                    <path d="M204.5,18 C203,16.25 199.25,14.5 194.75,14.5 C186.25,14.5 179.5,21.25 179.5,30.5 C179.5,39.75 186.25,46.5 194.75,46.5 C199,46.5 203,44.75 204.5,43 L204.5,45.75 L211.25,45.75 L211.25,15.5 L204.5,15.5 L204.5,18 L204.5,18 L204.5,18 Z M195.5,40 C189.75,40 186.25,35.5 186.25,30.25 C186.25,25 189.75,20.5 195.5,20.5 C201,20.5 204.75,24.75 204.75,30.25 C204.75,35.75 201,40 195.5,40 L195.5,40 L195.5,40 Z" id="Shape"></path>
                                    <path d="M231.25,14.5 C228,14.5 224.25,15.5 221.75,19 L221.75,15.25 L215,15.25 L215,45.5 L221.75,45.5 L221.75,28.75 C221.75,23.5 225.5,20.75 229.75,20.75 C234.25,20.75 237,23.5 237,28.75 L237,45.5 L243.75,45.5 L243.75,26.5 C243.75,19.25 238.5,14.5 231.25,14.5 L231.25,14.5 L231.25,14.5 Z" id="Shape"></path>
                                    <path d="M262.25,30 C262,29.75 261.75,29.5 261.75,29.5 L274.5,15.25 L266,15.25 L255.75,26.75 L254,26.75 L254,0 L247.25,6.75 L247.25,45.75 L254,45.75 L254,33 L255.75,33 L266,45.75 L274.5,45.75 C274.75,45.5 266.5,35.25 262.25,30 L262.25,30 L262.25,30 Z" id="Shape"></path>
                                    <path d="M19.75,49.5 C36,49.5 49.5,30 49.5,30 C49.5,30 36,10.5 19.75,10.5 C9,10.5 0,19.5 0,30 C0,40.5 9.25,49.5 19.75,49.5 Z M17,36.5 L18.75,38.25 L20.5,36.5 L30.5,26.75 C31.5,25.75 31.5,24.25 30.5,23.25 C29.5,22.25 28,22.25 27,23.25 L18.75,31.25 L15.5,28 C14.5,27 13,27 12,28 C11,29 11,30.5 12,31.5 L17,36.5 Z" id="Combined-Shape"></path>
                                </g>
                                <g id="Group" transform="translate(138.500000, 391.000000) rotate(-20.000000) translate(-138.500000, -391.000000) translate(1.000000, 366.000000)">
                                    <path d="M143,14.5 C136.25,14.5 131,17.75 128.25,23 C125.5,18 120.25,14.5 113.5,14.5 C106.5,14.5 101,18 98.5,23.5 L98.5,23.5 L94,33.25 L85.25,12.75 L76.25,33.25 L68,15.5 L60,15.5 L76.5,48.25 L85.25,28.5 L94,48.25 L99,38.25 C101.75,43.25 107,46.5 113.5,46.5 C120.25,46.5 125.5,43.25 128.25,38 C131,43 136.25,46.5 143,46.5 C152.5,46.5 159.5,39.75 159.5,30.5 C159.5,21.25 152.5,14.5 143,14.5 L143,14.5 L143,14.5 Z M113.5,40 C108,40 103.75,36 103.75,30.25 C103.75,24.5 108,20.5 113.5,20.5 C119,20.5 123.25,24.5 123.25,30.25 C123.25,36 119,40 113.5,40 L113.5,40 L113.5,40 Z M143,40 C137.5,40 133.25,36 133.25,30.25 C133.25,24.5 137.5,20.5 143,20.5 C148.5,20.5 152.75,24.5 152.75,30.25 C152.75,36 148.5,40 143,40 L143,40 L143,40 Z" id="Shape"></path>
                                    <path d="M183.5,15.5 C182,14.75 180,14.5 177.75,14.5 C173.5,14.5 170.5,15.25 168.75,17.75 L168.75,15.25 L162,15.25 L162,45.5 L168.75,45.5 L168.75,31.75 C168.75,25 171.75,20.75 176,20.75 C176.75,20.75 177.75,20.75 178.75,21 C180,18.75 181.5,17 183.5,15.5 L183.5,15.5 L183.5,15.5 Z" id="Shape"></path>
                                    <path d="M204.5,18 C203,16.25 199.25,14.5 194.75,14.5 C186.25,14.5 179.5,21.25 179.5,30.5 C179.5,39.75 186.25,46.5 194.75,46.5 C199,46.5 203,44.75 204.5,43 L204.5,45.75 L211.25,45.75 L211.25,15.5 L204.5,15.5 L204.5,18 L204.5,18 L204.5,18 Z M195.5,40 C189.75,40 186.25,35.5 186.25,30.25 C186.25,25 189.75,20.5 195.5,20.5 C201,20.5 204.75,24.75 204.75,30.25 C204.75,35.75 201,40 195.5,40 L195.5,40 L195.5,40 Z" id="Shape"></path>
                                    <path d="M231.25,14.5 C228,14.5 224.25,15.5 221.75,19 L221.75,15.25 L215,15.25 L215,45.5 L221.75,45.5 L221.75,28.75 C221.75,23.5 225.5,20.75 229.75,20.75 C234.25,20.75 237,23.5 237,28.75 L237,45.5 L243.75,45.5 L243.75,26.5 C243.75,19.25 238.5,14.5 231.25,14.5 L231.25,14.5 L231.25,14.5 Z" id="Shape"></path>
                                    <path d="M262.25,30 C262,29.75 261.75,29.5 261.75,29.5 L274.5,15.25 L266,15.25 L255.75,26.75 L254,26.75 L254,0 L247.25,6.75 L247.25,45.75 L254,45.75 L254,33 L255.75,33 L266,45.75 L274.5,45.75 C274.75,45.5 266.5,35.25 262.25,30 L262.25,30 L262.25,30 Z" id="Shape"></path>
                                    <path d="M19.75,49.5 C36,49.5 49.5,30 49.5,30 C49.5,30 36,10.5 19.75,10.5 C9,10.5 0,19.5 0,30 C0,40.5 9.25,49.5 19.75,49.5 Z M17,36.5 L18.75,38.25 L20.5,36.5 L30.5,26.75 C31.5,25.75 31.5,24.25 30.5,23.25 C29.5,22.25 28,22.25 27,23.25 L18.75,31.25 L15.5,28 C14.5,27 13,27 12,28 C11,29 11,30.5 12,31.5 L17,36.5 Z" id="Combined-Shape"></path>
                                </g>
                                <g id="Group" transform="translate(138.500000, 231.000000) rotate(-20.000000) translate(-138.500000, -231.000000) translate(1.000000, 206.000000)">
                                    <path d="M143,14.5 C136.25,14.5 131,17.75 128.25,23 C125.5,18 120.25,14.5 113.5,14.5 C106.5,14.5 101,18 98.5,23.5 L98.5,23.5 L94,33.25 L85.25,12.75 L76.25,33.25 L68,15.5 L60,15.5 L76.5,48.25 L85.25,28.5 L94,48.25 L99,38.25 C101.75,43.25 107,46.5 113.5,46.5 C120.25,46.5 125.5,43.25 128.25,38 C131,43 136.25,46.5 143,46.5 C152.5,46.5 159.5,39.75 159.5,30.5 C159.5,21.25 152.5,14.5 143,14.5 L143,14.5 L143,14.5 Z M113.5,40 C108,40 103.75,36 103.75,30.25 C103.75,24.5 108,20.5 113.5,20.5 C119,20.5 123.25,24.5 123.25,30.25 C123.25,36 119,40 113.5,40 L113.5,40 L113.5,40 Z M143,40 C137.5,40 133.25,36 133.25,30.25 C133.25,24.5 137.5,20.5 143,20.5 C148.5,20.5 152.75,24.5 152.75,30.25 C152.75,36 148.5,40 143,40 L143,40 L143,40 Z" id="Shape"></path>
                                    <path d="M183.5,15.5 C182,14.75 180,14.5 177.75,14.5 C173.5,14.5 170.5,15.25 168.75,17.75 L168.75,15.25 L162,15.25 L162,45.5 L168.75,45.5 L168.75,31.75 C168.75,25 171.75,20.75 176,20.75 C176.75,20.75 177.75,20.75 178.75,21 C180,18.75 181.5,17 183.5,15.5 L183.5,15.5 L183.5,15.5 Z" id="Shape"></path>
                                    <path d="M204.5,18 C203,16.25 199.25,14.5 194.75,14.5 C186.25,14.5 179.5,21.25 179.5,30.5 C179.5,39.75 186.25,46.5 194.75,46.5 C199,46.5 203,44.75 204.5,43 L204.5,45.75 L211.25,45.75 L211.25,15.5 L204.5,15.5 L204.5,18 L204.5,18 L204.5,18 Z M195.5,40 C189.75,40 186.25,35.5 186.25,30.25 C186.25,25 189.75,20.5 195.5,20.5 C201,20.5 204.75,24.75 204.75,30.25 C204.75,35.75 201,40 195.5,40 L195.5,40 L195.5,40 Z" id="Shape"></path>
                                    <path d="M231.25,14.5 C228,14.5 224.25,15.5 221.75,19 L221.75,15.25 L215,15.25 L215,45.5 L221.75,45.5 L221.75,28.75 C221.75,23.5 225.5,20.75 229.75,20.75 C234.25,20.75 237,23.5 237,28.75 L237,45.5 L243.75,45.5 L243.75,26.5 C243.75,19.25 238.5,14.5 231.25,14.5 L231.25,14.5 L231.25,14.5 Z" id="Shape"></path>
                                    <path d="M262.25,30 C262,29.75 261.75,29.5 261.75,29.5 L274.5,15.25 L266,15.25 L255.75,26.75 L254,26.75 L254,0 L247.25,6.75 L247.25,45.75 L254,45.75 L254,33 L255.75,33 L266,45.75 L274.5,45.75 C274.75,45.5 266.5,35.25 262.25,30 L262.25,30 L262.25,30 Z" id="Shape"></path>
                                    <path d="M19.75,49.5 C36,49.5 49.5,30 49.5,30 C49.5,30 36,10.5 19.75,10.5 C9,10.5 0,19.5 0,30 C0,40.5 9.25,49.5 19.75,49.5 Z M17,36.5 L18.75,38.25 L20.5,36.5 L30.5,26.75 C31.5,25.75 31.5,24.25 30.5,23.25 C29.5,22.25 28,22.25 27,23.25 L18.75,31.25 L15.5,28 C14.5,27 13,27 12,28 C11,29 11,30.5 12,31.5 L17,36.5 Z" id="Combined-Shape"></path>
                                </g>
                                <g id="Group" transform="translate(138.500000, 71.000000) rotate(-20.000000) translate(-138.500000, -71.000000) translate(1.000000, 46.000000)">
                                    <path d="M143,14.5 C136.25,14.5 131,17.75 128.25,23 C125.5,18 120.25,14.5 113.5,14.5 C106.5,14.5 101,18 98.5,23.5 L98.5,23.5 L94,33.25 L85.25,12.75 L76.25,33.25 L68,15.5 L60,15.5 L76.5,48.25 L85.25,28.5 L94,48.25 L99,38.25 C101.75,43.25 107,46.5 113.5,46.5 C120.25,46.5 125.5,43.25 128.25,38 C131,43 136.25,46.5 143,46.5 C152.5,46.5 159.5,39.75 159.5,30.5 C159.5,21.25 152.5,14.5 143,14.5 L143,14.5 L143,14.5 Z M113.5,40 C108,40 103.75,36 103.75,30.25 C103.75,24.5 108,20.5 113.5,20.5 C119,20.5 123.25,24.5 123.25,30.25 C123.25,36 119,40 113.5,40 L113.5,40 L113.5,40 Z M143,40 C137.5,40 133.25,36 133.25,30.25 C133.25,24.5 137.5,20.5 143,20.5 C148.5,20.5 152.75,24.5 152.75,30.25 C152.75,36 148.5,40 143,40 L143,40 L143,40 Z" id="Shape"></path>
                                    <path d="M183.5,15.5 C182,14.75 180,14.5 177.75,14.5 C173.5,14.5 170.5,15.25 168.75,17.75 L168.75,15.25 L162,15.25 L162,45.5 L168.75,45.5 L168.75,31.75 C168.75,25 171.75,20.75 176,20.75 C176.75,20.75 177.75,20.75 178.75,21 C180,18.75 181.5,17 183.5,15.5 L183.5,15.5 L183.5,15.5 Z" id="Shape"></path>
                                    <path d="M204.5,18 C203,16.25 199.25,14.5 194.75,14.5 C186.25,14.5 179.5,21.25 179.5,30.5 C179.5,39.75 186.25,46.5 194.75,46.5 C199,46.5 203,44.75 204.5,43 L204.5,45.75 L211.25,45.75 L211.25,15.5 L204.5,15.5 L204.5,18 L204.5,18 L204.5,18 Z M195.5,40 C189.75,40 186.25,35.5 186.25,30.25 C186.25,25 189.75,20.5 195.5,20.5 C201,20.5 204.75,24.75 204.75,30.25 C204.75,35.75 201,40 195.5,40 L195.5,40 L195.5,40 Z" id="Shape"></path>
                                    <path d="M231.25,14.5 C228,14.5 224.25,15.5 221.75,19 L221.75,15.25 L215,15.25 L215,45.5 L221.75,45.5 L221.75,28.75 C221.75,23.5 225.5,20.75 229.75,20.75 C234.25,20.75 237,23.5 237,28.75 L237,45.5 L243.75,45.5 L243.75,26.5 C243.75,19.25 238.5,14.5 231.25,14.5 L231.25,14.5 L231.25,14.5 Z" id="Shape"></path>
                                    <path d="M262.25,30 C262,29.75 261.75,29.5 261.75,29.5 L274.5,15.25 L266,15.25 L255.75,26.75 L254,26.75 L254,0 L247.25,6.75 L247.25,45.75 L254,45.75 L254,33 L255.75,33 L266,45.75 L274.5,45.75 C274.75,45.5 266.5,35.25 262.25,30 L262.25,30 L262.25,30 Z" id="Shape"></path>
                                    <path d="M19.75,49.5 C36,49.5 49.5,30 49.5,30 C49.5,30 36,10.5 19.75,10.5 C9,10.5 0,19.5 0,30 C0,40.5 9.25,49.5 19.75,49.5 Z M17,36.5 L18.75,38.25 L20.5,36.5 L30.5,26.75 C31.5,25.75 31.5,24.25 30.5,23.25 C29.5,22.25 28,22.25 27,23.25 L18.75,31.25 L15.5,28 C14.5,27 13,27 12,28 C11,29 11,30.5 12,31.5 L17,36.5 Z" id="Combined-Shape"></path>
                                </g>
                                <g id="Group" transform="translate(428.500000, 551.520085) rotate(-20.000000) translate(-428.500000, -551.520085) translate(291.000000, 526.520085)">
                                    <path d="M143,14.5 C136.25,14.5 131,17.75 128.25,23 C125.5,18 120.25,14.5 113.5,14.5 C106.5,14.5 101,18 98.5,23.5 L98.5,23.5 L94,33.25 L85.25,12.75 L76.25,33.25 L68,15.5 L60,15.5 L76.5,48.25 L85.25,28.5 L94,48.25 L99,38.25 C101.75,43.25 107,46.5 113.5,46.5 C120.25,46.5 125.5,43.25 128.25,38 C131,43 136.25,46.5 143,46.5 C152.5,46.5 159.5,39.75 159.5,30.5 C159.5,21.25 152.5,14.5 143,14.5 L143,14.5 L143,14.5 Z M113.5,40 C108,40 103.75,36 103.75,30.25 C103.75,24.5 108,20.5 113.5,20.5 C119,20.5 123.25,24.5 123.25,30.25 C123.25,36 119,40 113.5,40 L113.5,40 L113.5,40 Z M143,40 C137.5,40 133.25,36 133.25,30.25 C133.25,24.5 137.5,20.5 143,20.5 C148.5,20.5 152.75,24.5 152.75,30.25 C152.75,36 148.5,40 143,40 L143,40 L143,40 Z" id="Shape"></path>
                                    <path d="M183.5,15.5 C182,14.75 180,14.5 177.75,14.5 C173.5,14.5 170.5,15.25 168.75,17.75 L168.75,15.25 L162,15.25 L162,45.5 L168.75,45.5 L168.75,31.75 C168.75,25 171.75,20.75 176,20.75 C176.75,20.75 177.75,20.75 178.75,21 C180,18.75 181.5,17 183.5,15.5 L183.5,15.5 L183.5,15.5 Z" id="Shape"></path>
                                    <path d="M204.5,18 C203,16.25 199.25,14.5 194.75,14.5 C186.25,14.5 179.5,21.25 179.5,30.5 C179.5,39.75 186.25,46.5 194.75,46.5 C199,46.5 203,44.75 204.5,43 L204.5,45.75 L211.25,45.75 L211.25,15.5 L204.5,15.5 L204.5,18 L204.5,18 L204.5,18 Z M195.5,40 C189.75,40 186.25,35.5 186.25,30.25 C186.25,25 189.75,20.5 195.5,20.5 C201,20.5 204.75,24.75 204.75,30.25 C204.75,35.75 201,40 195.5,40 L195.5,40 L195.5,40 Z" id="Shape"></path>
                                    <path d="M231.25,14.5 C228,14.5 224.25,15.5 221.75,19 L221.75,15.25 L215,15.25 L215,45.5 L221.75,45.5 L221.75,28.75 C221.75,23.5 225.5,20.75 229.75,20.75 C234.25,20.75 237,23.5 237,28.75 L237,45.5 L243.75,45.5 L243.75,26.5 C243.75,19.25 238.5,14.5 231.25,14.5 L231.25,14.5 L231.25,14.5 Z" id="Shape"></path>
                                    <path d="M262.25,30 C262,29.75 261.75,29.5 261.75,29.5 L274.5,15.25 L266,15.25 L255.75,26.75 L254,26.75 L254,0 L247.25,6.75 L247.25,45.75 L254,45.75 L254,33 L255.75,33 L266,45.75 L274.5,45.75 C274.75,45.5 266.5,35.25 262.25,30 L262.25,30 L262.25,30 Z" id="Shape"></path>
                                    <path d="M19.75,49.5 C36,49.5 49.5,30 49.5,30 C49.5,30 36,10.5 19.75,10.5 C9,10.5 0,19.5 0,30 C0,40.5 9.25,49.5 19.75,49.5 Z M17,36.5 L18.75,38.25 L20.5,36.5 L30.5,26.75 C31.5,25.75 31.5,24.25 30.5,23.25 C29.5,22.25 28,22.25 27,23.25 L18.75,31.25 L15.5,28 C14.5,27 13,27 12,28 C11,29 11,30.5 12,31.5 L17,36.5 Z" id="Combined-Shape"></path>
                                </g>
                                <g id="Group" transform="translate(428.500000, 391.520085) rotate(-20.000000) translate(-428.500000, -391.520085) translate(291.000000, 366.520085)">
                                    <path d="M143,14.5 C136.25,14.5 131,17.75 128.25,23 C125.5,18 120.25,14.5 113.5,14.5 C106.5,14.5 101,18 98.5,23.5 L98.5,23.5 L94,33.25 L85.25,12.75 L76.25,33.25 L68,15.5 L60,15.5 L76.5,48.25 L85.25,28.5 L94,48.25 L99,38.25 C101.75,43.25 107,46.5 113.5,46.5 C120.25,46.5 125.5,43.25 128.25,38 C131,43 136.25,46.5 143,46.5 C152.5,46.5 159.5,39.75 159.5,30.5 C159.5,21.25 152.5,14.5 143,14.5 L143,14.5 L143,14.5 Z M113.5,40 C108,40 103.75,36 103.75,30.25 C103.75,24.5 108,20.5 113.5,20.5 C119,20.5 123.25,24.5 123.25,30.25 C123.25,36 119,40 113.5,40 L113.5,40 L113.5,40 Z M143,40 C137.5,40 133.25,36 133.25,30.25 C133.25,24.5 137.5,20.5 143,20.5 C148.5,20.5 152.75,24.5 152.75,30.25 C152.75,36 148.5,40 143,40 L143,40 L143,40 Z" id="Shape"></path>
                                    <path d="M183.5,15.5 C182,14.75 180,14.5 177.75,14.5 C173.5,14.5 170.5,15.25 168.75,17.75 L168.75,15.25 L162,15.25 L162,45.5 L168.75,45.5 L168.75,31.75 C168.75,25 171.75,20.75 176,20.75 C176.75,20.75 177.75,20.75 178.75,21 C180,18.75 181.5,17 183.5,15.5 L183.5,15.5 L183.5,15.5 Z" id="Shape"></path>
                                    <path d="M204.5,18 C203,16.25 199.25,14.5 194.75,14.5 C186.25,14.5 179.5,21.25 179.5,30.5 C179.5,39.75 186.25,46.5 194.75,46.5 C199,46.5 203,44.75 204.5,43 L204.5,45.75 L211.25,45.75 L211.25,15.5 L204.5,15.5 L204.5,18 L204.5,18 L204.5,18 Z M195.5,40 C189.75,40 186.25,35.5 186.25,30.25 C186.25,25 189.75,20.5 195.5,20.5 C201,20.5 204.75,24.75 204.75,30.25 C204.75,35.75 201,40 195.5,40 L195.5,40 L195.5,40 Z" id="Shape"></path>
                                    <path d="M231.25,14.5 C228,14.5 224.25,15.5 221.75,19 L221.75,15.25 L215,15.25 L215,45.5 L221.75,45.5 L221.75,28.75 C221.75,23.5 225.5,20.75 229.75,20.75 C234.25,20.75 237,23.5 237,28.75 L237,45.5 L243.75,45.5 L243.75,26.5 C243.75,19.25 238.5,14.5 231.25,14.5 L231.25,14.5 L231.25,14.5 Z" id="Shape"></path>
                                    <path d="M262.25,30 C262,29.75 261.75,29.5 261.75,29.5 L274.5,15.25 L266,15.25 L255.75,26.75 L254,26.75 L254,0 L247.25,6.75 L247.25,45.75 L254,45.75 L254,33 L255.75,33 L266,45.75 L274.5,45.75 C274.75,45.5 266.5,35.25 262.25,30 L262.25,30 L262.25,30 Z" id="Shape"></path>
                                    <path d="M19.75,49.5 C36,49.5 49.5,30 49.5,30 C49.5,30 36,10.5 19.75,10.5 C9,10.5 0,19.5 0,30 C0,40.5 9.25,49.5 19.75,49.5 Z M17,36.5 L18.75,38.25 L20.5,36.5 L30.5,26.75 C31.5,25.75 31.5,24.25 30.5,23.25 C29.5,22.25 28,22.25 27,23.25 L18.75,31.25 L15.5,28 C14.5,27 13,27 12,28 C11,29 11,30.5 12,31.5 L17,36.5 Z" id="Combined-Shape"></path>
                                </g>
                                <g id="Group" transform="translate(428.500000, 231.520085) rotate(-20.000000) translate(-428.500000, -231.520085) translate(291.000000, 206.520085)">
                                    <path d="M143,14.5 C136.25,14.5 131,17.75 128.25,23 C125.5,18 120.25,14.5 113.5,14.5 C106.5,14.5 101,18 98.5,23.5 L98.5,23.5 L94,33.25 L85.25,12.75 L76.25,33.25 L68,15.5 L60,15.5 L76.5,48.25 L85.25,28.5 L94,48.25 L99,38.25 C101.75,43.25 107,46.5 113.5,46.5 C120.25,46.5 125.5,43.25 128.25,38 C131,43 136.25,46.5 143,46.5 C152.5,46.5 159.5,39.75 159.5,30.5 C159.5,21.25 152.5,14.5 143,14.5 L143,14.5 L143,14.5 Z M113.5,40 C108,40 103.75,36 103.75,30.25 C103.75,24.5 108,20.5 113.5,20.5 C119,20.5 123.25,24.5 123.25,30.25 C123.25,36 119,40 113.5,40 L113.5,40 L113.5,40 Z M143,40 C137.5,40 133.25,36 133.25,30.25 C133.25,24.5 137.5,20.5 143,20.5 C148.5,20.5 152.75,24.5 152.75,30.25 C152.75,36 148.5,40 143,40 L143,40 L143,40 Z" id="Shape"></path>
                                    <path d="M183.5,15.5 C182,14.75 180,14.5 177.75,14.5 C173.5,14.5 170.5,15.25 168.75,17.75 L168.75,15.25 L162,15.25 L162,45.5 L168.75,45.5 L168.75,31.75 C168.75,25 171.75,20.75 176,20.75 C176.75,20.75 177.75,20.75 178.75,21 C180,18.75 181.5,17 183.5,15.5 L183.5,15.5 L183.5,15.5 Z" id="Shape"></path>
                                    <path d="M204.5,18 C203,16.25 199.25,14.5 194.75,14.5 C186.25,14.5 179.5,21.25 179.5,30.5 C179.5,39.75 186.25,46.5 194.75,46.5 C199,46.5 203,44.75 204.5,43 L204.5,45.75 L211.25,45.75 L211.25,15.5 L204.5,15.5 L204.5,18 L204.5,18 L204.5,18 Z M195.5,40 C189.75,40 186.25,35.5 186.25,30.25 C186.25,25 189.75,20.5 195.5,20.5 C201,20.5 204.75,24.75 204.75,30.25 C204.75,35.75 201,40 195.5,40 L195.5,40 L195.5,40 Z" id="Shape"></path>
                                    <path d="M231.25,14.5 C228,14.5 224.25,15.5 221.75,19 L221.75,15.25 L215,15.25 L215,45.5 L221.75,45.5 L221.75,28.75 C221.75,23.5 225.5,20.75 229.75,20.75 C234.25,20.75 237,23.5 237,28.75 L237,45.5 L243.75,45.5 L243.75,26.5 C243.75,19.25 238.5,14.5 231.25,14.5 L231.25,14.5 L231.25,14.5 Z" id="Shape"></path>
                                    <path d="M262.25,30 C262,29.75 261.75,29.5 261.75,29.5 L274.5,15.25 L266,15.25 L255.75,26.75 L254,26.75 L254,0 L247.25,6.75 L247.25,45.75 L254,45.75 L254,33 L255.75,33 L266,45.75 L274.5,45.75 C274.75,45.5 266.5,35.25 262.25,30 L262.25,30 L262.25,30 Z" id="Shape"></path>
                                    <path d="M19.75,49.5 C36,49.5 49.5,30 49.5,30 C49.5,30 36,10.5 19.75,10.5 C9,10.5 0,19.5 0,30 C0,40.5 9.25,49.5 19.75,49.5 Z M17,36.5 L18.75,38.25 L20.5,36.5 L30.5,26.75 C31.5,25.75 31.5,24.25 30.5,23.25 C29.5,22.25 28,22.25 27,23.25 L18.75,31.25 L15.5,28 C14.5,27 13,27 12,28 C11,29 11,30.5 12,31.5 L17,36.5 Z" id="Combined-Shape"></path>
                                </g>
                                <g id="Group" transform="translate(428.500000, 71.520085) rotate(-20.000000) translate(-428.500000, -71.520085) translate(291.000000, 46.520085)">
                                    <path d="M143,14.5 C136.25,14.5 131,17.75 128.25,23 C125.5,18 120.25,14.5 113.5,14.5 C106.5,14.5 101,18 98.5,23.5 L98.5,23.5 L94,33.25 L85.25,12.75 L76.25,33.25 L68,15.5 L60,15.5 L76.5,48.25 L85.25,28.5 L94,48.25 L99,38.25 C101.75,43.25 107,46.5 113.5,46.5 C120.25,46.5 125.5,43.25 128.25,38 C131,43 136.25,46.5 143,46.5 C152.5,46.5 159.5,39.75 159.5,30.5 C159.5,21.25 152.5,14.5 143,14.5 L143,14.5 L143,14.5 Z M113.5,40 C108,40 103.75,36 103.75,30.25 C103.75,24.5 108,20.5 113.5,20.5 C119,20.5 123.25,24.5 123.25,30.25 C123.25,36 119,40 113.5,40 L113.5,40 L113.5,40 Z M143,40 C137.5,40 133.25,36 133.25,30.25 C133.25,24.5 137.5,20.5 143,20.5 C148.5,20.5 152.75,24.5 152.75,30.25 C152.75,36 148.5,40 143,40 L143,40 L143,40 Z" id="Shape"></path>
                                    <path d="M183.5,15.5 C182,14.75 180,14.5 177.75,14.5 C173.5,14.5 170.5,15.25 168.75,17.75 L168.75,15.25 L162,15.25 L162,45.5 L168.75,45.5 L168.75,31.75 C168.75,25 171.75,20.75 176,20.75 C176.75,20.75 177.75,20.75 178.75,21 C180,18.75 181.5,17 183.5,15.5 L183.5,15.5 L183.5,15.5 Z" id="Shape"></path>
                                    <path d="M204.5,18 C203,16.25 199.25,14.5 194.75,14.5 C186.25,14.5 179.5,21.25 179.5,30.5 C179.5,39.75 186.25,46.5 194.75,46.5 C199,46.5 203,44.75 204.5,43 L204.5,45.75 L211.25,45.75 L211.25,15.5 L204.5,15.5 L204.5,18 L204.5,18 L204.5,18 Z M195.5,40 C189.75,40 186.25,35.5 186.25,30.25 C186.25,25 189.75,20.5 195.5,20.5 C201,20.5 204.75,24.75 204.75,30.25 C204.75,35.75 201,40 195.5,40 L195.5,40 L195.5,40 Z" id="Shape"></path>
                                    <path d="M231.25,14.5 C228,14.5 224.25,15.5 221.75,19 L221.75,15.25 L215,15.25 L215,45.5 L221.75,45.5 L221.75,28.75 C221.75,23.5 225.5,20.75 229.75,20.75 C234.25,20.75 237,23.5 237,28.75 L237,45.5 L243.75,45.5 L243.75,26.5 C243.75,19.25 238.5,14.5 231.25,14.5 L231.25,14.5 L231.25,14.5 Z" id="Shape"></path>
                                    <path d="M262.25,30 C262,29.75 261.75,29.5 261.75,29.5 L274.5,15.25 L266,15.25 L255.75,26.75 L254,26.75 L254,0 L247.25,6.75 L247.25,45.75 L254,45.75 L254,33 L255.75,33 L266,45.75 L274.5,45.75 C274.75,45.5 266.5,35.25 262.25,30 L262.25,30 L262.25,30 Z" id="Shape"></path>
                                    <path d="M19.75,49.5 C36,49.5 49.5,30 49.5,30 C49.5,30 36,10.5 19.75,10.5 C9,10.5 0,19.5 0,30 C0,40.5 9.25,49.5 19.75,49.5 Z M17,36.5 L18.75,38.25 L20.5,36.5 L30.5,26.75 C31.5,25.75 31.5,24.25 30.5,23.25 C29.5,22.25 28,22.25 27,23.25 L18.75,31.25 L15.5,28 C14.5,27 13,27 12,28 C11,29 11,30.5 12,31.5 L17,36.5 Z" id="Combined-Shape"></path>
                                </g>
                            </g>
                            <g id="Group-3" transform="translate(590.000000, 0.000000)" fill="#428BCA">
                                <g id="Group" transform="translate(138.500000, 551.000000) rotate(-20.000000) translate(-138.500000, -551.000000) translate(1.000000, 526.000000)">
                                    <path d="M143,14.5 C136.25,14.5 131,17.75 128.25,23 C125.5,18 120.25,14.5 113.5,14.5 C106.5,14.5 101,18 98.5,23.5 L98.5,23.5 L94,33.25 L85.25,12.75 L76.25,33.25 L68,15.5 L60,15.5 L76.5,48.25 L85.25,28.5 L94,48.25 L99,38.25 C101.75,43.25 107,46.5 113.5,46.5 C120.25,46.5 125.5,43.25 128.25,38 C131,43 136.25,46.5 143,46.5 C152.5,46.5 159.5,39.75 159.5,30.5 C159.5,21.25 152.5,14.5 143,14.5 L143,14.5 L143,14.5 Z M113.5,40 C108,40 103.75,36 103.75,30.25 C103.75,24.5 108,20.5 113.5,20.5 C119,20.5 123.25,24.5 123.25,30.25 C123.25,36 119,40 113.5,40 L113.5,40 L113.5,40 Z M143,40 C137.5,40 133.25,36 133.25,30.25 C133.25,24.5 137.5,20.5 143,20.5 C148.5,20.5 152.75,24.5 152.75,30.25 C152.75,36 148.5,40 143,40 L143,40 L143,40 Z" id="Shape"></path>
                                    <path d="M19.75,49.5 C36,49.5 49.5,30 49.5,30 C49.5,30 36,10.5 19.75,10.5 C9,10.5 0,19.5 0,30 C0,40.5 9.25,49.5 19.75,49.5 Z M17,36.5 L18.75,38.25 L20.5,36.5 L30.5,26.75 C31.5,25.75 31.5,24.25 30.5,23.25 C29.5,22.25 28,22.25 27,23.25 L18.75,31.25 L15.5,28 C14.5,27 13,27 12,28 C11,29 11,30.5 12,31.5 L17,36.5 Z" id="Combined-Shape"></path>
                                </g>
                                <g id="Group" transform="translate(138.500000, 391.000000) rotate(-20.000000) translate(-138.500000, -391.000000) translate(1.000000, 366.000000)">
                                    <path d="M143,14.5 C136.25,14.5 131,17.75 128.25,23 C125.5,18 120.25,14.5 113.5,14.5 C106.5,14.5 101,18 98.5,23.5 L98.5,23.5 L94,33.25 L85.25,12.75 L76.25,33.25 L68,15.5 L60,15.5 L76.5,48.25 L85.25,28.5 L94,48.25 L99,38.25 C101.75,43.25 107,46.5 113.5,46.5 C120.25,46.5 125.5,43.25 128.25,38 C131,43 136.25,46.5 143,46.5 C152.5,46.5 159.5,39.75 159.5,30.5 C159.5,21.25 152.5,14.5 143,14.5 L143,14.5 L143,14.5 Z M113.5,40 C108,40 103.75,36 103.75,30.25 C103.75,24.5 108,20.5 113.5,20.5 C119,20.5 123.25,24.5 123.25,30.25 C123.25,36 119,40 113.5,40 L113.5,40 L113.5,40 Z M143,40 C137.5,40 133.25,36 133.25,30.25 C133.25,24.5 137.5,20.5 143,20.5 C148.5,20.5 152.75,24.5 152.75,30.25 C152.75,36 148.5,40 143,40 L143,40 L143,40 Z" id="Shape"></path>
                                    <path d="M19.75,49.5 C36,49.5 49.5,30 49.5,30 C49.5,30 36,10.5 19.75,10.5 C9,10.5 0,19.5 0,30 C0,40.5 9.25,49.5 19.75,49.5 Z M17,36.5 L18.75,38.25 L20.5,36.5 L30.5,26.75 C31.5,25.75 31.5,24.25 30.5,23.25 C29.5,22.25 28,22.25 27,23.25 L18.75,31.25 L15.5,28 C14.5,27 13,27 12,28 C11,29 11,30.5 12,31.5 L17,36.5 Z" id="Combined-Shape"></path>
                                </g>
                                <g id="Group" transform="translate(138.500000, 231.000000) rotate(-20.000000) translate(-138.500000, -231.000000) translate(1.000000, 206.000000)">
                                    <path d="M143,14.5 C136.25,14.5 131,17.75 128.25,23 C125.5,18 120.25,14.5 113.5,14.5 C106.5,14.5 101,18 98.5,23.5 L98.5,23.5 L94,33.25 L85.25,12.75 L76.25,33.25 L68,15.5 L60,15.5 L76.5,48.25 L85.25,28.5 L94,48.25 L99,38.25 C101.75,43.25 107,46.5 113.5,46.5 C120.25,46.5 125.5,43.25 128.25,38 C131,43 136.25,46.5 143,46.5 C152.5,46.5 159.5,39.75 159.5,30.5 C159.5,21.25 152.5,14.5 143,14.5 L143,14.5 L143,14.5 Z M113.5,40 C108,40 103.75,36 103.75,30.25 C103.75,24.5 108,20.5 113.5,20.5 C119,20.5 123.25,24.5 123.25,30.25 C123.25,36 119,40 113.5,40 L113.5,40 L113.5,40 Z M143,40 C137.5,40 133.25,36 133.25,30.25 C133.25,24.5 137.5,20.5 143,20.5 C148.5,20.5 152.75,24.5 152.75,30.25 C152.75,36 148.5,40 143,40 L143,40 L143,40 Z" id="Shape"></path>
                                    <path d="M19.75,49.5 C36,49.5 49.5,30 49.5,30 C49.5,30 36,10.5 19.75,10.5 C9,10.5 0,19.5 0,30 C0,40.5 9.25,49.5 19.75,49.5 Z M17,36.5 L18.75,38.25 L20.5,36.5 L30.5,26.75 C31.5,25.75 31.5,24.25 30.5,23.25 C29.5,22.25 28,22.25 27,23.25 L18.75,31.25 L15.5,28 C14.5,27 13,27 12,28 C11,29 11,30.5 12,31.5 L17,36.5 Z" id="Combined-Shape"></path>
                                </g>
                                <g id="Group" transform="translate(138.500000, 71.000000) rotate(-20.000000) translate(-138.500000, -71.000000) translate(1.000000, 46.000000)">
                                    <path d="M143,14.5 C136.25,14.5 131,17.75 128.25,23 C125.5,18 120.25,14.5 113.5,14.5 C106.5,14.5 101,18 98.5,23.5 L98.5,23.5 L94,33.25 L85.25,12.75 L76.25,33.25 L68,15.5 L60,15.5 L76.5,48.25 L85.25,28.5 L94,48.25 L99,38.25 C101.75,43.25 107,46.5 113.5,46.5 C120.25,46.5 125.5,43.25 128.25,38 C131,43 136.25,46.5 143,46.5 C152.5,46.5 159.5,39.75 159.5,30.5 C159.5,21.25 152.5,14.5 143,14.5 L143,14.5 L143,14.5 Z M113.5,40 C108,40 103.75,36 103.75,30.25 C103.75,24.5 108,20.5 113.5,20.5 C119,20.5 123.25,24.5 123.25,30.25 C123.25,36 119,40 113.5,40 L113.5,40 L113.5,40 Z M143,40 C137.5,40 133.25,36 133.25,30.25 C133.25,24.5 137.5,20.5 143,20.5 C148.5,20.5 152.75,24.5 152.75,30.25 C152.75,36 148.5,40 143,40 L143,40 L143,40 Z" id="Shape"></path>
                                    <path d="M19.75,49.5 C36,49.5 49.5,30 49.5,30 C49.5,30 36,10.5 19.75,10.5 C9,10.5 0,19.5 0,30 C0,40.5 9.25,49.5 19.75,49.5 Z M17,36.5 L18.75,38.25 L20.5,36.5 L30.5,26.75 C31.5,25.75 31.5,24.25 30.5,23.25 C29.5,22.25 28,22.25 27,23.25 L18.75,31.25 L15.5,28 C14.5,27 13,27 12,28 C11,29 11,30.5 12,31.5 L17,36.5 Z" id="Combined-Shape"></path>
                                </g>
                            </g>
                        </g>
                    </g>
                </g>
            </g>
        </g>
    </g>
</svg>