<?xml version="1.0" encoding="UTF-8" standalone="no"?>
<svg width="1912px" height="565px" viewBox="0 0 1912 565" version="1.1" xmlns="http://www.w3.org/2000/svg" xmlns:xlink="http://www.w3.org/1999/xlink">
    <!-- Generator: Sketch 3.8.3 (29802) - http://www.bohemiancoding.com/sketch -->
    <title>SP_BG</title>
    <desc>Created with Sketch.</desc>
    <defs>
        <linearGradient x1="50%" y1="-115.69534%" x2="50%" y2="100%" id="linearGradient-1">
            <stop stop-color="#A2A2A2" offset="0%"></stop>
            <stop stop-color="#3A3A3A" offset="100%"></stop>
        </linearGradient>
        <rect id="path-2" x="0" y="0" width="1912" height="565"></rect>
    </defs>
    <g id="Page-1" stroke="none" stroke-width="1" fill="none" fill-rule="evenodd">
        <g id="SP_BG">
            <g id="Group-2">
                <mask id="mask-3" fill="white">
                    <use xlink:href="#path-2"></use>
                </mask>
                <use id="Mask" fill="url(#linearGradient-1)" xlink:href="#path-2"></use>
                <g id="Group-3" mask="url(#mask-3)">
                    <g transform="translate(-6.000000, -56.000000)" id="Group">
                        <g>
                            <path d="M14.6397481,529.140789 L48.1681194,560.449455 L49.5361395,561.726886 L50.8824447,560.426589 L65.3154767,546.486791 L65.5390743,546.229931 C67.4119331,543.66005 67.2611931,540.170657 65.1507495,537.76532 L51.783535,526.016641 L54.6785389,528.768904 L37.6901255,512.285542 C36.8041865,511.269136 36.8359842,509.618854 37.8760403,508.540107 L76.0707823,471.637215 L77.5343538,470.22308 L76.0740125,468.805609 L58.6969492,451.938675 L57.3274455,450.609375 L55.9548269,451.935458 L4.0682991,502.062902 C-0.721283316,506.689468 -0.730330407,514.226031 4.04804275,518.855849 L6.79096011,516.024921 C3.6133491,512.946099 3.61931402,507.9771 6.80700217,504.897907 L57.3274465,455.980777 L72.0794788,470.223079 L35.0877011,505.754781 C32.5700972,508.364259 32.4935524,512.336895 34.837871,515.001819 L46.0868097,526.262767 L62.3695296,540.546777 C63.0796376,541.381521 63.1420512,542.826296 62.3534765,543.908355 L62.5770741,543.651495 L49.5361413,556.365167 L17.3578805,526.286314 L6.79250986,516.026424 L4.046493,518.854346 L14.6397481,529.140789 Z" id="Fill-10" fill="#3A3A3A"></path>
                            <path d="M110.329745,523.433445 L76.8015176,492.118844 L75.4332865,490.840968 L74.0868439,492.141781 L59.6517898,506.087649 L59.4296359,506.342614 C57.5548452,508.90941 57.7065017,512.399897 59.8188535,514.807015 L73.1836996,526.557385 L70.1363564,523.655684 L73.0648197,526.496669 L87.2774538,540.284751 C88.1658546,541.302435 88.132689,542.950035 87.0874468,544.034073 L48.8986417,580.935071 L47.4353074,582.349124 L48.8954004,583.766524 L66.2724637,600.63548 L67.6421998,601.965165 L69.0149086,600.638549 L110.277851,560.761137 L120.900414,550.510071 C125.687691,545.88347 125.696739,538.34515 120.919433,533.716366 L118.176516,536.547294 C121.353175,539.625194 121.347208,544.596483 118.162149,547.674642 L107.539598,557.925697 L67.6421997,596.571482 L53.1588572,582.349125 L89.8758041,546.819385 C92.3978656,544.205487 92.4778084,540.234085 90.1287262,537.567375 L75.8095133,523.667463 L62.6002091,512.02565 C61.8882709,511.189049 61.8255449,509.745366 62.6127645,508.667575 L62.3906106,508.922541 L75.4332864,496.187091 L107.611478,526.287793 L118.17497,536.545795 L120.920979,533.717865 L110.329745,523.433445 Z" id="Fill-11" fill="#3A3A3A"></path>
                            <path d="M14.6397481,339.140789 L48.1681194,370.449455 L49.5361395,371.726886 L50.8824447,370.426589 L65.3154767,356.486791 L65.5390743,356.229931 C67.4119331,353.66005 67.2611931,350.170657 65.1507495,347.76532 L51.783535,336.016641 L54.6785389,338.768904 L37.6901255,322.285542 C36.8041865,321.269136 36.8359842,319.618854 37.8760403,318.540107 L76.0707823,281.637215 L77.5343538,280.22308 L76.0740125,278.805609 L58.6969492,261.938675 L57.3274455,260.609375 L55.9548269,261.935458 L4.0682991,312.062902 C-0.721283316,316.689468 -0.730330407,324.226031 4.04804275,328.855849 L6.79096011,326.024921 C3.6133491,322.946099 3.61931402,317.9771 6.80700217,314.897907 L57.3274465,265.980777 L72.0794788,280.223079 L35.0877011,315.754781 C32.5700972,318.364259 32.4935524,322.336895 34.837871,325.001819 L46.0868097,336.262767 L62.3695296,350.546777 C63.0796376,351.381521 63.1420512,352.826296 62.3534765,353.908355 L62.5770741,353.651495 L49.5361413,366.365167 L17.3578805,336.286314 L6.79250986,326.026424 L4.046493,328.854346 L14.6397481,339.140789 Z" id="Fill-10" fill="#3A3A3A"></path>
                            <path d="M110.329745,333.433445 L76.8015176,302.118844 L75.4332865,300.840968 L74.0868439,302.141781 L59.6517898,316.087649 L59.4296359,316.342614 C57.5548452,318.90941 57.7065017,322.399897 59.8188535,324.807015 L73.1836996,336.557385 L70.1363564,333.655684 L73.0648197,336.496669 L87.2774538,350.284751 C88.1658546,351.302435 88.132689,352.950035 87.0874468,354.034073 L48.8986417,390.935071 L47.4353074,392.349124 L48.8954004,393.766524 L66.2724637,410.63548 L67.6421998,411.965165 L69.0149086,410.638549 L110.277851,370.761137 L120.900414,360.510071 C125.687691,355.88347 125.696739,348.34515 120.919433,343.716366 L118.176516,346.547294 C121.353175,349.625194 121.347208,354.596483 118.162149,357.674642 L107.539598,367.925697 L67.6421997,406.571482 L53.1588572,392.349125 L89.8758041,356.819385 C92.3978656,354.205487 92.4778084,350.234085 90.1287262,347.567375 L75.8095133,333.667463 L62.6002091,322.02565 C61.8882709,321.189049 61.8255449,319.745366 62.6127645,318.667575 L62.3906106,318.922541 L75.4332864,306.187091 L107.611478,336.287793 L118.17497,346.545795 L120.920979,343.717865 L110.329745,333.433445 Z" id="Fill-11" fill="#3A3A3A"></path>
                            <path d="M14.6397481,149.140789 L48.1681194,180.449455 L49.5361395,181.726886 L50.8824447,180.426589 L65.3154767,166.486791 L65.5390743,166.229931 C67.4119331,163.66005 67.2611931,160.170657 65.1507495,157.76532 L51.783535,146.016641 L54.6785389,148.768904 L37.6901255,132.285542 C36.8041865,131.269136 36.8359842,129.618854 37.8760403,128.540107 L76.0707823,91.6372151 L77.5343538,90.2230797 L76.0740125,88.8056088 L58.6969492,71.9386749 L57.3274455,70.609375 L55.9548269,71.9354583 L4.0682991,122.062902 C-0.721283316,126.689468 -0.730330407,134.226031 4.04804275,138.855849 L6.79096011,136.024921 C3.6133491,132.946099 3.61931402,127.9771 6.80700217,124.897907 L57.3274465,75.9807775 L72.0794788,90.2230792 L35.0877011,125.754781 C32.5700972,128.364259 32.4935524,132.336895 34.837871,135.001819 L46.0868097,146.262767 L62.3695296,160.546777 C63.0796376,161.381521 63.1420512,162.826296 62.3534765,163.908355 L62.5770741,163.651495 L49.5361413,176.365167 L17.3578805,146.286314 L6.79250986,136.026424 L4.046493,138.854346 L14.6397481,149.140789 Z" id="Fill-10" fill="#3A3A3A"></path>
                            <path d="M110.329745,143.433445 L76.8015176,112.118844 L75.4332865,110.840968 L74.0868439,112.141781 L59.6517898,126.087649 L59.4296359,126.342614 C57.5548452,128.90941 57.7065017,132.399897 59.8188535,134.807015 L73.1836996,146.557385 L70.1363564,143.655684 L73.0648197,146.496669 L87.2774538,160.284751 C88.1658546,161.302435 88.132689,162.950035 87.0874468,164.034073 L48.8986417,200.935071 L47.4353074,202.349124 L48.8954004,203.766524 L66.2724637,220.63548 L67.6421998,221.965165 L69.0149086,220.638549 L110.277851,180.761137 L120.900414,170.510071 C125.687691,165.88347 125.696739,158.34515 120.919433,153.716366 L118.176516,156.547294 C121.353175,159.625194 121.347208,164.596483 118.162149,167.674642 L107.539598,177.925697 L67.6421997,216.571482 L53.1588572,202.349125 L89.8758041,166.819385 C92.3978656,164.205487 92.4778084,160.234085 90.1287262,157.567375 L75.8095133,143.667463 L62.6002091,132.02565 C61.8882709,131.189049 61.8255449,129.745366 62.6127645,128.667575 L62.3906106,128.922541 L75.4332864,116.187091 L107.611478,146.287793 L118.17497,156.545795 L120.920979,153.717865 L110.329745,143.433445 Z" id="Fill-11" fill="#3A3A3A"></path>
                            <path d="M184.639748,459.140789 L218.168119,490.449455 L219.536139,491.726886 L220.882445,490.426589 L235.315477,476.486791 L235.539074,476.229931 C237.411933,473.66005 237.261193,470.170657 235.150749,467.76532 L221.783535,456.016641 L224.678539,458.768904 L207.690125,442.285542 C206.804187,441.269136 206.835984,439.618854 207.87604,438.540107 L246.070782,401.637215 L247.534354,400.22308 L246.074012,398.805609 L228.696949,381.938675 L227.327445,380.609375 L225.954827,381.935458 L174.068299,432.062902 C169.278717,436.689468 169.26967,444.226031 174.048043,448.855849 L176.79096,446.024921 C173.613349,442.946099 173.619314,437.9771 176.807002,434.897907 L227.327447,385.980777 L242.079479,400.223079 L205.087701,435.754781 C202.570097,438.364259 202.493552,442.336895 204.837871,445.001819 L216.08681,456.262767 L232.36953,470.546777 C233.079638,471.381521 233.142051,472.826296 232.353477,473.908355 L232.577074,473.651495 L219.536141,486.365167 L187.357881,456.286314 L176.79251,446.026424 L174.046493,448.854346 L184.639748,459.140789 Z" id="Fill-10" fill="#3A3A3A"></path>
                            <path d="M280.329745,453.433445 L246.801518,422.118844 L245.433287,420.840968 L244.086844,422.141781 L229.65179,436.087649 L229.429636,436.342614 C227.554845,438.90941 227.706502,442.399897 229.818853,444.807015 L243.1837,456.557385 L240.136356,453.655684 L243.06482,456.496669 L257.277454,470.284751 C258.165855,471.302435 258.132689,472.950035 257.087447,474.034073 L218.898642,510.935071 L217.435307,512.349124 L218.8954,513.766524 L236.272464,530.63548 L237.6422,531.965165 L239.014909,530.638549 L280.277851,490.761137 L290.900414,480.510071 C295.687691,475.88347 295.696739,468.34515 290.919433,463.716366 L288.176516,466.547294 C291.353175,469.625194 291.347208,474.596483 288.162149,477.674642 L277.539598,487.925697 L237.6422,526.571482 L223.158857,512.349125 L259.875804,476.819385 C262.397866,474.205487 262.477808,470.234085 260.128726,467.567375 L245.809513,453.667463 L232.600209,442.02565 C231.888271,441.189049 231.825545,439.745366 232.612765,438.667575 L232.390611,438.922541 L245.433286,426.187091 L277.611478,456.287793 L288.17497,466.545795 L290.920979,463.717865 L280.329745,453.433445 Z" id="Fill-11" fill="#3A3A3A"></path>
                            <path d="M184.639748,649.140789 L218.168119,680.449455 L219.536139,681.726886 L220.882445,680.426589 L235.315477,666.486791 L235.539074,666.229931 C237.411933,663.66005 237.261193,660.170657 235.150749,657.76532 L221.783535,646.016641 L224.678539,648.768904 L207.690125,632.285542 C206.804187,631.269136 206.835984,629.618854 207.87604,628.540107 L246.070782,591.637215 L247.534354,590.22308 L246.074012,588.805609 L228.696949,571.938675 L227.327445,570.609375 L225.954827,571.935458 L174.068299,622.062902 C169.278717,626.689468 169.26967,634.226031 174.048043,638.855849 L176.79096,636.024921 C173.613349,632.946099 173.619314,627.9771 176.807002,624.897907 L227.327447,575.980777 L242.079479,590.223079 L205.087701,625.754781 C202.570097,628.364259 202.493552,632.336895 204.837871,635.001819 L216.08681,646.262767 L232.36953,660.546777 C233.079638,661.381521 233.142051,662.826296 232.353477,663.908355 L232.577074,663.651495 L219.536141,676.365167 L187.357881,646.286314 L176.79251,636.026424 L174.046493,638.854346 L184.639748,649.140789 Z" id="Fill-10" fill="#3A3A3A"></path>
                            <path d="M280.329745,643.433445 L246.801518,612.118844 L245.433287,610.840968 L244.086844,612.141781 L229.65179,626.087649 L229.429636,626.342614 C227.554845,628.90941 227.706502,632.399897 229.818853,634.807015 L243.1837,646.557385 L240.136356,643.655684 L243.06482,646.496669 L257.277454,660.284751 C258.165855,661.302435 258.132689,662.950035 257.087447,664.034073 L218.898642,700.935071 L217.435307,702.349124 L218.8954,703.766524 L236.272464,720.63548 L237.6422,721.965165 L239.014909,720.638549 L280.277851,680.761137 L290.900414,670.510071 C295.687691,665.88347 295.696739,658.34515 290.919433,653.716366 L288.176516,656.547294 C291.353175,659.625194 291.347208,664.596483 288.162149,667.674642 L277.539598,677.925697 L237.6422,716.571482 L223.158857,702.349125 L259.875804,666.819385 C262.397866,664.205487 262.477808,660.234085 260.128726,657.567375 L245.809513,643.667463 L232.600209,632.02565 C231.888271,631.189049 231.825545,629.745366 232.612765,628.667575 L232.390611,628.922541 L245.433286,616.187091 L277.611478,646.287793 L288.17497,656.545795 L290.920979,653.717865 L280.329745,643.433445 Z" id="Fill-11" fill="#3A3A3A"></path>
                            <path d="M184.639748,269.140789 L218.168119,300.449455 L219.536139,301.726886 L220.882445,300.426589 L235.315477,286.486791 L235.539074,286.229931 C237.411933,283.66005 237.261193,280.170657 235.150749,277.76532 L221.783535,266.016641 L224.678539,268.768904 L207.690125,252.285542 C206.804187,251.269136 206.835984,249.618854 207.87604,248.540107 L246.070782,211.637215 L247.534354,210.22308 L246.074012,208.805609 L228.696949,191.938675 L227.327445,190.609375 L225.954827,191.935458 L174.068299,242.062902 C169.278717,246.689468 169.26967,254.226031 174.048043,258.855849 L176.79096,256.024921 C173.613349,252.946099 173.619314,247.9771 176.807002,244.897907 L227.327447,195.980777 L242.079479,210.223079 L205.087701,245.754781 C202.570097,248.364259 202.493552,252.336895 204.837871,255.001819 L216.08681,266.262767 L232.36953,280.546777 C233.079638,281.381521 233.142051,282.826296 232.353477,283.908355 L232.577074,283.651495 L219.536141,296.365167 L187.357881,266.286314 L176.79251,256.026424 L174.046493,258.854346 L184.639748,269.140789 Z" id="Fill-10" fill="#3A3A3A"></path>
                            <path d="M280.329745,263.433445 L246.801518,232.118844 L245.433287,230.840968 L244.086844,232.141781 L229.65179,246.087649 L229.429636,246.342614 C227.554845,248.90941 227.706502,252.399897 229.818853,254.807015 L243.1837,266.557385 L240.136356,263.655684 L243.06482,266.496669 L257.277454,280.284751 C258.165855,281.302435 258.132689,282.950035 257.087447,284.034073 L218.898642,320.935071 L217.435307,322.349124 L218.8954,323.766524 L236.272464,340.63548 L237.6422,341.965165 L239.014909,340.638549 L280.277851,300.761137 L290.900414,290.510071 C295.687691,285.88347 295.696739,278.34515 290.919433,273.716366 L288.176516,276.547294 C291.353175,279.625194 291.347208,284.596483 288.162149,287.674642 L277.539598,297.925697 L237.6422,336.571482 L223.158857,322.349125 L259.875804,286.819385 C262.397866,284.205487 262.477808,280.234085 260.128726,277.567375 L245.809513,263.667463 L232.600209,252.02565 C231.888271,251.189049 231.825545,249.745366 232.612765,248.667575 L232.390611,248.922541 L245.433286,236.187091 L277.611478,266.287793 L288.17497,276.545795 L290.920979,273.717865 L280.329745,263.433445 Z" id="Fill-11" fill="#3A3A3A"></path>
                            <path d="M184.639748,79.1407886 L218.168119,110.449455 L219.536139,111.726886 L220.882445,110.426589 L235.315477,96.4867907 L235.539074,96.2299311 C237.411933,93.6600505 237.261193,90.1706567 235.150749,87.7653197 L221.783535,76.0166413 L224.678539,78.7689035 L207.690125,62.2855417 C206.804187,61.2691356 206.835984,59.6188537 207.87604,58.5401067 L246.070782,21.6372151 L247.534354,20.2230797 L246.074012,18.8056088 L228.696949,1.93867493 L227.327445,0.609375 L225.954827,1.93545834 L174.068299,52.0629016 C169.278717,56.6894676 169.26967,64.2260313 174.048043,68.8558491 L176.79096,66.0249208 C173.613349,62.9460988 173.619314,57.9771004 176.807002,54.8979072 L227.327447,5.9807775 L242.079479,20.2230792 L205.087701,55.7547812 C202.570097,58.3642591 202.493552,62.3368947 204.837871,65.0018192 L216.08681,76.2627673 L232.36953,90.5467766 C233.079638,91.3815207 233.142051,92.8262961 232.353477,93.9083545 L232.577074,93.6514949 L219.536141,106.365167 L187.357881,76.2863141 L176.79251,66.026424 L174.046493,68.8543459 L184.639748,79.1407886 Z" id="Fill-10" fill="#3A3A3A"></path>
                            <path d="M280.329745,73.433445 L246.801518,42.118844 L245.433287,40.8409681 L244.086844,42.1417814 L229.65179,56.0876488 L229.429636,56.3426142 C227.554845,58.90941 227.706502,62.3998965 229.818853,64.8070149 L243.1837,76.5573848 L240.136356,73.6556837 L243.06482,76.4966694 L257.277454,90.2847507 C258.165855,91.3024346 258.132689,92.9500354 257.087447,94.0340733 L218.898642,130.935071 L217.435307,132.349124 L218.8954,133.766524 L236.272464,150.63548 L237.6422,151.965165 L239.014909,150.638549 L280.277851,110.761137 L290.900414,100.510071 C295.687691,95.8834697 295.696739,88.3451498 290.919433,83.7163655 L288.176516,86.5472939 C291.353175,89.6251941 291.347208,94.5964833 288.162149,97.6746422 L277.539598,107.925697 L237.6422,146.571482 L223.158857,132.349125 L259.875804,96.8193853 C262.397866,94.205487 262.477808,90.234085 260.128726,87.5673747 L245.809513,73.6674631 L232.600209,62.0256496 C231.888271,61.1890491 231.825545,59.7453658 232.612765,58.6675752 L232.390611,58.9225407 L245.433286,46.1870908 L277.611478,76.2877933 L288.17497,86.5457947 L290.920979,83.7178648 L280.329745,73.433445 Z" id="Fill-11" fill="#3A3A3A"></path>
                            <path d="M374.639748,529.531414 L408.168119,560.84008 L409.536139,562.117511 L410.882445,560.817214 L425.315477,546.877416 L425.539074,546.620556 C427.411933,544.050675 427.261193,540.561282 425.150749,538.155945 L411.783535,526.407266 L414.678539,529.159529 L397.690125,512.676167 C396.804187,511.659761 396.835984,510.009479 397.87604,508.930732 L436.070782,472.02784 L437.534354,470.613705 L436.074012,469.196234 L418.696949,452.3293 L417.327445,451 L415.954827,452.326083 L364.068299,502.453527 C359.278717,507.080093 359.26967,514.616656 364.048043,519.246474 L366.79096,516.415546 C363.613349,513.336724 363.619314,508.367725 366.807002,505.288532 L417.327447,456.371402 L432.079479,470.613704 L395.087701,506.145406 C392.570097,508.754884 392.493552,512.72752 394.837871,515.392444 L406.08681,526.653392 L422.36953,540.937402 C423.079638,541.772146 423.142051,543.216921 422.353477,544.29898 L422.577074,544.04212 L409.536141,556.755792 L377.357881,526.676939 L366.79251,516.417049 L364.046493,519.244971 L374.639748,529.531414 Z" id="Fill-10" fill="#3A3A3A"></path>
                            <path d="M470.329745,523.82407 L436.801518,492.509469 L435.433287,491.231593 L434.086844,492.532406 L419.65179,506.478274 L419.429636,506.733239 C417.554845,509.300035 417.706502,512.790522 419.818853,515.19764 L433.1837,526.94801 L430.136356,524.046309 L433.06482,526.887294 L447.277454,540.675376 C448.165855,541.69306 448.132689,543.34066 447.087447,544.424698 L408.898642,581.325696 L407.435307,582.739749 L408.8954,584.157149 L426.272464,601.026105 L427.6422,602.35579 L429.014909,601.029174 L470.277851,561.151762 L480.900414,550.900696 C485.687691,546.274095 485.696739,538.735775 480.919433,534.106991 L478.176516,536.937919 C481.353175,540.015819 481.347208,544.987108 478.162149,548.065267 L467.539598,558.316322 L427.6422,596.962107 L413.158857,582.73975 L449.875804,547.21001 C452.397866,544.596112 452.477808,540.62471 450.128726,537.958 L435.809513,524.058088 L422.600209,512.416275 C421.888271,511.579674 421.825545,510.135991 422.612765,509.0582 L422.390611,509.313166 L435.433286,496.577716 L467.611478,526.678418 L478.17497,536.93642 L480.920979,534.10849 L470.329745,523.82407 Z" id="Fill-11" fill="#3A3A3A"></path>
                            <path d="M374.639748,339.531414 L408.168119,370.84008 L409.536139,372.117511 L410.882445,370.817214 L425.315477,356.877416 L425.539074,356.620556 C427.411933,354.050675 427.261193,350.561282 425.150749,348.155945 L411.783535,336.407266 L414.678539,339.159529 L397.690125,322.676167 C396.804187,321.659761 396.835984,320.009479 397.87604,318.930732 L436.070782,282.02784 L437.534354,280.613705 L436.074012,279.196234 L418.696949,262.3293 L417.327445,261 L415.954827,262.326083 L364.068299,312.453527 C359.278717,317.080093 359.26967,324.616656 364.048043,329.246474 L366.79096,326.415546 C363.613349,323.336724 363.619314,318.367725 366.807002,315.288532 L417.327447,266.371402 L432.079479,280.613704 L395.087701,316.145406 C392.570097,318.754884 392.493552,322.72752 394.837871,325.392444 L406.08681,336.653392 L422.36953,350.937402 C423.079638,351.772146 423.142051,353.216921 422.353477,354.29898 L422.577074,354.04212 L409.536141,366.755792 L377.357881,336.676939 L366.79251,326.417049 L364.046493,329.244971 L374.639748,339.531414 Z" id="Fill-10" fill="#3A3A3A"></path>
                            <path d="M470.329745,333.82407 L436.801518,302.509469 L435.433287,301.231593 L434.086844,302.532406 L419.65179,316.478274 L419.429636,316.733239 C417.554845,319.300035 417.706502,322.790522 419.818853,325.19764 L433.1837,336.94801 L430.136356,334.046309 L433.06482,336.887294 L447.277454,350.675376 C448.165855,351.69306 448.132689,353.34066 447.087447,354.424698 L408.898642,391.325696 L407.435307,392.739749 L408.8954,394.157149 L426.272464,411.026105 L427.6422,412.35579 L429.014909,411.029174 L470.277851,371.151762 L480.900414,360.900696 C485.687691,356.274095 485.696739,348.735775 480.919433,344.106991 L478.176516,346.937919 C481.353175,350.015819 481.347208,354.987108 478.162149,358.065267 L467.539598,368.316322 L427.6422,406.962107 L413.158857,392.73975 L449.875804,357.21001 C452.397866,354.596112 452.477808,350.62471 450.128726,347.958 L435.809513,334.058088 L422.600209,322.416275 C421.888271,321.579674 421.825545,320.135991 422.612765,319.0582 L422.390611,319.313166 L435.433286,306.577716 L467.611478,336.678418 L478.17497,346.93642 L480.920979,344.10849 L470.329745,333.82407 Z" id="Fill-11" fill="#3A3A3A"></path>
                            <path d="M374.639748,149.531414 L408.168119,180.84008 L409.536139,182.117511 L410.882445,180.817214 L425.315477,166.877416 L425.539074,166.620556 C427.411933,164.050675 427.261193,160.561282 425.150749,158.155945 L411.783535,146.407266 L414.678539,149.159529 L397.690125,132.676167 C396.804187,131.659761 396.835984,130.009479 397.87604,128.930732 L436.070782,92.0278401 L437.534354,90.6137047 L436.074012,89.1962338 L418.696949,72.3292999 L417.327445,71 L415.954827,72.3260833 L364.068299,122.453527 C359.278717,127.080093 359.26967,134.616656 364.048043,139.246474 L366.79096,136.415546 C363.613349,133.336724 363.619314,128.367725 366.807002,125.288532 L417.327447,76.3714025 L432.079479,90.6137042 L395.087701,126.145406 C392.570097,128.754884 392.493552,132.72752 394.837871,135.392444 L406.08681,146.653392 L422.36953,160.937402 C423.079638,161.772146 423.142051,163.216921 422.353477,164.29898 L422.577074,164.04212 L409.536141,176.755792 L377.357881,146.676939 L366.79251,136.417049 L364.046493,139.244971 L374.639748,149.531414 Z" id="Fill-10" fill="#3A3A3A"></path>
                            <path d="M470.329745,143.82407 L436.801518,112.509469 L435.433287,111.231593 L434.086844,112.532406 L419.65179,126.478274 L419.429636,126.733239 C417.554845,129.300035 417.706502,132.790522 419.818853,135.19764 L433.1837,146.94801 L430.136356,144.046309 L433.06482,146.887294 L447.277454,160.675376 C448.165855,161.69306 448.132689,163.34066 447.087447,164.424698 L408.898642,201.325696 L407.435307,202.739749 L408.8954,204.157149 L426.272464,221.026105 L427.6422,222.35579 L429.014909,221.029174 L470.277851,181.151762 L480.900414,170.900696 C485.687691,166.274095 485.696739,158.735775 480.919433,154.106991 L478.176516,156.937919 C481.353175,160.015819 481.347208,164.987108 478.162149,168.065267 L467.539598,178.316322 L427.6422,216.962107 L413.158857,202.73975 L449.875804,167.21001 C452.397866,164.596112 452.477808,160.62471 450.128726,157.958 L435.809513,144.058088 L422.600209,132.416275 C421.888271,131.579674 421.825545,130.135991 422.612765,129.0582 L422.390611,129.313166 L435.433286,116.577716 L467.611478,146.678418 L478.17497,156.93642 L480.920979,154.10849 L470.329745,143.82407 Z" id="Fill-11" fill="#3A3A3A"></path>
                            <path d="M544.639748,459.531414 L578.168119,490.84008 L579.536139,492.117511 L580.882445,490.817214 L595.315477,476.877416 L595.539074,476.620556 C597.411933,474.050675 597.261193,470.561282 595.150749,468.155945 L581.783535,456.407266 L584.678539,459.159529 L567.690125,442.676167 C566.804187,441.659761 566.835984,440.009479 567.87604,438.930732 L606.070782,402.02784 L607.534354,400.613705 L606.074012,399.196234 L588.696949,382.3293 L587.327445,381 L585.954827,382.326083 L534.068299,432.453527 C529.278717,437.080093 529.26967,444.616656 534.048043,449.246474 L536.79096,446.415546 C533.613349,443.336724 533.619314,438.367725 536.807002,435.288532 L587.327447,386.371402 L602.079479,400.613704 L565.087701,436.145406 C562.570097,438.754884 562.493552,442.72752 564.837871,445.392444 L576.08681,456.653392 L592.36953,470.937402 C593.079638,471.772146 593.142051,473.216921 592.353477,474.29898 L592.577074,474.04212 L579.536141,486.755792 L547.357881,456.676939 L536.79251,446.417049 L534.046493,449.244971 L544.639748,459.531414 Z" id="Fill-10" fill="#3A3A3A"></path>
                            <path d="M640.329745,453.82407 L606.801518,422.509469 L605.433287,421.231593 L604.086844,422.532406 L589.65179,436.478274 L589.429636,436.733239 C587.554845,439.300035 587.706502,442.790522 589.818853,445.19764 L603.1837,456.94801 L600.136356,454.046309 L603.06482,456.887294 L617.277454,470.675376 C618.165855,471.69306 618.132689,473.34066 617.087447,474.424698 L578.898642,511.325696 L577.435307,512.739749 L578.8954,514.157149 L596.272464,531.026105 L597.6422,532.35579 L599.014909,531.029174 L640.277851,491.151762 L650.900414,480.900696 C655.687691,476.274095 655.696739,468.735775 650.919433,464.106991 L648.176516,466.937919 C651.353175,470.015819 651.347208,474.987108 648.162149,478.065267 L637.539598,488.316322 L597.6422,526.962107 L583.158857,512.73975 L619.875804,477.21001 C622.397866,474.596112 622.477808,470.62471 620.128726,467.958 L605.809513,454.058088 L592.600209,442.416275 C591.888271,441.579674 591.825545,440.135991 592.612765,439.0582 L592.390611,439.313166 L605.433286,426.577716 L637.611478,456.678418 L648.17497,466.93642 L650.920979,464.10849 L640.329745,453.82407 Z" id="Fill-11" fill="#3A3A3A"></path>
                            <path d="M544.639748,269.531414 L578.168119,300.84008 L579.536139,302.117511 L580.882445,300.817214 L595.315477,286.877416 L595.539074,286.620556 C597.411933,284.050675 597.261193,280.561282 595.150749,278.155945 L581.783535,266.407266 L584.678539,269.159529 L567.690125,252.676167 C566.804187,251.659761 566.835984,250.009479 567.87604,248.930732 L606.070782,212.02784 L607.534354,210.613705 L606.074012,209.196234 L588.696949,192.3293 L587.327445,191 L585.954827,192.326083 L534.068299,242.453527 C529.278717,247.080093 529.26967,254.616656 534.048043,259.246474 L536.79096,256.415546 C533.613349,253.336724 533.619314,248.367725 536.807002,245.288532 L587.327447,196.371402 L602.079479,210.613704 L565.087701,246.145406 C562.570097,248.754884 562.493552,252.72752 564.837871,255.392444 L576.08681,266.653392 L592.36953,280.937402 C593.079638,281.772146 593.142051,283.216921 592.353477,284.29898 L592.577074,284.04212 L579.536141,296.755792 L547.357881,266.676939 L536.79251,256.417049 L534.046493,259.244971 L544.639748,269.531414 Z" id="Fill-10" fill="#3A3A3A"></path>
                            <path d="M640.329745,263.82407 L606.801518,232.509469 L605.433287,231.231593 L604.086844,232.532406 L589.65179,246.478274 L589.429636,246.733239 C587.554845,249.300035 587.706502,252.790522 589.818853,255.19764 L603.1837,266.94801 L600.136356,264.046309 L603.06482,266.887294 L617.277454,280.675376 C618.165855,281.69306 618.132689,283.34066 617.087447,284.424698 L578.898642,321.325696 L577.435307,322.739749 L578.8954,324.157149 L596.272464,341.026105 L597.6422,342.35579 L599.014909,341.029174 L640.277851,301.151762 L650.900414,290.900696 C655.687691,286.274095 655.696739,278.735775 650.919433,274.106991 L648.176516,276.937919 C651.353175,280.015819 651.347208,284.987108 648.162149,288.065267 L637.539598,298.316322 L597.6422,336.962107 L583.158857,322.73975 L619.875804,287.21001 C622.397866,284.596112 622.477808,280.62471 620.128726,277.958 L605.809513,264.058088 L592.600209,252.416275 C591.888271,251.579674 591.825545,250.135991 592.612765,249.0582 L592.390611,249.313166 L605.433286,236.577716 L637.611478,266.678418 L648.17497,276.93642 L650.920979,274.10849 L640.329745,263.82407 Z" id="Fill-11" fill="#3A3A3A"></path>
                            <path d="M544.639748,79.5314136 L578.168119,110.84008 L579.536139,112.117511 L580.882445,110.817214 L595.315477,96.8774157 L595.539074,96.6205561 C597.411933,94.0506755 597.261193,90.5612817 595.150749,88.1559447 L581.783535,76.4072663 L584.678539,79.1595285 L567.690125,62.6761667 C566.804187,61.6597606 566.835984,60.0094787 567.87604,58.9307317 L606.070782,22.0278401 L607.534354,20.6137047 L606.074012,19.1962338 L588.696949,2.32929993 L587.327445,1 L585.954827,2.32608334 L534.068299,52.4535266 C529.278717,57.0800926 529.26967,64.6166563 534.048043,69.2464741 L536.79096,66.4155458 C533.613349,63.3367238 533.619314,58.3677254 536.807002,55.2885322 L587.327447,6.3714025 L602.079479,20.6137042 L565.087701,56.1454062 C562.570097,58.7548841 562.493552,62.7275197 564.837871,65.3924442 L576.08681,76.6533923 L592.36953,90.9374016 C593.079638,91.7721457 593.142051,93.2169211 592.353477,94.2989795 L592.577074,94.0421199 L579.536141,106.755792 L547.357881,76.6769391 L536.79251,66.417049 L534.046493,69.2449709 L544.639748,79.5314136 Z" id="Fill-10" fill="#3A3A3A"></path>
                            <path d="M640.329745,73.82407 L606.801518,42.509469 L605.433287,41.2315931 L604.086844,42.5324064 L589.65179,56.4782738 L589.429636,56.7332392 C587.554845,59.300035 587.706502,62.7905215 589.818853,65.1976399 L603.1837,76.9480098 L600.136356,74.0463087 L603.06482,76.8872944 L617.277454,90.6753757 C618.165855,91.6930596 618.132689,93.3406604 617.087447,94.4246983 L578.898642,131.325696 L577.435307,132.739749 L578.8954,134.157149 L596.272464,151.026105 L597.6422,152.35579 L599.014909,151.029174 L640.277851,111.151762 L650.900414,100.900696 C655.687691,96.2740947 655.696739,88.7357748 650.919433,84.1069905 L648.176516,86.9379189 C651.353175,90.0158191 651.347208,94.9871083 648.162149,98.0652672 L637.539598,108.316322 L597.6422,146.962107 L583.158857,132.73975 L619.875804,97.2100103 C622.397866,94.596112 622.477808,90.62471 620.128726,87.9579997 L605.809513,74.0580881 L592.600209,62.4162746 C591.888271,61.5796741 591.825545,60.1359908 592.612765,59.0582002 L592.390611,59.3131657 L605.433286,46.5777158 L637.611478,76.6784183 L648.17497,86.9364197 L650.920979,84.1084898 L640.329745,73.82407 Z" id="Fill-11" fill="#3A3A3A"></path>
                            <path d="M544.639748,649.531414 L578.168119,680.84008 L579.536139,682.117511 L580.882445,680.817214 L595.315477,666.877416 L595.539074,666.620556 C597.411933,664.050675 597.261193,660.561282 595.150749,658.155945 L581.783535,646.407266 L584.678539,649.159529 L567.690125,632.676167 C566.804187,631.659761 566.835984,630.009479 567.87604,628.930732 L606.070782,592.02784 L607.534354,590.613705 L606.074012,589.196234 L588.696949,572.3293 L587.327445,571 L585.954827,572.326083 L534.068299,622.453527 C529.278717,627.080093 529.26967,634.616656 534.048043,639.246474 L536.79096,636.415546 C533.613349,633.336724 533.619314,628.367725 536.807002,625.288532 L587.327447,576.371402 L602.079479,590.613704 L565.087701,626.145406 C562.570097,628.754884 562.493552,632.72752 564.837871,635.392444 L576.08681,646.653392 L592.36953,660.937402 C593.079638,661.772146 593.142051,663.216921 592.353477,664.29898 L592.577074,664.04212 L579.536141,676.755792 L547.357881,646.676939 L536.79251,636.417049 L534.046493,639.244971 L544.639748,649.531414 Z" id="Fill-10" fill="#3A3A3A"></path>
                            <path d="M640.329745,643.82407 L606.801518,612.509469 L605.433287,611.231593 L604.086844,612.532406 L589.65179,626.478274 L589.429636,626.733239 C587.554845,629.300035 587.706502,632.790522 589.818853,635.19764 L603.1837,646.94801 L600.136356,644.046309 L603.06482,646.887294 L617.277454,660.675376 C618.165855,661.69306 618.132689,663.34066 617.087447,664.424698 L578.898642,701.325696 L577.435307,702.739749 L578.8954,704.157149 L596.272464,721.026105 L597.6422,722.35579 L599.014909,721.029174 L640.277851,681.151762 L650.900414,670.900696 C655.687691,666.274095 655.696739,658.735775 650.919433,654.106991 L648.176516,656.937919 C651.353175,660.015819 651.347208,664.987108 648.162149,668.065267 L637.539598,678.316322 L597.6422,716.962107 L583.158857,702.73975 L619.875804,667.21001 C622.397866,664.596112 622.477808,660.62471 620.128726,657.958 L605.809513,644.058088 L592.600209,632.416275 C591.888271,631.579674 591.825545,630.135991 592.612765,629.0582 L592.390611,629.313166 L605.433286,616.577716 L637.611478,646.678418 L648.17497,656.93642 L650.920979,654.10849 L640.329745,643.82407 Z" id="Fill-11" fill="#3A3A3A"></path>
                        </g>
                        <g transform="translate(720.000000, 1.000000)">
                            <path d="M14.6397481,529.140789 L48.1681194,560.449455 L49.5361395,561.726886 L50.8824447,560.426589 L65.3154767,546.486791 L65.5390743,546.229931 C67.4119331,543.66005 67.2611931,540.170657 65.1507495,537.76532 L51.783535,526.016641 L54.6785389,528.768904 L37.6901255,512.285542 C36.8041865,511.269136 36.8359842,509.618854 37.8760403,508.540107 L76.0707823,471.637215 L77.5343538,470.22308 L76.0740125,468.805609 L58.6969492,451.938675 L57.3274455,450.609375 L55.9548269,451.935458 L4.0682991,502.062902 C-0.721283316,506.689468 -0.730330407,514.226031 4.04804275,518.855849 L6.79096011,516.024921 C3.6133491,512.946099 3.61931402,507.9771 6.80700217,504.897907 L57.3274465,455.980777 L72.0794788,470.223079 L35.0877011,505.754781 C32.5700972,508.364259 32.4935524,512.336895 34.837871,515.001819 L46.0868097,526.262767 L62.3695296,540.546777 C63.0796376,541.381521 63.1420512,542.826296 62.3534765,543.908355 L62.5770741,543.651495 L49.5361413,556.365167 L17.3578805,526.286314 L6.79250986,516.026424 L4.046493,518.854346 L14.6397481,529.140789 Z" id="Fill-10" fill="#3A3A3A"></path>
                            <path d="M110.329745,523.433445 L76.8015176,492.118844 L75.4332865,490.840968 L74.0868439,492.141781 L59.6517898,506.087649 L59.4296359,506.342614 C57.5548452,508.90941 57.7065017,512.399897 59.8188535,514.807015 L73.1836996,526.557385 L70.1363564,523.655684 L73.0648197,526.496669 L87.2774538,540.284751 C88.1658546,541.302435 88.132689,542.950035 87.0874468,544.034073 L48.8986417,580.935071 L47.4353074,582.349124 L48.8954004,583.766524 L66.2724637,600.63548 L67.6421998,601.965165 L69.0149086,600.638549 L110.277851,560.761137 L120.900414,550.510071 C125.687691,545.88347 125.696739,538.34515 120.919433,533.716366 L118.176516,536.547294 C121.353175,539.625194 121.347208,544.596483 118.162149,547.674642 L107.539598,557.925697 L67.6421997,596.571482 L53.1588572,582.349125 L89.8758041,546.819385 C92.3978656,544.205487 92.4778084,540.234085 90.1287262,537.567375 L75.8095133,523.667463 L62.6002091,512.02565 C61.8882709,511.189049 61.8255449,509.745366 62.6127645,508.667575 L62.3906106,508.922541 L75.4332864,496.187091 L107.611478,526.287793 L118.17497,536.545795 L120.920979,533.717865 L110.329745,523.433445 Z" id="Fill-11" fill="#3A3A3A"></path>
                            <path d="M14.6397481,339.140789 L48.1681194,370.449455 L49.5361395,371.726886 L50.8824447,370.426589 L65.3154767,356.486791 L65.5390743,356.229931 C67.4119331,353.66005 67.2611931,350.170657 65.1507495,347.76532 L51.783535,336.016641 L54.6785389,338.768904 L37.6901255,322.285542 C36.8041865,321.269136 36.8359842,319.618854 37.8760403,318.540107 L76.0707823,281.637215 L77.5343538,280.22308 L76.0740125,278.805609 L58.6969492,261.938675 L57.3274455,260.609375 L55.9548269,261.935458 L4.0682991,312.062902 C-0.721283316,316.689468 -0.730330407,324.226031 4.04804275,328.855849 L6.79096011,326.024921 C3.6133491,322.946099 3.61931402,317.9771 6.80700217,314.897907 L57.3274465,265.980777 L72.0794788,280.223079 L35.0877011,315.754781 C32.5700972,318.364259 32.4935524,322.336895 34.837871,325.001819 L46.0868097,336.262767 L62.3695296,350.546777 C63.0796376,351.381521 63.1420512,352.826296 62.3534765,353.908355 L62.5770741,353.651495 L49.5361413,366.365167 L17.3578805,336.286314 L6.79250986,326.026424 L4.046493,328.854346 L14.6397481,339.140789 Z" id="Fill-10" fill="#3A3A3A"></path>
                            <path d="M110.329745,333.433445 L76.8015176,302.118844 L75.4332865,300.840968 L74.0868439,302.141781 L59.6517898,316.087649 L59.4296359,316.342614 C57.5548452,318.90941 57.7065017,322.399897 59.8188535,324.807015 L73.1836996,336.557385 L70.1363564,333.655684 L73.0648197,336.496669 L87.2774538,350.284751 C88.1658546,351.302435 88.132689,352.950035 87.0874468,354.034073 L48.8986417,390.935071 L47.4353074,392.349124 L48.8954004,393.766524 L66.2724637,410.63548 L67.6421998,411.965165 L69.0149086,410.638549 L110.277851,370.761137 L120.900414,360.510071 C125.687691,355.88347 125.696739,348.34515 120.919433,343.716366 L118.176516,346.547294 C121.353175,349.625194 121.347208,354.596483 118.162149,357.674642 L107.539598,367.925697 L67.6421997,406.571482 L53.1588572,392.349125 L89.8758041,356.819385 C92.3978656,354.205487 92.4778084,350.234085 90.1287262,347.567375 L75.8095133,333.667463 L62.6002091,322.02565 C61.8882709,321.189049 61.8255449,319.745366 62.6127645,318.667575 L62.3906106,318.922541 L75.4332864,306.187091 L107.611478,336.287793 L118.17497,346.545795 L120.920979,343.717865 L110.329745,333.433445 Z" id="Fill-11" fill="#3A3A3A"></path>
                            <path d="M14.6397481,149.140789 L48.1681194,180.449455 L49.5361395,181.726886 L50.8824447,180.426589 L65.3154767,166.486791 L65.5390743,166.229931 C67.4119331,163.66005 67.2611931,160.170657 65.1507495,157.76532 L51.783535,146.016641 L54.6785389,148.768904 L37.6901255,132.285542 C36.8041865,131.269136 36.8359842,129.618854 37.8760403,128.540107 L76.0707823,91.6372151 L77.5343538,90.2230797 L76.0740125,88.8056088 L58.6969492,71.9386749 L57.3274455,70.609375 L55.9548269,71.9354583 L4.0682991,122.062902 C-0.721283316,126.689468 -0.730330407,134.226031 4.04804275,138.855849 L6.79096011,136.024921 C3.6133491,132.946099 3.61931402,127.9771 6.80700217,124.897907 L57.3274465,75.9807775 L72.0794788,90.2230792 L35.0877011,125.754781 C32.5700972,128.364259 32.4935524,132.336895 34.837871,135.001819 L46.0868097,146.262767 L62.3695296,160.546777 C63.0796376,161.381521 63.1420512,162.826296 62.3534765,163.908355 L62.5770741,163.651495 L49.5361413,176.365167 L17.3578805,146.286314 L6.79250986,136.026424 L4.046493,138.854346 L14.6397481,149.140789 Z" id="Fill-10" fill="#3A3A3A"></path>
                            <path d="M110.329745,143.433445 L76.8015176,112.118844 L75.4332865,110.840968 L74.0868439,112.141781 L59.6517898,126.087649 L59.4296359,126.342614 C57.5548452,128.90941 57.7065017,132.399897 59.8188535,134.807015 L73.1836996,146.557385 L70.1363564,143.655684 L73.0648197,146.496669 L87.2774538,160.284751 C88.1658546,161.302435 88.132689,162.950035 87.0874468,164.034073 L48.8986417,200.935071 L47.4353074,202.349124 L48.8954004,203.766524 L66.2724637,220.63548 L67.6421998,221.965165 L69.0149086,220.638549 L110.277851,180.761137 L120.900414,170.510071 C125.687691,165.88347 125.696739,158.34515 120.919433,153.716366 L118.176516,156.547294 C121.353175,159.625194 121.347208,164.596483 118.162149,167.674642 L107.539598,177.925697 L67.6421997,216.571482 L53.1588572,202.349125 L89.8758041,166.819385 C92.3978656,164.205487 92.4778084,160.234085 90.1287262,157.567375 L75.8095133,143.667463 L62.6002091,132.02565 C61.8882709,131.189049 61.8255449,129.745366 62.6127645,128.667575 L62.3906106,128.922541 L75.4332864,116.187091 L107.611478,146.287793 L118.17497,156.545795 L120.920979,153.717865 L110.329745,143.433445 Z" id="Fill-11" fill="#3A3A3A"></path>
                            <path d="M184.639748,459.140789 L218.168119,490.449455 L219.536139,491.726886 L220.882445,490.426589 L235.315477,476.486791 L235.539074,476.229931 C237.411933,473.66005 237.261193,470.170657 235.150749,467.76532 L221.783535,456.016641 L224.678539,458.768904 L207.690125,442.285542 C206.804187,441.269136 206.835984,439.618854 207.87604,438.540107 L246.070782,401.637215 L247.534354,400.22308 L246.074012,398.805609 L228.696949,381.938675 L227.327445,380.609375 L225.954827,381.935458 L174.068299,432.062902 C169.278717,436.689468 169.26967,444.226031 174.048043,448.855849 L176.79096,446.024921 C173.613349,442.946099 173.619314,437.9771 176.807002,434.897907 L227.327447,385.980777 L242.079479,400.223079 L205.087701,435.754781 C202.570097,438.364259 202.493552,442.336895 204.837871,445.001819 L216.08681,456.262767 L232.36953,470.546777 C233.079638,471.381521 233.142051,472.826296 232.353477,473.908355 L232.577074,473.651495 L219.536141,486.365167 L187.357881,456.286314 L176.79251,446.026424 L174.046493,448.854346 L184.639748,459.140789 Z" id="Fill-10" fill="#3A3A3A"></path>
                            <path d="M280.329745,453.433445 L246.801518,422.118844 L245.433287,420.840968 L244.086844,422.141781 L229.65179,436.087649 L229.429636,436.342614 C227.554845,438.90941 227.706502,442.399897 229.818853,444.807015 L243.1837,456.557385 L240.136356,453.655684 L243.06482,456.496669 L257.277454,470.284751 C258.165855,471.302435 258.132689,472.950035 257.087447,474.034073 L218.898642,510.935071 L217.435307,512.349124 L218.8954,513.766524 L236.272464,530.63548 L237.6422,531.965165 L239.014909,530.638549 L280.277851,490.761137 L290.900414,480.510071 C295.687691,475.88347 295.696739,468.34515 290.919433,463.716366 L288.176516,466.547294 C291.353175,469.625194 291.347208,474.596483 288.162149,477.674642 L277.539598,487.925697 L237.6422,526.571482 L223.158857,512.349125 L259.875804,476.819385 C262.397866,474.205487 262.477808,470.234085 260.128726,467.567375 L245.809513,453.667463 L232.600209,442.02565 C231.888271,441.189049 231.825545,439.745366 232.612765,438.667575 L232.390611,438.922541 L245.433286,426.187091 L277.611478,456.287793 L288.17497,466.545795 L290.920979,463.717865 L280.329745,453.433445 Z" id="Fill-11" fill="#3A3A3A"></path>
                            <path d="M184.639748,649.140789 L218.168119,680.449455 L219.536139,681.726886 L220.882445,680.426589 L235.315477,666.486791 L235.539074,666.229931 C237.411933,663.66005 237.261193,660.170657 235.150749,657.76532 L221.783535,646.016641 L224.678539,648.768904 L207.690125,632.285542 C206.804187,631.269136 206.835984,629.618854 207.87604,628.540107 L246.070782,591.637215 L247.534354,590.22308 L246.074012,588.805609 L228.696949,571.938675 L227.327445,570.609375 L225.954827,571.935458 L174.068299,622.062902 C169.278717,626.689468 169.26967,634.226031 174.048043,638.855849 L176.79096,636.024921 C173.613349,632.946099 173.619314,627.9771 176.807002,624.897907 L227.327447,575.980777 L242.079479,590.223079 L205.087701,625.754781 C202.570097,628.364259 202.493552,632.336895 204.837871,635.001819 L216.08681,646.262767 L232.36953,660.546777 C233.079638,661.381521 233.142051,662.826296 232.353477,663.908355 L232.577074,663.651495 L219.536141,676.365167 L187.357881,646.286314 L176.79251,636.026424 L174.046493,638.854346 L184.639748,649.140789 Z" id="Fill-10" fill="#3A3A3A"></path>
                            <path d="M280.329745,643.433445 L246.801518,612.118844 L245.433287,610.840968 L244.086844,612.141781 L229.65179,626.087649 L229.429636,626.342614 C227.554845,628.90941 227.706502,632.399897 229.818853,634.807015 L243.1837,646.557385 L240.136356,643.655684 L243.06482,646.496669 L257.277454,660.284751 C258.165855,661.302435 258.132689,662.950035 257.087447,664.034073 L218.898642,700.935071 L217.435307,702.349124 L218.8954,703.766524 L236.272464,720.63548 L237.6422,721.965165 L239.014909,720.638549 L280.277851,680.761137 L290.900414,670.510071 C295.687691,665.88347 295.696739,658.34515 290.919433,653.716366 L288.176516,656.547294 C291.353175,659.625194 291.347208,664.596483 288.162149,667.674642 L277.539598,677.925697 L237.6422,716.571482 L223.158857,702.349125 L259.875804,666.819385 C262.397866,664.205487 262.477808,660.234085 260.128726,657.567375 L245.809513,643.667463 L232.600209,632.02565 C231.888271,631.189049 231.825545,629.745366 232.612765,628.667575 L232.390611,628.922541 L245.433286,616.187091 L277.611478,646.287793 L288.17497,656.545795 L290.920979,653.717865 L280.329745,643.433445 Z" id="Fill-11" fill="#3A3A3A"></path>
                            <path d="M184.639748,269.140789 L218.168119,300.449455 L219.536139,301.726886 L220.882445,300.426589 L235.315477,286.486791 L235.539074,286.229931 C237.411933,283.66005 237.261193,280.170657 235.150749,277.76532 L221.783535,266.016641 L224.678539,268.768904 L207.690125,252.285542 C206.804187,251.269136 206.835984,249.618854 207.87604,248.540107 L246.070782,211.637215 L247.534354,210.22308 L246.074012,208.805609 L228.696949,191.938675 L227.327445,190.609375 L225.954827,191.935458 L174.068299,242.062902 C169.278717,246.689468 169.26967,254.226031 174.048043,258.855849 L176.79096,256.024921 C173.613349,252.946099 173.619314,247.9771 176.807002,244.897907 L227.327447,195.980777 L242.079479,210.223079 L205.087701,245.754781 C202.570097,248.364259 202.493552,252.336895 204.837871,255.001819 L216.08681,266.262767 L232.36953,280.546777 C233.079638,281.381521 233.142051,282.826296 232.353477,283.908355 L232.577074,283.651495 L219.536141,296.365167 L187.357881,266.286314 L176.79251,256.026424 L174.046493,258.854346 L184.639748,269.140789 Z" id="Fill-10" fill="#3A3A3A"></path>
                            <path d="M280.329745,263.433445 L246.801518,232.118844 L245.433287,230.840968 L244.086844,232.141781 L229.65179,246.087649 L229.429636,246.342614 C227.554845,248.90941 227.706502,252.399897 229.818853,254.807015 L243.1837,266.557385 L240.136356,263.655684 L243.06482,266.496669 L257.277454,280.284751 C258.165855,281.302435 258.132689,282.950035 257.087447,284.034073 L218.898642,320.935071 L217.435307,322.349124 L218.8954,323.766524 L236.272464,340.63548 L237.6422,341.965165 L239.014909,340.638549 L280.277851,300.761137 L290.900414,290.510071 C295.687691,285.88347 295.696739,278.34515 290.919433,273.716366 L288.176516,276.547294 C291.353175,279.625194 291.347208,284.596483 288.162149,287.674642 L277.539598,297.925697 L237.6422,336.571482 L223.158857,322.349125 L259.875804,286.819385 C262.397866,284.205487 262.477808,280.234085 260.128726,277.567375 L245.809513,263.667463 L232.600209,252.02565 C231.888271,251.189049 231.825545,249.745366 232.612765,248.667575 L232.390611,248.922541 L245.433286,236.187091 L277.611478,266.287793 L288.17497,276.545795 L290.920979,273.717865 L280.329745,263.433445 Z" id="Fill-11" fill="#3A3A3A"></path>
                            <path d="M184.639748,79.1407886 L218.168119,110.449455 L219.536139,111.726886 L220.882445,110.426589 L235.315477,96.4867907 L235.539074,96.2299311 C237.411933,93.6600505 237.261193,90.1706567 235.150749,87.7653197 L221.783535,76.0166413 L224.678539,78.7689035 L207.690125,62.2855417 C206.804187,61.2691356 206.835984,59.6188537 207.87604,58.5401067 L246.070782,21.6372151 L247.534354,20.2230797 L246.074012,18.8056088 L228.696949,1.93867493 L227.327445,0.609375 L225.954827,1.93545834 L174.068299,52.0629016 C169.278717,56.6894676 169.26967,64.2260313 174.048043,68.8558491 L176.79096,66.0249208 C173.613349,62.9460988 173.619314,57.9771004 176.807002,54.8979072 L227.327447,5.9807775 L242.079479,20.2230792 L205.087701,55.7547812 C202.570097,58.3642591 202.493552,62.3368947 204.837871,65.0018192 L216.08681,76.2627673 L232.36953,90.5467766 C233.079638,91.3815207 233.142051,92.8262961 232.353477,93.9083545 L232.577074,93.6514949 L219.536141,106.365167 L187.357881,76.2863141 L176.79251,66.026424 L174.046493,68.8543459 L184.639748,79.1407886 Z" id="Fill-10" fill="#3A3A3A"></path>
                            <path d="M280.329745,73.433445 L246.801518,42.118844 L245.433287,40.8409681 L244.086844,42.1417814 L229.65179,56.0876488 L229.429636,56.3426142 C227.554845,58.90941 227.706502,62.3998965 229.818853,64.8070149 L243.1837,76.5573848 L240.136356,73.6556837 L243.06482,76.4966694 L257.277454,90.2847507 C258.165855,91.3024346 258.132689,92.9500354 257.087447,94.0340733 L218.898642,130.935071 L217.435307,132.349124 L218.8954,133.766524 L236.272464,150.63548 L237.6422,151.965165 L239.014909,150.638549 L280.277851,110.761137 L290.900414,100.510071 C295.687691,95.8834697 295.696739,88.3451498 290.919433,83.7163655 L288.176516,86.5472939 C291.353175,89.6251941 291.347208,94.5964833 288.162149,97.6746422 L277.539598,107.925697 L237.6422,146.571482 L223.158857,132.349125 L259.875804,96.8193853 C262.397866,94.205487 262.477808,90.234085 260.128726,87.5673747 L245.809513,73.6674631 L232.600209,62.0256496 C231.888271,61.1890491 231.825545,59.7453658 232.612765,58.6675752 L232.390611,58.9225407 L245.433286,46.1870908 L277.611478,76.2877933 L288.17497,86.5457947 L290.920979,83.7178648 L280.329745,73.433445 Z" id="Fill-11" fill="#3A3A3A"></path>
                            <path d="M374.639748,529.531414 L408.168119,560.84008 L409.536139,562.117511 L410.882445,560.817214 L425.315477,546.877416 L425.539074,546.620556 C427.411933,544.050675 427.261193,540.561282 425.150749,538.155945 L411.783535,526.407266 L414.678539,529.159529 L397.690125,512.676167 C396.804187,511.659761 396.835984,510.009479 397.87604,508.930732 L436.070782,472.02784 L437.534354,470.613705 L436.074012,469.196234 L418.696949,452.3293 L417.327445,451 L415.954827,452.326083 L364.068299,502.453527 C359.278717,507.080093 359.26967,514.616656 364.048043,519.246474 L366.79096,516.415546 C363.613349,513.336724 363.619314,508.367725 366.807002,505.288532 L417.327447,456.371402 L432.079479,470.613704 L395.087701,506.145406 C392.570097,508.754884 392.493552,512.72752 394.837871,515.392444 L406.08681,526.653392 L422.36953,540.937402 C423.079638,541.772146 423.142051,543.216921 422.353477,544.29898 L422.577074,544.04212 L409.536141,556.755792 L377.357881,526.676939 L366.79251,516.417049 L364.046493,519.244971 L374.639748,529.531414 Z" id="Fill-10" fill="#3A3A3A"></path>
                            <path d="M470.329745,523.82407 L436.801518,492.509469 L435.433287,491.231593 L434.086844,492.532406 L419.65179,506.478274 L419.429636,506.733239 C417.554845,509.300035 417.706502,512.790522 419.818853,515.19764 L433.1837,526.94801 L430.136356,524.046309 L433.06482,526.887294 L447.277454,540.675376 C448.165855,541.69306 448.132689,543.34066 447.087447,544.424698 L408.898642,581.325696 L407.435307,582.739749 L408.8954,584.157149 L426.272464,601.026105 L427.6422,602.35579 L429.014909,601.029174 L470.277851,561.151762 L480.900414,550.900696 C485.687691,546.274095 485.696739,538.735775 480.919433,534.106991 L478.176516,536.937919 C481.353175,540.015819 481.347208,544.987108 478.162149,548.065267 L467.539598,558.316322 L427.6422,596.962107 L413.158857,582.73975 L449.875804,547.21001 C452.397866,544.596112 452.477808,540.62471 450.128726,537.958 L435.809513,524.058088 L422.600209,512.416275 C421.888271,511.579674 421.825545,510.135991 422.612765,509.0582 L422.390611,509.313166 L435.433286,496.577716 L467.611478,526.678418 L478.17497,536.93642 L480.920979,534.10849 L470.329745,523.82407 Z" id="Fill-11" fill="#3A3A3A"></path>
                            <path d="M374.639748,339.531414 L408.168119,370.84008 L409.536139,372.117511 L410.882445,370.817214 L425.315477,356.877416 L425.539074,356.620556 C427.411933,354.050675 427.261193,350.561282 425.150749,348.155945 L411.783535,336.407266 L414.678539,339.159529 L397.690125,322.676167 C396.804187,321.659761 396.835984,320.009479 397.87604,318.930732 L436.070782,282.02784 L437.534354,280.613705 L436.074012,279.196234 L418.696949,262.3293 L417.327445,261 L415.954827,262.326083 L364.068299,312.453527 C359.278717,317.080093 359.26967,324.616656 364.048043,329.246474 L366.79096,326.415546 C363.613349,323.336724 363.619314,318.367725 366.807002,315.288532 L417.327447,266.371402 L432.079479,280.613704 L395.087701,316.145406 C392.570097,318.754884 392.493552,322.72752 394.837871,325.392444 L406.08681,336.653392 L422.36953,350.937402 C423.079638,351.772146 423.142051,353.216921 422.353477,354.29898 L422.577074,354.04212 L409.536141,366.755792 L377.357881,336.676939 L366.79251,326.417049 L364.046493,329.244971 L374.639748,339.531414 Z" id="Fill-10" fill="#3A3A3A"></path>
                            <path d="M470.329745,333.82407 L436.801518,302.509469 L435.433287,301.231593 L434.086844,302.532406 L419.65179,316.478274 L419.429636,316.733239 C417.554845,319.300035 417.706502,322.790522 419.818853,325.19764 L433.1837,336.94801 L430.136356,334.046309 L433.06482,336.887294 L447.277454,350.675376 C448.165855,351.69306 448.132689,353.34066 447.087447,354.424698 L408.898642,391.325696 L407.435307,392.739749 L408.8954,394.157149 L426.272464,411.026105 L427.6422,412.35579 L429.014909,411.029174 L470.277851,371.151762 L480.900414,360.900696 C485.687691,356.274095 485.696739,348.735775 480.919433,344.106991 L478.176516,346.937919 C481.353175,350.015819 481.347208,354.987108 478.162149,358.065267 L467.539598,368.316322 L427.6422,406.962107 L413.158857,392.73975 L449.875804,357.21001 C452.397866,354.596112 452.477808,350.62471 450.128726,347.958 L435.809513,334.058088 L422.600209,322.416275 C421.888271,321.579674 421.825545,320.135991 422.612765,319.0582 L422.390611,319.313166 L435.433286,306.577716 L467.611478,336.678418 L478.17497,346.93642 L480.920979,344.10849 L470.329745,333.82407 Z" id="Fill-11" fill="#3A3A3A"></path>
                            <path d="M374.639748,149.531414 L408.168119,180.84008 L409.536139,182.117511 L410.882445,180.817214 L425.315477,166.877416 L425.539074,166.620556 C427.411933,164.050675 427.261193,160.561282 425.150749,158.155945 L411.783535,146.407266 L414.678539,149.159529 L397.690125,132.676167 C396.804187,131.659761 396.835984,130.009479 397.87604,128.930732 L436.070782,92.0278401 L437.534354,90.6137047 L436.074012,89.1962338 L418.696949,72.3292999 L417.327445,71 L415.954827,72.3260833 L364.068299,122.453527 C359.278717,127.080093 359.26967,134.616656 364.048043,139.246474 L366.79096,136.415546 C363.613349,133.336724 363.619314,128.367725 366.807002,125.288532 L417.327447,76.3714025 L432.079479,90.6137042 L395.087701,126.145406 C392.570097,128.754884 392.493552,132.72752 394.837871,135.392444 L406.08681,146.653392 L422.36953,160.937402 C423.079638,161.772146 423.142051,163.216921 422.353477,164.29898 L422.577074,164.04212 L409.536141,176.755792 L377.357881,146.676939 L366.79251,136.417049 L364.046493,139.244971 L374.639748,149.531414 Z" id="Fill-10" fill="#3A3A3A"></path>
                            <path d="M470.329745,143.82407 L436.801518,112.509469 L435.433287,111.231593 L434.086844,112.532406 L419.65179,126.478274 L419.429636,126.733239 C417.554845,129.300035 417.706502,132.790522 419.818853,135.19764 L433.1837,146.94801 L430.136356,144.046309 L433.06482,146.887294 L447.277454,160.675376 C448.165855,161.69306 448.132689,163.34066 447.087447,164.424698 L408.898642,201.325696 L407.435307,202.739749 L408.8954,204.157149 L426.272464,221.026105 L427.6422,222.35579 L429.014909,221.029174 L470.277851,181.151762 L480.900414,170.900696 C485.687691,166.274095 485.696739,158.735775 480.919433,154.106991 L478.176516,156.937919 C481.353175,160.015819 481.347208,164.987108 478.162149,168.065267 L467.539598,178.316322 L427.6422,216.962107 L413.158857,202.73975 L449.875804,167.21001 C452.397866,164.596112 452.477808,160.62471 450.128726,157.958 L435.809513,144.058088 L422.600209,132.416275 C421.888271,131.579674 421.825545,130.135991 422.612765,129.0582 L422.390611,129.313166 L435.433286,116.577716 L467.611478,146.678418 L478.17497,156.93642 L480.920979,154.10849 L470.329745,143.82407 Z" id="Fill-11" fill="#3A3A3A"></path>
                            <path d="M544.639748,459.531414 L578.168119,490.84008 L579.536139,492.117511 L580.882445,490.817214 L595.315477,476.877416 L595.539074,476.620556 C597.411933,474.050675 597.261193,470.561282 595.150749,468.155945 L581.783535,456.407266 L584.678539,459.159529 L567.690125,442.676167 C566.804187,441.659761 566.835984,440.009479 567.87604,438.930732 L606.070782,402.02784 L607.534354,400.613705 L606.074012,399.196234 L588.696949,382.3293 L587.327445,381 L585.954827,382.326083 L534.068299,432.453527 C529.278717,437.080093 529.26967,444.616656 534.048043,449.246474 L536.79096,446.415546 C533.613349,443.336724 533.619314,438.367725 536.807002,435.288532 L587.327447,386.371402 L602.079479,400.613704 L565.087701,436.145406 C562.570097,438.754884 562.493552,442.72752 564.837871,445.392444 L576.08681,456.653392 L592.36953,470.937402 C593.079638,471.772146 593.142051,473.216921 592.353477,474.29898 L592.577074,474.04212 L579.536141,486.755792 L547.357881,456.676939 L536.79251,446.417049 L534.046493,449.244971 L544.639748,459.531414 Z" id="Fill-10" fill="#3A3A3A"></path>
                            <path d="M640.329745,453.82407 L606.801518,422.509469 L605.433287,421.231593 L604.086844,422.532406 L589.65179,436.478274 L589.429636,436.733239 C587.554845,439.300035 587.706502,442.790522 589.818853,445.19764 L603.1837,456.94801 L600.136356,454.046309 L603.06482,456.887294 L617.277454,470.675376 C618.165855,471.69306 618.132689,473.34066 617.087447,474.424698 L578.898642,511.325696 L577.435307,512.739749 L578.8954,514.157149 L596.272464,531.026105 L597.6422,532.35579 L599.014909,531.029174 L640.277851,491.151762 L650.900414,480.900696 C655.687691,476.274095 655.696739,468.735775 650.919433,464.106991 L648.176516,466.937919 C651.353175,470.015819 651.347208,474.987108 648.162149,478.065267 L637.539598,488.316322 L597.6422,526.962107 L583.158857,512.73975 L619.875804,477.21001 C622.397866,474.596112 622.477808,470.62471 620.128726,467.958 L605.809513,454.058088 L592.600209,442.416275 C591.888271,441.579674 591.825545,440.135991 592.612765,439.0582 L592.390611,439.313166 L605.433286,426.577716 L637.611478,456.678418 L648.17497,466.93642 L650.920979,464.10849 L640.329745,453.82407 Z" id="Fill-11" fill="#3A3A3A"></path>
                            <path d="M544.639748,269.531414 L578.168119,300.84008 L579.536139,302.117511 L580.882445,300.817214 L595.315477,286.877416 L595.539074,286.620556 C597.411933,284.050675 597.261193,280.561282 595.150749,278.155945 L581.783535,266.407266 L584.678539,269.159529 L567.690125,252.676167 C566.804187,251.659761 566.835984,250.009479 567.87604,248.930732 L606.070782,212.02784 L607.534354,210.613705 L606.074012,209.196234 L588.696949,192.3293 L587.327445,191 L585.954827,192.326083 L534.068299,242.453527 C529.278717,247.080093 529.26967,254.616656 534.048043,259.246474 L536.79096,256.415546 C533.613349,253.336724 533.619314,248.367725 536.807002,245.288532 L587.327447,196.371402 L602.079479,210.613704 L565.087701,246.145406 C562.570097,248.754884 562.493552,252.72752 564.837871,255.392444 L576.08681,266.653392 L592.36953,280.937402 C593.079638,281.772146 593.142051,283.216921 592.353477,284.29898 L592.577074,284.04212 L579.536141,296.755792 L547.357881,266.676939 L536.79251,256.417049 L534.046493,259.244971 L544.639748,269.531414 Z" id="Fill-10" fill="#3A3A3A"></path>
                            <path d="M640.329745,263.82407 L606.801518,232.509469 L605.433287,231.231593 L604.086844,232.532406 L589.65179,246.478274 L589.429636,246.733239 C587.554845,249.300035 587.706502,252.790522 589.818853,255.19764 L603.1837,266.94801 L600.136356,264.046309 L603.06482,266.887294 L617.277454,280.675376 C618.165855,281.69306 618.132689,283.34066 617.087447,284.424698 L578.898642,321.325696 L577.435307,322.739749 L578.8954,324.157149 L596.272464,341.026105 L597.6422,342.35579 L599.014909,341.029174 L640.277851,301.151762 L650.900414,290.900696 C655.687691,286.274095 655.696739,278.735775 650.919433,274.106991 L648.176516,276.937919 C651.353175,280.015819 651.347208,284.987108 648.162149,288.065267 L637.539598,298.316322 L597.6422,336.962107 L583.158857,322.73975 L619.875804,287.21001 C622.397866,284.596112 622.477808,280.62471 620.128726,277.958 L605.809513,264.058088 L592.600209,252.416275 C591.888271,251.579674 591.825545,250.135991 592.612765,249.0582 L592.390611,249.313166 L605.433286,236.577716 L637.611478,266.678418 L648.17497,276.93642 L650.920979,274.10849 L640.329745,263.82407 Z" id="Fill-11" fill="#3A3A3A"></path>
                            <path d="M544.639748,79.5314136 L578.168119,110.84008 L579.536139,112.117511 L580.882445,110.817214 L595.315477,96.8774157 L595.539074,96.6205561 C597.411933,94.0506755 597.261193,90.5612817 595.150749,88.1559447 L581.783535,76.4072663 L584.678539,79.1595285 L567.690125,62.6761667 C566.804187,61.6597606 566.835984,60.0094787 567.87604,58.9307317 L606.070782,22.0278401 L607.534354,20.6137047 L606.074012,19.1962338 L588.696949,2.32929993 L587.327445,1 L585.954827,2.32608334 L534.068299,52.4535266 C529.278717,57.0800926 529.26967,64.6166563 534.048043,69.2464741 L536.79096,66.4155458 C533.613349,63.3367238 533.619314,58.3677254 536.807002,55.2885322 L587.327447,6.3714025 L602.079479,20.6137042 L565.087701,56.1454062 C562.570097,58.7548841 562.493552,62.7275197 564.837871,65.3924442 L576.08681,76.6533923 L592.36953,90.9374016 C593.079638,91.7721457 593.142051,93.2169211 592.353477,94.2989795 L592.577074,94.0421199 L579.536141,106.755792 L547.357881,76.6769391 L536.79251,66.417049 L534.046493,69.2449709 L544.639748,79.5314136 Z" id="Fill-10" fill="#3A3A3A"></path>
                            <path d="M640.329745,73.82407 L606.801518,42.509469 L605.433287,41.2315931 L604.086844,42.5324064 L589.65179,56.4782738 L589.429636,56.7332392 C587.554845,59.300035 587.706502,62.7905215 589.818853,65.1976399 L603.1837,76.9480098 L600.136356,74.0463087 L603.06482,76.8872944 L617.277454,90.6753757 C618.165855,91.6930596 618.132689,93.3406604 617.087447,94.4246983 L578.898642,131.325696 L577.435307,132.739749 L578.8954,134.157149 L596.272464,151.026105 L597.6422,152.35579 L599.014909,151.029174 L640.277851,111.151762 L650.900414,100.900696 C655.687691,96.2740947 655.696739,88.7357748 650.919433,84.1069905 L648.176516,86.9379189 C651.353175,90.0158191 651.347208,94.9871083 648.162149,98.0652672 L637.539598,108.316322 L597.6422,146.962107 L583.158857,132.73975 L619.875804,97.2100103 C622.397866,94.596112 622.477808,90.62471 620.128726,87.9579997 L605.809513,74.0580881 L592.600209,62.4162746 C591.888271,61.5796741 591.825545,60.1359908 592.612765,59.0582002 L592.390611,59.3131657 L605.433286,46.5777158 L637.611478,76.6784183 L648.17497,86.9364197 L650.920979,84.1084898 L640.329745,73.82407 Z" id="Fill-11" fill="#3A3A3A"></path>
                            <path d="M544.639748,649.531414 L578.168119,680.84008 L579.536139,682.117511 L580.882445,680.817214 L595.315477,666.877416 L595.539074,666.620556 C597.411933,664.050675 597.261193,660.561282 595.150749,658.155945 L581.783535,646.407266 L584.678539,649.159529 L567.690125,632.676167 C566.804187,631.659761 566.835984,630.009479 567.87604,628.930732 L606.070782,592.02784 L607.534354,590.613705 L606.074012,589.196234 L588.696949,572.3293 L587.327445,571 L585.954827,572.326083 L534.068299,622.453527 C529.278717,627.080093 529.26967,634.616656 534.048043,639.246474 L536.79096,636.415546 C533.613349,633.336724 533.619314,628.367725 536.807002,625.288532 L587.327447,576.371402 L602.079479,590.613704 L565.087701,626.145406 C562.570097,628.754884 562.493552,632.72752 564.837871,635.392444 L576.08681,646.653392 L592.36953,660.937402 C593.079638,661.772146 593.142051,663.216921 592.353477,664.29898 L592.577074,664.04212 L579.536141,676.755792 L547.357881,646.676939 L536.79251,636.417049 L534.046493,639.244971 L544.639748,649.531414 Z" id="Fill-10" fill="#3A3A3A"></path>
                            <path d="M640.329745,643.82407 L606.801518,612.509469 L605.433287,611.231593 L604.086844,612.532406 L589.65179,626.478274 L589.429636,626.733239 C587.554845,629.300035 587.706502,632.790522 589.818853,635.19764 L603.1837,646.94801 L600.136356,644.046309 L603.06482,646.887294 L617.277454,660.675376 C618.165855,661.69306 618.132689,663.34066 617.087447,664.424698 L578.898642,701.325696 L577.435307,702.739749 L578.8954,704.157149 L596.272464,721.026105 L597.6422,722.35579 L599.014909,721.029174 L640.277851,681.151762 L650.900414,670.900696 C655.687691,666.274095 655.696739,658.735775 650.919433,654.106991 L648.176516,656.937919 C651.353175,660.015819 651.347208,664.987108 648.162149,668.065267 L637.539598,678.316322 L597.6422,716.962107 L583.158857,702.73975 L619.875804,667.21001 C622.397866,664.596112 622.477808,660.62471 620.128726,657.958 L605.809513,644.058088 L592.600209,632.416275 C591.888271,631.579674 591.825545,630.135991 592.612765,629.0582 L592.390611,629.313166 L605.433286,616.577716 L637.611478,646.678418 L648.17497,656.93642 L650.920979,654.10849 L640.329745,643.82407 Z" id="Fill-11" fill="#3A3A3A"></path>
                            <path d="M734.639748,530.531414 L768.168119,561.84008 L769.536139,563.117511 L770.882445,561.817214 L785.315477,547.877416 L785.539074,547.620556 C787.411933,545.050675 787.261193,541.561282 785.150749,539.155945 L771.783535,527.407266 L774.678539,530.159529 L757.690125,513.676167 C756.804187,512.659761 756.835984,511.009479 757.87604,509.930732 L796.070782,473.02784 L797.534354,471.613705 L796.074012,470.196234 L778.696949,453.3293 L777.327445,452 L775.954827,453.326083 L724.068299,503.453527 C719.278717,508.080093 719.26967,515.616656 724.048043,520.246474 L726.79096,517.415546 C723.613349,514.336724 723.619314,509.367725 726.807002,506.288532 L777.327447,457.371402 L792.079479,471.613704 L755.087701,507.145406 C752.570097,509.754884 752.493552,513.72752 754.837871,516.392444 L766.08681,527.653392 L782.36953,541.937402 C783.079638,542.772146 783.142051,544.216921 782.353477,545.29898 L782.577074,545.04212 L769.536141,557.755792 L737.357881,527.676939 L726.79251,517.417049 L724.046493,520.244971 L734.639748,530.531414 Z" id="Fill-10" fill="#3A3A3A"></path>
                            <path d="M830.329745,524.82407 L796.801518,493.509469 L795.433287,492.231593 L794.086844,493.532406 L779.65179,507.478274 L779.429636,507.733239 C777.554845,510.300035 777.706502,513.790522 779.818853,516.19764 L793.1837,527.94801 L790.136356,525.046309 L793.06482,527.887294 L807.277454,541.675376 C808.165855,542.69306 808.132689,544.34066 807.087447,545.424698 L768.898642,582.325696 L767.435307,583.739749 L768.8954,585.157149 L786.272464,602.026105 L787.6422,603.35579 L789.014909,602.029174 L830.277851,562.151762 L840.900414,551.900696 C845.687691,547.274095 845.696739,539.735775 840.919433,535.106991 L838.176516,537.937919 C841.353175,541.015819 841.347208,545.987108 838.162149,549.065267 L827.539598,559.316322 L787.6422,597.962107 L773.158857,583.73975 L809.875804,548.21001 C812.397866,545.596112 812.477808,541.62471 810.128726,538.958 L795.809513,525.058088 L782.600209,513.416275 C781.888271,512.579674 781.825545,511.135991 782.612765,510.0582 L782.390611,510.313166 L795.433286,497.577716 L827.611478,527.678418 L838.17497,537.93642 L840.920979,535.10849 L830.329745,524.82407 Z" id="Fill-11" fill="#3A3A3A"></path>
                            <path d="M734.639748,340.531414 L768.168119,371.84008 L769.536139,373.117511 L770.882445,371.817214 L785.315477,357.877416 L785.539074,357.620556 C787.411933,355.050675 787.261193,351.561282 785.150749,349.155945 L771.783535,337.407266 L774.678539,340.159529 L757.690125,323.676167 C756.804187,322.659761 756.835984,321.009479 757.87604,319.930732 L796.070782,283.02784 L797.534354,281.613705 L796.074012,280.196234 L778.696949,263.3293 L777.327445,262 L775.954827,263.326083 L724.068299,313.453527 C719.278717,318.080093 719.26967,325.616656 724.048043,330.246474 L726.79096,327.415546 C723.613349,324.336724 723.619314,319.367725 726.807002,316.288532 L777.327447,267.371402 L792.079479,281.613704 L755.087701,317.145406 C752.570097,319.754884 752.493552,323.72752 754.837871,326.392444 L766.08681,337.653392 L782.36953,351.937402 C783.079638,352.772146 783.142051,354.216921 782.353477,355.29898 L782.577074,355.04212 L769.536141,367.755792 L737.357881,337.676939 L726.79251,327.417049 L724.046493,330.244971 L734.639748,340.531414 Z" id="Fill-10" fill="#3A3A3A"></path>
                            <path d="M830.329745,334.82407 L796.801518,303.509469 L795.433287,302.231593 L794.086844,303.532406 L779.65179,317.478274 L779.429636,317.733239 C777.554845,320.300035 777.706502,323.790522 779.818853,326.19764 L793.1837,337.94801 L790.136356,335.046309 L793.06482,337.887294 L807.277454,351.675376 C808.165855,352.69306 808.132689,354.34066 807.087447,355.424698 L768.898642,392.325696 L767.435307,393.739749 L768.8954,395.157149 L786.272464,412.026105 L787.6422,413.35579 L789.014909,412.029174 L830.277851,372.151762 L840.900414,361.900696 C845.687691,357.274095 845.696739,349.735775 840.919433,345.106991 L838.176516,347.937919 C841.353175,351.015819 841.347208,355.987108 838.162149,359.065267 L827.539598,369.316322 L787.6422,407.962107 L773.158857,393.73975 L809.875804,358.21001 C812.397866,355.596112 812.477808,351.62471 810.128726,348.958 L795.809513,335.058088 L782.600209,323.416275 C781.888271,322.579674 781.825545,321.135991 782.612765,320.0582 L782.390611,320.313166 L795.433286,307.577716 L827.611478,337.678418 L838.17497,347.93642 L840.920979,345.10849 L830.329745,334.82407 Z" id="Fill-11" fill="#3A3A3A"></path>
                            <path d="M734.639748,150.531414 L768.168119,181.84008 L769.536139,183.117511 L770.882445,181.817214 L785.315477,167.877416 L785.539074,167.620556 C787.411933,165.050675 787.261193,161.561282 785.150749,159.155945 L771.783535,147.407266 L774.678539,150.159529 L757.690125,133.676167 C756.804187,132.659761 756.835984,131.009479 757.87604,129.930732 L796.070782,93.0278401 L797.534354,91.6137047 L796.074012,90.1962338 L778.696949,73.3292999 L777.327445,72 L775.954827,73.3260833 L724.068299,123.453527 C719.278717,128.080093 719.26967,135.616656 724.048043,140.246474 L726.79096,137.415546 C723.613349,134.336724 723.619314,129.367725 726.807002,126.288532 L777.327447,77.3714025 L792.079479,91.6137042 L755.087701,127.145406 C752.570097,129.754884 752.493552,133.72752 754.837871,136.392444 L766.08681,147.653392 L782.36953,161.937402 C783.079638,162.772146 783.142051,164.216921 782.353477,165.29898 L782.577074,165.04212 L769.536141,177.755792 L737.357881,147.676939 L726.79251,137.417049 L724.046493,140.244971 L734.639748,150.531414 Z" id="Fill-10" fill="#3A3A3A"></path>
                            <path d="M830.329745,144.82407 L796.801518,113.509469 L795.433287,112.231593 L794.086844,113.532406 L779.65179,127.478274 L779.429636,127.733239 C777.554845,130.300035 777.706502,133.790522 779.818853,136.19764 L793.1837,147.94801 L790.136356,145.046309 L793.06482,147.887294 L807.277454,161.675376 C808.165855,162.69306 808.132689,164.34066 807.087447,165.424698 L768.898642,202.325696 L767.435307,203.739749 L768.8954,205.157149 L786.272464,222.026105 L787.6422,223.35579 L789.014909,222.029174 L830.277851,182.151762 L840.900414,171.900696 C845.687691,167.274095 845.696739,159.735775 840.919433,155.106991 L838.176516,157.937919 C841.353175,161.015819 841.347208,165.987108 838.162149,169.065267 L827.539598,179.316322 L787.6422,217.962107 L773.158857,203.73975 L809.875804,168.21001 C812.397866,165.596112 812.477808,161.62471 810.128726,158.958 L795.809513,145.058088 L782.600209,133.416275 C781.888271,132.579674 781.825545,131.135991 782.612765,130.0582 L782.390611,130.313166 L795.433286,117.577716 L827.611478,147.678418 L838.17497,157.93642 L840.920979,155.10849 L830.329745,144.82407 Z" id="Fill-11" fill="#3A3A3A"></path>
                            <path d="M904.639748,460.531414 L938.168119,491.84008 L939.536139,493.117511 L940.882445,491.817214 L955.315477,477.877416 L955.539074,477.620556 C957.411933,475.050675 957.261193,471.561282 955.150749,469.155945 L941.783535,457.407266 L944.678539,460.159529 L927.690125,443.676167 C926.804187,442.659761 926.835984,441.009479 927.87604,439.930732 L966.070782,403.02784 L967.534354,401.613705 L966.074012,400.196234 L948.696949,383.3293 L947.327445,382 L945.954827,383.326083 L894.068299,433.453527 C889.278717,438.080093 889.26967,445.616656 894.048043,450.246474 L896.79096,447.415546 C893.613349,444.336724 893.619314,439.367725 896.807002,436.288532 L947.327447,387.371402 L962.079479,401.613704 L925.087701,437.145406 C922.570097,439.754884 922.493552,443.72752 924.837871,446.392444 L936.08681,457.653392 L952.36953,471.937402 C953.079638,472.772146 953.142051,474.216921 952.353477,475.29898 L952.577074,475.04212 L939.536141,487.755792 L907.357881,457.676939 L896.79251,447.417049 L894.046493,450.244971 L904.639748,460.531414 Z" id="Fill-10" fill="#3A3A3A"></path>
                            <path d="M1000.32975,454.82407 L966.801518,423.509469 L965.433287,422.231593 L964.086844,423.532406 L949.65179,437.478274 L949.429636,437.733239 C947.554845,440.300035 947.706502,443.790522 949.818853,446.19764 L963.1837,457.94801 L960.136356,455.046309 L963.06482,457.887294 L977.277454,471.675376 C978.165855,472.69306 978.132689,474.34066 977.087447,475.424698 L938.898642,512.325696 L937.435307,513.739749 L938.8954,515.157149 L956.272464,532.026105 L957.6422,533.35579 L959.014909,532.029174 L1000.27785,492.151762 L1010.90041,481.900696 C1015.68769,477.274095 1015.69674,469.735775 1010.91943,465.106991 L1008.17652,467.937919 C1011.35318,471.015819 1011.34721,475.987108 1008.16215,479.065267 L997.539598,489.316322 L957.6422,527.962107 L943.158857,513.73975 L979.875804,478.21001 C982.397866,475.596112 982.477808,471.62471 980.128726,468.958 L965.809513,455.058088 L952.600209,443.416275 C951.888271,442.579674 951.825545,441.135991 952.612765,440.0582 L952.390611,440.313166 L965.433286,427.577716 L997.611478,457.678418 L1008.17497,467.93642 L1010.92098,465.10849 L1000.32975,454.82407 Z" id="Fill-11" fill="#3A3A3A"></path>
                            <path d="M904.639748,650.531414 L938.168119,681.84008 L939.536139,683.117511 L940.882445,681.817214 L955.315477,667.877416 L955.539074,667.620556 C957.411933,665.050675 957.261193,661.561282 955.150749,659.155945 L941.783535,647.407266 L944.678539,650.159529 L927.690125,633.676167 C926.804187,632.659761 926.835984,631.009479 927.87604,629.930732 L966.070782,593.02784 L967.534354,591.613705 L966.074012,590.196234 L948.696949,573.3293 L947.327445,572 L945.954827,573.326083 L894.068299,623.453527 C889.278717,628.080093 889.26967,635.616656 894.048043,640.246474 L896.79096,637.415546 C893.613349,634.336724 893.619314,629.367725 896.807002,626.288532 L947.327447,577.371402 L962.079479,591.613704 L925.087701,627.145406 C922.570097,629.754884 922.493552,633.72752 924.837871,636.392444 L936.08681,647.653392 L952.36953,661.937402 C953.079638,662.772146 953.142051,664.216921 952.353477,665.29898 L952.577074,665.04212 L939.536141,677.755792 L907.357881,647.676939 L896.79251,637.417049 L894.046493,640.244971 L904.639748,650.531414 Z" id="Fill-10" fill="#3A3A3A"></path>
                            <path d="M1000.32975,644.82407 L966.801518,613.509469 L965.433287,612.231593 L964.086844,613.532406 L949.65179,627.478274 L949.429636,627.733239 C947.554845,630.300035 947.706502,633.790522 949.818853,636.19764 L963.1837,647.94801 L960.136356,645.046309 L963.06482,647.887294 L977.277454,661.675376 C978.165855,662.69306 978.132689,664.34066 977.087447,665.424698 L938.898642,702.325696 L937.435307,703.739749 L938.8954,705.157149 L956.272464,722.026105 L957.6422,723.35579 L959.014909,722.029174 L1000.27785,682.151762 L1010.90041,671.900696 C1015.68769,667.274095 1015.69674,659.735775 1010.91943,655.106991 L1008.17652,657.937919 C1011.35318,661.015819 1011.34721,665.987108 1008.16215,669.065267 L997.539598,679.316322 L957.6422,717.962107 L943.158857,703.73975 L979.875804,668.21001 C982.397866,665.596112 982.477808,661.62471 980.128726,658.958 L965.809513,645.058088 L952.600209,633.416275 C951.888271,632.579674 951.825545,631.135991 952.612765,630.0582 L952.390611,630.313166 L965.433286,617.577716 L997.611478,647.678418 L1008.17497,657.93642 L1010.92098,655.10849 L1000.32975,644.82407 Z" id="Fill-11" fill="#3A3A3A"></path>
                            <path d="M904.639748,270.531414 L938.168119,301.84008 L939.536139,303.117511 L940.882445,301.817214 L955.315477,287.877416 L955.539074,287.620556 C957.411933,285.050675 957.261193,281.561282 955.150749,279.155945 L941.783535,267.407266 L944.678539,270.159529 L927.690125,253.676167 C926.804187,252.659761 926.835984,251.009479 927.87604,249.930732 L966.070782,213.02784 L967.534354,211.613705 L966.074012,210.196234 L948.696949,193.3293 L947.327445,192 L945.954827,193.326083 L894.068299,243.453527 C889.278717,248.080093 889.26967,255.616656 894.048043,260.246474 L896.79096,257.415546 C893.613349,254.336724 893.619314,249.367725 896.807002,246.288532 L947.327447,197.371402 L962.079479,211.613704 L925.087701,247.145406 C922.570097,249.754884 922.493552,253.72752 924.837871,256.392444 L936.08681,267.653392 L952.36953,281.937402 C953.079638,282.772146 953.142051,284.216921 952.353477,285.29898 L952.577074,285.04212 L939.536141,297.755792 L907.357881,267.676939 L896.79251,257.417049 L894.046493,260.244971 L904.639748,270.531414 Z" id="Fill-10" fill="#3A3A3A"></path>
                            <path d="M1000.32975,264.82407 L966.801518,233.509469 L965.433287,232.231593 L964.086844,233.532406 L949.65179,247.478274 L949.429636,247.733239 C947.554845,250.300035 947.706502,253.790522 949.818853,256.19764 L963.1837,267.94801 L960.136356,265.046309 L963.06482,267.887294 L977.277454,281.675376 C978.165855,282.69306 978.132689,284.34066 977.087447,285.424698 L938.898642,322.325696 L937.435307,323.739749 L938.8954,325.157149 L956.272464,342.026105 L957.6422,343.35579 L959.014909,342.029174 L1000.27785,302.151762 L1010.90041,291.900696 C1015.68769,287.274095 1015.69674,279.735775 1010.91943,275.106991 L1008.17652,277.937919 C1011.35318,281.015819 1011.34721,285.987108 1008.16215,289.065267 L997.539598,299.316322 L957.6422,337.962107 L943.158857,323.73975 L979.875804,288.21001 C982.397866,285.596112 982.477808,281.62471 980.128726,278.958 L965.809513,265.058088 L952.600209,253.416275 C951.888271,252.579674 951.825545,251.135991 952.612765,250.0582 L952.390611,250.313166 L965.433286,237.577716 L997.611478,267.678418 L1008.17497,277.93642 L1010.92098,275.10849 L1000.32975,264.82407 Z" id="Fill-11" fill="#3A3A3A"></path>
                            <path d="M904.639748,80.5314136 L938.168119,111.84008 L939.536139,113.117511 L940.882445,111.817214 L955.315477,97.8774157 L955.539074,97.6205561 C957.411933,95.0506755 957.261193,91.5612817 955.150749,89.1559447 L941.783535,77.4072663 L944.678539,80.1595285 L927.690125,63.6761667 C926.804187,62.6597606 926.835984,61.0094787 927.87604,59.9307317 L966.070782,23.0278401 L967.534354,21.6137047 L966.074012,20.1962338 L948.696949,3.32929993 L947.327445,2 L945.954827,3.32608334 L894.068299,53.4535266 C889.278717,58.0800926 889.26967,65.6166563 894.048043,70.2464741 L896.79096,67.4155458 C893.613349,64.3367238 893.619314,59.3677254 896.807002,56.2885322 L947.327447,7.3714025 L962.079479,21.6137042 L925.087701,57.1454062 C922.570097,59.7548841 922.493552,63.7275197 924.837871,66.3924442 L936.08681,77.6533923 L952.36953,91.9374016 C953.079638,92.7721457 953.142051,94.2169211 952.353477,95.2989795 L952.577074,95.0421199 L939.536141,107.755792 L907.357881,77.6769391 L896.79251,67.417049 L894.046493,70.2449709 L904.639748,80.5314136 Z" id="Fill-10" fill="#3A3A3A"></path>
                            <path d="M1000.32975,74.82407 L966.801518,43.509469 L965.433287,42.2315931 L964.086844,43.5324064 L949.65179,57.4782738 L949.429636,57.7332392 C947.554845,60.300035 947.706502,63.7905215 949.818853,66.1976399 L963.1837,77.9480098 L960.136356,75.0463087 L963.06482,77.8872944 L977.277454,91.6753757 C978.165855,92.6930596 978.132689,94.3406604 977.087447,95.4246983 L938.898642,132.325696 L937.435307,133.739749 L938.8954,135.157149 L956.272464,152.026105 L957.6422,153.35579 L959.014909,152.029174 L1000.27785,112.151762 L1010.90041,101.900696 C1015.68769,97.2740947 1015.69674,89.7357748 1010.91943,85.1069905 L1008.17652,87.9379189 C1011.35318,91.0158191 1011.34721,95.9871083 1008.16215,99.0652672 L997.539598,109.316322 L957.6422,147.962107 L943.158857,133.73975 L979.875804,98.2100103 C982.397866,95.596112 982.477808,91.62471 980.128726,88.9579997 L965.809513,75.0580881 L952.600209,63.4162746 C951.888271,62.5796741 951.825545,61.1359908 952.612765,60.0582002 L952.390611,60.3131657 L965.433286,47.5777158 L997.611478,77.6784183 L1008.17497,87.9364197 L1010.92098,85.1084898 L1000.32975,74.82407 Z" id="Fill-11" fill="#3A3A3A"></path>
                            <path d="M1094.63975,530.922039 L1128.16812,562.230705 L1129.53614,563.508136 L1130.88244,562.207839 L1145.31548,548.268041 L1145.53907,548.011181 C1147.41193,545.4413 1147.26119,541.951907 1145.15075,539.54657 L1131.78353,527.797891 L1134.67854,530.550154 L1117.69013,514.066792 C1116.80419,513.050386 1116.83598,511.400104 1117.87604,510.321357 L1156.07078,473.418465 L1157.53435,472.00433 L1156.07401,470.586859 L1138.69695,453.719925 L1137.32745,452.390625 L1135.95483,453.716708 L1084.0683,503.844152 C1079.27872,508.470718 1079.26967,516.007281 1084.04804,520.637099 L1086.79096,517.806171 C1083.61335,514.727349 1083.61931,509.75835 1086.807,506.679157 L1137.32745,457.762027 L1152.07948,472.004329 L1115.0877,507.536031 C1112.5701,510.145509 1112.49355,514.118145 1114.83787,516.783069 L1126.08681,528.044017 L1142.36953,542.328027 C1143.07964,543.162771 1143.14205,544.607546 1142.35348,545.689605 L1142.57707,545.432745 L1129.53614,558.146417 L1097.35788,528.067564 L1086.79251,517.807674 L1084.04649,520.635596 L1094.63975,530.922039 Z" id="Fill-10" fill="#3A3A3A"></path>
                            <path d="M1190.32975,525.214695 L1156.80152,493.900094 L1155.43329,492.622218 L1154.08684,493.923031 L1139.65179,507.868899 L1139.42964,508.123864 C1137.55485,510.69066 1137.7065,514.181147 1139.81885,516.588265 L1153.1837,528.338635 L1150.13636,525.436934 L1153.06482,528.277919 L1167.27745,542.066001 C1168.16585,543.083685 1168.13269,544.731285 1167.08745,545.815323 L1128.89864,582.716321 L1127.43531,584.130374 L1128.8954,585.547774 L1146.27246,602.41673 L1147.6422,603.746415 L1149.01491,602.419799 L1190.27785,562.542387 L1200.90041,552.291321 C1205.68769,547.66472 1205.69674,540.1264 1200.91943,535.497616 L1198.17652,538.328544 C1201.35318,541.406444 1201.34721,546.377733 1198.16215,549.455892 L1187.5396,559.706947 L1147.6422,598.352732 L1133.15886,584.130375 L1169.8758,548.600635 C1172.39787,545.986737 1172.47781,542.015335 1170.12873,539.348625 L1155.80951,525.448713 L1142.60021,513.8069 C1141.88827,512.970299 1141.82554,511.526616 1142.61276,510.448825 L1142.39061,510.703791 L1155.43329,497.968341 L1187.61148,528.069043 L1198.17497,538.327045 L1200.92098,535.499115 L1190.32975,525.214695 Z" id="Fill-11" fill="#3A3A3A"></path>
                            <path d="M1094.63975,340.922039 L1128.16812,372.230705 L1129.53614,373.508136 L1130.88244,372.207839 L1145.31548,358.268041 L1145.53907,358.011181 C1147.41193,355.4413 1147.26119,351.951907 1145.15075,349.54657 L1131.78353,337.797891 L1134.67854,340.550154 L1117.69013,324.066792 C1116.80419,323.050386 1116.83598,321.400104 1117.87604,320.321357 L1156.07078,283.418465 L1157.53435,282.00433 L1156.07401,280.586859 L1138.69695,263.719925 L1137.32745,262.390625 L1135.95483,263.716708 L1084.0683,313.844152 C1079.27872,318.470718 1079.26967,326.007281 1084.04804,330.637099 L1086.79096,327.806171 C1083.61335,324.727349 1083.61931,319.75835 1086.807,316.679157 L1137.32745,267.762027 L1152.07948,282.004329 L1115.0877,317.536031 C1112.5701,320.145509 1112.49355,324.118145 1114.83787,326.783069 L1126.08681,338.044017 L1142.36953,352.328027 C1143.07964,353.162771 1143.14205,354.607546 1142.35348,355.689605 L1142.57707,355.432745 L1129.53614,368.146417 L1097.35788,338.067564 L1086.79251,327.807674 L1084.04649,330.635596 L1094.63975,340.922039 Z" id="Fill-10" fill="#3A3A3A"></path>
                            <path d="M1190.32975,335.214695 L1156.80152,303.900094 L1155.43329,302.622218 L1154.08684,303.923031 L1139.65179,317.868899 L1139.42964,318.123864 C1137.55485,320.69066 1137.7065,324.181147 1139.81885,326.588265 L1153.1837,338.338635 L1150.13636,335.436934 L1153.06482,338.277919 L1167.27745,352.066001 C1168.16585,353.083685 1168.13269,354.731285 1167.08745,355.815323 L1128.89864,392.716321 L1127.43531,394.130374 L1128.8954,395.547774 L1146.27246,412.41673 L1147.6422,413.746415 L1149.01491,412.419799 L1190.27785,372.542387 L1200.90041,362.291321 C1205.68769,357.66472 1205.69674,350.1264 1200.91943,345.497616 L1198.17652,348.328544 C1201.35318,351.406444 1201.34721,356.377733 1198.16215,359.455892 L1187.5396,369.706947 L1147.6422,408.352732 L1133.15886,394.130375 L1169.8758,358.600635 C1172.39787,355.986737 1172.47781,352.015335 1170.12873,349.348625 L1155.80951,335.448713 L1142.60021,323.8069 C1141.88827,322.970299 1141.82554,321.526616 1142.61276,320.448825 L1142.39061,320.703791 L1155.43329,307.968341 L1187.61148,338.069043 L1198.17497,348.327045 L1200.92098,345.499115 L1190.32975,335.214695 Z" id="Fill-11" fill="#3A3A3A"></path>
                            <path d="M1094.63975,150.922039 L1128.16812,182.230705 L1129.53614,183.508136 L1130.88244,182.207839 L1145.31548,168.268041 L1145.53907,168.011181 C1147.41193,165.4413 1147.26119,161.951907 1145.15075,159.54657 L1131.78353,147.797891 L1134.67854,150.550154 L1117.69013,134.066792 C1116.80419,133.050386 1116.83598,131.400104 1117.87604,130.321357 L1156.07078,93.4184651 L1157.53435,92.0043297 L1156.07401,90.5868588 L1138.69695,73.7199249 L1137.32745,72.390625 L1135.95483,73.7167083 L1084.0683,123.844152 C1079.27872,128.470718 1079.26967,136.007281 1084.04804,140.637099 L1086.79096,137.806171 C1083.61335,134.727349 1083.61931,129.75835 1086.807,126.679157 L1137.32745,77.7620275 L1152.07948,92.0043292 L1115.0877,127.536031 C1112.5701,130.145509 1112.49355,134.118145 1114.83787,136.783069 L1126.08681,148.044017 L1142.36953,162.328027 C1143.07964,163.162771 1143.14205,164.607546 1142.35348,165.689605 L1142.57707,165.432745 L1129.53614,178.146417 L1097.35788,148.067564 L1086.79251,137.807674 L1084.04649,140.635596 L1094.63975,150.922039 Z" id="Fill-10" fill="#3A3A3A"></path>
                            <path d="M1190.32975,145.214695 L1156.80152,113.900094 L1155.43329,112.622218 L1154.08684,113.923031 L1139.65179,127.868899 L1139.42964,128.123864 C1137.55485,130.69066 1137.7065,134.181147 1139.81885,136.588265 L1153.1837,148.338635 L1150.13636,145.436934 L1153.06482,148.277919 L1167.27745,162.066001 C1168.16585,163.083685 1168.13269,164.731285 1167.08745,165.815323 L1128.89864,202.716321 L1127.43531,204.130374 L1128.8954,205.547774 L1146.27246,222.41673 L1147.6422,223.746415 L1149.01491,222.419799 L1190.27785,182.542387 L1200.90041,172.291321 C1205.68769,167.66472 1205.69674,160.1264 1200.91943,155.497616 L1198.17652,158.328544 C1201.35318,161.406444 1201.34721,166.377733 1198.16215,169.455892 L1187.5396,179.706947 L1147.6422,218.352732 L1133.15886,204.130375 L1169.8758,168.600635 C1172.39787,165.986737 1172.47781,162.015335 1170.12873,159.348625 L1155.80951,145.448713 L1142.60021,133.8069 C1141.88827,132.970299 1141.82554,131.526616 1142.61276,130.448825 L1142.39061,130.703791 L1155.43329,117.968341 L1187.61148,148.069043 L1198.17497,158.327045 L1200.92098,155.499115 L1190.32975,145.214695 Z" id="Fill-11" fill="#3A3A3A"></path>
                        </g>
                    </g>
                </g>
            </g>
        </g>
    </g>
</svg>